<svg id="Layer_1" data-name="Layer 1" xmlns="http://www.w3.org/2000/svg" viewBox="0 0 2048 2048" width="2048"
    height="2048">
    <defs>
        <style>
            .cls-1 {
                fill: #c5ff1b;
            }

            .cls-2 {
                fill: #8eff53;
            }

            .cls-3 {
                fill: #ff79b2;
            }

            .cls-4 {
                fill: #ffa22c;
            }

            .cls-5 {
                fill: #ff2649;
            }

            .cls-6 {
                fill: #b626ff;
            }

            .cls-7 {
                fill: #58ffa4;
            }

            .cls-8 {
                fill: #71ff84;
            }

            .cls-9 {
                fill: #444;
            }

            .cls-10 {
                fill: #585858;
            }

            .cls-11 {
                fill: #b800ee;
            }

            .cls-12 {
                fill: #000dfc;
            }

            .cls-13 {
                fill: #bababa;
            }
        </style>
    </defs>
    <title>exp 2_diffuse_1001</title>
    <path id="espalda-arriba" fill="#c5ff1b"
        d="M1581.08,1214c-.14-26.24-1.13-48.86-1.32-71.51-.18-22.08-1.46-44.19-2.94-66.24-2.23-33.31-4.73-66.62-9-99.74-2.24-17.3-4.47-34.64-9-51.57-3.77-14-9.38-27-19.32-37.85-3.16-3.45-3.48-6.82-1.15-10.82,10.15-17.39,12.62-36.39,12.82-56.22.35-34.27-2.46-68.15-10.37-101.5-6.25-26.38-15.83-51.51-29.69-74.95-9.58-16.21-8-15.05,5.48-23.43,14.83-9.21,30.37-17.28,45.64-25.77,19.79-11,39.64-21.87,59.44-32.84,8.22-4.56,8.86-4.42,15.41,1.86,7,6.66,13.11,14.13,21.31,19.54,12.49,8.23,26.36,12.07,41,12.9,42.78,2.44,85.61,1,128.41.91,17.42,0,35-1.58,50.78-10.58,8.41-4.81,16.38-10.22,22.22-18.21a30.65,30.65,0,0,1,3.07-3.28c7.51-7.57,9.53-7.63,18.93-2.33,25.37,14.29,50.92,28.28,76.25,42.64,11.57,6.56,23.66,12.22,34.47,20.12,3.55,2.6,4.5,5.27,2.71,9.33-2.3,5.21-5.46,9.9-8.16,14.86-15.62,28.66-25.44,59.29-30.88,91.38a440.27,440.27,0,0,0-6,84.48c.43,17.83,3.29,35.09,12.78,50.69,2.2,3.62,3.12,7.56-.39,11-15.06,14.71-19.48,34.11-23.32,53.6-4.54,23-6.93,46.34-9.21,69.67-2.15,22-3.93,44-5.06,66.08-.66,12.78-1.28,25.56-2,38.34-1.59,29.43-1.38,58.89-2.18,88.33-.32,11.91.58,24-1.58,35.83-1.15,6.29-2.34,7-8.81,6.17-16.2-2.07-32-6.22-47.95-9.54-20-4.17-40-8.63-60-12.88a29,29,0,0,0-6-.38q-65.75,0-131.49,0c-10.76,0-21,3.54-31.37,5.69-24.77,5.12-49.46,10.63-74.2,15.89-2.42.51-5,.14-7.46.56-11.24,1.93-9.37.61-11.19-7.92S1581.4,1219,1581.08,1214Z" />
    <path id="pecho-izquierdo" fill="#8eff53"
        d="M750,983c0-87.48.13-175-.18-262.43,0-9.15,3.25-15.41,10-20.84,5.69-4.58,11.18-9.45,16.41-14.54a164.06,164.06,0,0,0,33.1-45.35c5.7-11.57,15-20.27,21.59-31.08,11.54-19,21.2-38.83,27.18-60.32,2.71-9.73,7.42-11.6,16.15-6.75,19.92,11.07,40,21.94,60,32.85,19.14,10.45,38.32,20.8,57.41,31.33a42.86,42.86,0,0,1,8.41,6.22c3.65,3.42,1,7.25-.37,10.49-3.85,9-7.89,18-11,27.31a246.65,246.65,0,0,0-12.72,60.88c-2,26.73-1,53.17,5.94,79.2a10.92,10.92,0,0,0,.62,2.41c9,16.38,5.42,33.92,4.79,51.19,0,.83-.14,1.66-.16,2.49-.35,17.3-.39,34.62-1.1,51.9-.89,21.94-1.42,43.88-2.1,65.82-.61,19.61-1.36,39.21-1.94,58.82q-1,33.17-2.08,66.32-.95,27.91-1.85,55.83-1.15,34.9-2.14,69.81c-.55,19.94-1.29,39.88-2,59.82-.72,21.78-1.61,43.54-2,65.32a80.7,80.7,0,0,1-2.77,18.22c-.91,3.56-3,4.51-6.26,3.86-5.8-1.14-10.9-4.08-16.19-6.45q-45.35-20.29-90.58-40.8-39.35-17.8-78.62-35.75c-7.42-3.39-14.69-7.12-22.11-10.5-3.13-1.42-4.19-3.49-4.49-6.92-1.77-20.3-.81-40.62-.85-60.92Q749.8,1091.71,750,983Z" />
    <path id="pecho-derecho" fill="#ff79b2"
        d="M739.05,984.69q0,134.73.14,269.46c0,7.68-2.72,11.7-9.61,14.82-29.87,13.53-59.48,27.62-89.25,41.39q-49.16,22.74-98.45,45.22c-3.45,1.57-7.32,2.19-11,3.28-3,.89-4.31-.52-4.81-3.32a125.22,125.22,0,0,1-2.24-18.28q-1.05-35.41-2.08-70.83-.88-30.66-1.94-61.32c-.74-22.28-1.35-44.55-2.05-66.83-.63-20.11-1.36-40.21-2-60.33q-1-33.92-2.06-67.82-.94-28.41-1.85-56.83-1.16-35.41-2.14-70.83c-.58-20.61-1.12-41.23-2.12-61.82a62.41,62.41,0,0,1,4.34-26c5.43-14.4,7.18-29.69,7.94-45,.31-6.31,1.24-12.56,1.08-18.92-.9-36.17-7.94-70.94-22.68-104.14-6.11-13.76-6.45-13.34,6.75-21,30.68-17.75,61.8-34.74,92.72-52.06,6.54-3.66,13-7.43,19.52-11.13a35.05,35.05,0,0,1,4-2c7-2.85,10.21-1.44,12.25,5.92,4.76,17.26,11.75,33.63,19.92,49.49A162.68,162.68,0,0,0,675,627.56c5.24,6.1,7.61,14,11.68,20.86,10.59,17.94,23.37,34,39.43,47.3,3.19,2.66,6.15,5.6,9.41,8.18s3.58,6,3.57,9.83Q739,849.21,739.05,984.69Z" />
    <path id="manga-izquierda" fill="#ffa22c"
        d="M1319,976.87c-29.42,1.81-58.9-3.91-88.5-8.21-19.08-2.77-38.11-5.87-57.21-8.49-5.52-.76-8.61-3-10.06-8.53-2.55-9.68-4.69-19.29-4.07-29.44.9-14.85-3.45-29-6.57-43.28-3.92-17.93-5.28-36.17-7.56-54.29-2.44-19.28-4.59-38.59-6.84-57.9-1.42-12.21-2.91-24.41-4.13-36.64-.86-8.64.77-10.72,9.9-13.09s18.11-4.43,25.76-10.28c9.53-7.29,15.15-17.55,21.09-27.52,9.28-15.6,18.23-31.46,31.58-44.07,19.41-18.33,42.47-28.65,69.13-31.35,7.44-.75,15-1.4,22.34-1.53,30.14-.53,58.38,5.79,82.88,24.84,16.38,12.75,28.3,28.86,37.86,47,4,7.65,8,15.35,12,23,8.4,16,21.44,25.95,39,30.22,7.9,1.92,11.08,4.62,9.74,14.59-4.38,32.6-8.26,65.27-12.09,97.94-2.32,19.79-4.09,39.65-6.31,59.46a109.18,109.18,0,0,1-2.93,15.17c-2.68,10.38-1.14,21.1-2.85,31.59-1.79,11.08-2.14,12.22-13,14.16-13.58,2.42-27.21,4.58-40.84,6.79-15.91,2.59-31.81,5.37-47.78,7.58A274.84,274.84,0,0,1,1319,976.87Z" />
    <path id="manga-derecha" fill="#ffa22c"
        d="M181.61,947c-30.17.66-60.69-4.32-91.22-9.34-15.75-2.59-31.54-4.91-47.28-7.54-12.78-2.14-11.89-2.57-14-15.38-1.07-6.37-.89-12.91-1.1-19.38-.19-5.5-3.08-10.86-3.86-16.41-2-14.14-3.44-28.36-5.15-42.54Q15.75,809.71,12.44,783C10,763.2,7.18,743.45,5,723.64c-1.53-14.13-1.35-14.9,12.13-18.4,19.38-5,31.38-17.61,40.1-34.71,7.48-14.67,14.82-29.53,25.55-42.21,20-23.62,45-38.78,75.85-43.32a192.75,192.75,0,0,1,67.44,2c29.5,6.11,52.78,22,70.67,46.12,9.85,13.24,17.1,28.16,27,41.41a50.13,50.13,0,0,0,28.82,19.37c3.71.94,7.47,1.74,11.07,3,6.68,2.34,8.07,4.53,7.34,11.5-.92,8.76-2,17.49-3.11,26.23-2.23,18.31-4.68,36.59-6.67,54.92-3.14,28.93-6.35,57.85-13.6,86.12-2,7.74.33,15.51-1.31,23.28s-3.09,15.63-5.05,23.37c-1.28,5.09-4.56,7-9.2,7.66-32.24,4.65-64.46,9.53-96.74,13.87A349.21,349.21,0,0,1,181.61,947Z" />
    <path
        d="M619.37,230.24q-276.47,0-552.92.06c-5.85,0-11.6-.85-17.4-1.1-3.33-.14-3.79-2.37-4.31-5-2.58-13.18-1.49-26.52-2.14-39.79a104,104,0,0,1,.94-22.72c.49-2.91,1.87-3.56,4.55-4a83.05,83.05,0,0,1,14.42-.86q484.19,0,968.36-.28c47.79-.07,95.59-.22,143.39-.75a50.52,50.52,0,0,1,11.29,1.63,5.13,5.13,0,0,1,4.5,5.12c.55,8.42,1.88,16.75.5,25.33-1,6.34-.37,13-.28,19.46s-1.89,12.81-2.15,19.29c-.07,1.88-1.42,2.3-2.93,2.85-3.09,1.1-6.25.82-9.4.82Z" />
    <path id="costado-izquierdo" fill="#ff2649"
        d="M486.79,836.54c.9,15.72.93,32.21,1.44,48.66.7,22.78,1.3,45.55,2,68.33.7,23.94,1.29,47.88,2,71.82q1,33.9,2,67.82c.69,24.11,1.31,48.21,2,72.32q1,33.91,2,67.82c.67,24.44,1.18,48.89,2.1,73.32.63,16.44.63,32.87.84,49.3.06,4.61-2.1,6.76-6,7.84-17,4.68-34.18,8.5-52,8.38-7.61-.05-15.25.85-22.84,1.64-6.85.71-10.73-2.43-11.29-9.32-1.91-23.17-4-46.33-5.86-69.5-1.16-14.24-2-28.5-3.19-42.74-1.48-17.87-3.21-35.72-4.73-53.58-1.15-13.57-2.11-27.16-3.23-40.74-1.21-14.72-2.55-29.44-3.76-44.17-1.13-13.74-2.11-27.49-3.25-41.23-1.2-14.56-2.53-29.11-3.73-43.67-.81-9.77-1.46-19.55-2.27-29.32-1.2-14.56-2.53-29.11-3.73-43.67-.81-9.77-1.46-19.55-2.27-29.32-1.2-14.56-2.52-29.11-3.73-43.67-.81-9.77-1.5-19.55-2.26-29.32-.19-2.48-.53-4.95-.7-7.43a24.45,24.45,0,0,1-.08-5.47c1.17-7,5-8.48,10.54-4.21a7.62,7.62,0,0,1,1.85,1.67c8.44,12.86,21.22,13.16,34.3,11.3,26.3-3.75,42.68-21.17,56.36-42,1.37-2.09,2.49-4.33,3.84-6.44,1.91-3,5.13-5.48,8.17-4.66s4.84,4.54,4.74,8.11C485.66,814.89,488,825.29,486.79,836.54Z" />
    <path id="costado-derecho" fill="#b626ff"
        d="M992.55,1346.16c.48-23.94.5-47.91,1.66-71.82.5-10.32.29-20.62.77-30.91,1.16-24.6,1.45-49.21,2.14-73.81.64-22.44,1.35-44.88,2-67.32q1-36.4,2-72.81c.64-22.27,1.36-44.54,2-66.81.68-24.77,1.3-49.55,2.13-74.31.36-10.47-.08-21,.83-31.41,1.51-17.42.11-34.92,1.89-52.32.38-3.71,1.69-7.7,5-8.37s6.52,1.94,8.32,5.32a137.53,137.53,0,0,0,13.73,20.16c8.89,11.33,20.46,19.39,33.23,24.89a49.78,49.78,0,0,0,34.24,1.58,22.92,22.92,0,0,0,11.51-8.35,11.11,11.11,0,0,1,2.3-2.6c2.28-1.49,4.53-4.89,7.21-3.33a9.49,9.49,0,0,1,4.42,9c-.64,8.62-1.4,17.22-2.14,25.82q-1.36,15.88-2.77,31.75c-1.26,14.56-2.54,29.11-3.75,43.67-.81,9.77-1.45,19.55-2.26,29.31-1.21,14.56-2.53,29.11-3.73,43.67-.81,9.77-1.46,19.55-2.27,29.31-1.21,14.56-2.51,29.12-3.74,43.67-.77,9.11-1.49,18.21-2.24,27.32-1.28,15.38-2.6,30.77-3.82,46.16-1.12,14.07-2.07,28.16-3.22,42.23s-2.49,28.11-3.7,42.17c-.79,9.27-1.5,18.54-2.27,27.81-1.26,15.22-2.58,30.44-3.8,45.67-1.12,14.07-2.26,28.14-3.17,42.23-.49,7.61-4.09,10.76-11.59,10s-15.23-1.54-22.85-1.57c-16.63-.07-32.75-3-48.61-7.62-8.51-2.49-8.46-2.54-9.15-11.46-.18-2.31-.66-4.6-1-6.9Z" />
    <path id="bolsillo-lumbar-centro" fill="#58ffa4"
        d="M1768.75,1305c18.3,0,32.81.2,47.3-.08,7.86-.15,15.59,1.2,23.42,1.16,5,0,7.29,2.74,7.34,7.41.11,8.82.18,17.65-.12,26.47-.09,2.62-.61,5.27-.65,7.93-.32,20-.3,40-1.11,59.91-.93,23.11-1.27,46.23-2.11,69.33-.54,14.91-.25,29.94-2.76,44.77-.48,2.85-1.71,4.09-4.5,4.17a301.56,301.56,0,0,1-39.87-1.57c-15.59-1.63-31.14-1.23-46.76,0-12.86,1-25.69,3.45-38.71,1.82-3.29-.41-4.86-2-5.09-5-.67-8.78-2.36-17.45-2.23-26.32.26-17-.78-33.94-1.17-50.91-.53-23.11-1-46.24-2-69.32-.79-17.78,0-35.61-1.74-53.35a14.9,14.9,0,0,1,0-2.5c.8-12.68.89-12.1,12.67-13.06C1731.28,1304.12,1751.92,1305.68,1768.75,1305Z" />
    <path id="cuello" fill="#71ff84"
        d="M1816.91,534c-32.46,2-65,1.09-97.42.88-14.4-.09-28.82-1.21-42.92-5.31-17.91-5.2-32.88-14.83-44.36-29.17-9.15-11.43-20.78-20.07-31-30.27-11.11-11.09-21.49-22.66-29.7-36.06-7.64-12.47-13.39-25.81-15-40.41-1.92-17.07.64-33.49,9.65-48.51,1.75-2.92,4-3.31,7.22-2.64,13.75,2.87,26.91,7.52,39.92,12.69,2.7,1.08,4,2.89,3.76,5.75-.34,5-.62,9.95-1,14.92-1.8,22.95,5.91,42.49,20.37,60.11,12.64,15.39,27.07,28.84,42.07,41.78a13,13,0,0,0,5.08,3.07c10.35,2.4,20.64,5.73,31.29,6,19,.47,38,.88,57-.08s38-.17,56.92-.9c9.14-.35,18.09-2.72,27-4.8,5.5-1.3,8.81-6.35,13.22-9.56,9.61-7,18.09-15.3,26.28-23.7,18.67-19.15,32.26-41.08,31.69-69.21a126.58,126.58,0,0,0-1.24-14.4c-1.16-8.57-1.17-8.33,6.41-11.89,10.77-5,22.08-8.37,33.56-11.25,7.95-2,10.06-1.3,13.19,6.18,9.29,22.14,10.29,44.59,1.05,67-7.44,18.08-18.72,33.59-32.14,47.75-7.91,8.34-16.22,16.18-24.86,23.71-5.7,5-9.63,11.44-14.69,17a87.9,87.9,0,0,1-40.9,25.54C1850.82,533,1833.89,533.72,1816.91,534Z" />
    <path id="bolsillo-lumbar-derecho" fill="#58ffa4"
        d="M1997,1357c-1.33,24.28-1.07,48.6-.91,72.9.13,20.3,1,40.6,1.17,60.91.11,11.92,1.51,23.87,1.74,35.83.13,6.72-.67,7.16-7.52,7.39-18.49.63-36.84-1.36-55.23-2.83-15.56-1.25-31.14-2.52-46.74-3.09s-18.76-2.05-18.17-17.25c.54-14.11-.57-28.29,1.41-42.35a14.82,14.82,0,0,0,.17-2.49c-.66-17.15.9-34.26,1.11-51.41.33-27.27,1.8-54.53,2.11-81.82a113.48,113.48,0,0,1,2.62-22.75c.62-2.87,1.39-3.54,4.5-3.46,16.85.43,32.76,5.69,49,9.31,19.31,4.32,38.84,7.77,57.79,13.72,5.18,1.63,6.88,4.69,7,9.39C1997.09,1345,1997,1351,1997,1357Z" />
    <path id="bolsillo-lumbar-izquierdo" fill="#58ffa4"
        d="M1679.9,1414.07c.36,15.31.59,31.65,1.5,47.9.79,14.29-.66,28.64,1.58,42.86.88,5.65-1,11.25-1,16.91,0,3-2.26,3.53-4.37,3.85-8.22,1.24-16.43,2.67-24.7,3.37-22,1.84-44.05,3.52-66.09,4.89-9,.55-18,.12-27,.17-3.93,0-4.85-2.74-4.76-5.68.3-10.13.88-20.26,1.38-30.38.08-1.49.42-3,.46-4.46q1.56-61.95.85-123.91c-.12-9-.85-17.94-.81-26.93,0-10.2.37-10.86,9.85-13.76,17.85-5.45,36.25-8.67,54.4-12.88,12.49-2.89,25.06-5.4,37.53-8.33,4.46-1,9-.23,13.41-1.19,2.37-.51,2.75,1.28,3,3,1,6.41,2.73,12.83,2.69,19.23-.1,15.67,1.37,31.28,1.08,46.92C1678.71,1388.16,1680.76,1400.57,1679.9,1414.07Z" />
    <path id="espalda-abajo" fill="#c5ff1b"
        d="M1771.61,1580c59.48,0,119,.12,178.44-.17,6.29,0,10.38,2.13,13.91,6.7,6.6,8.55,13.25,17.08,19.84,25.64a13.8,13.8,0,0,1,2.06,3.37c2.1,5.59,1.43,6.53-4.25,8.57-11.32,4.07-23.25,3.65-34.94,4.89-15,1.61-30.09,2.66-45.15,3.89-13.57,1.12-27.16,2.09-40.73,3.23-14.06,1.19-28.09,2.9-42.17,3.67-18.72,1-37.32,4.54-56.15,3.24-13.91-1-27.77-2.49-41.67-3.69-13.07-1.13-26.15-2.14-39.22-3.25-14.56-1.22-29.11-2.53-43.67-3.73-13.74-1.14-27.53-1.79-41.21-3.38-12.3-1.43-24.94-.16-36.89-4.83-4.78-1.86-5.29-4.34-3.19-8.31,4.31-8.15,10.86-14.68,16.16-22.11.1-.14.26-.23.33-.38,6.17-12.1,16.38-13.76,29.06-13.62C1658.65,1580.31,1715.13,1580,1771.61,1580Z" />
    <path fill="#444"
        d="M81.44,91.89c-.28,1-.54,1.72-.7,2.48-.24,1.2.25,2,1.49,2,1,0,1.46-.73,1.38-1.67-.14-1.61-1-3.16,2.18-2.82,2.15.22,3.06.11,2.49,2.51a1.32,1.32,0,0,0,1.23,1.78c1,0,1.31-1,1.22-1.82-.19-1.76-.71-3.24,2.32-2.78,2.12.32,3.08.46,2.41,2.82-.3,1,.11,2.12,1.48,2a1.47,1.47,0,0,0,1.23-2.21c-1.31-3,.22-2.29,2.39-2.58,3.8-.51,7.54.15,11.31-.17,1.76-.15,6-1.21,4.63,3.67-.23.86.67,1.49,1.65,1.28a1.4,1.4,0,0,0,1.14-1.89c-1.41-3.49,1-2.72,2.94-2.92,3.49-.37,1.6,1.7,1.48,3A1.49,1.49,0,0,0,125,96.4c1,.17,1.8-.6,1.51-1.44-1.38-4.09,2.13-3.42,3.84-3.6a36.46,36.46,0,0,1,10,.18c1.8.32,6.25-1.27,4.59,3.81-.19.59.61,1.17,1.36,1.1a1.37,1.37,0,0,0,1.28-1.76c-.31-1.83-.69-2.86,2.23-2.78,2.73.07,3.15.6,2.6,2.93a1.08,1.08,0,0,0,1,1.42,1.33,1.33,0,0,0,1.3-1.72c-.34-2-.34-2.78,2.39-2.62,2.33.14,2.47.58,2.14,2.43-.19,1.08.28,2.27,1.52,2,3.27-.61.25-3,1.33-4.79,1.29,1.41,5.22-1.77,4.54,3.16A1.3,1.3,0,0,0,168.42,96c1.05-.26,1.06-1.13.75-2s-.85-1.49.1-2.68c1.22,1.3,5.28-1.66,4.2,3.33a1.45,1.45,0,0,0,1.71,1.86c1.27-.17,1.44-1.16,1.13-2.27C176,93,174.39,91,177.62,91.61c1.46.27,4.65-1.16,3.1,2.74a1.44,1.44,0,0,0,1.46,2.06c1.35,0,1.65-1.07,1.29-2.12-.93-2.71.77-2.58,2.56-2.59,5,0,10.07-.2,15.1-.23,2.08,0,1.16,1.51,1.13,2.53s-.07,2.2,1.28,2.21c1.12,0,1.25-1.07,1-1.88-1.3-4,2.36-2.2,3.48-2.6,2.13-.76,1.57,1.23,1.43,2.45-.1.86-.17,1.91.87,2,1.47.14,1.49-1.1,1.2-2.07-1.11-3.76,2.1-1.77,3.2-2.26,2.39-1.06,1.67.9,1.59,2.09s0,2.57,1.61,2.45c1.31-.1,1.33-1.25,1-2.31-.38-1.38-1-2.87,1.59-2,1.2.39,3.76-1.4,3,2-.23,1-.27,2.27,1.16,2.14s1.16-1.43,1-2.41c-.23-1.59-.13-2.79,2-2.14,1.27.39,3.8-.8,2.86,2.37-.35,1.19-.26,2.61,1.49,2.37,1.57-.21,1.44-1.51,1.05-2.75s-.37-2.63,1.5-1.92c1,.41,3.53-1.28,3,1.77-.21,1.33-.67,3,1.36,3s1.57-1.59,1.13-2.93-.35-2,1.58-2c4.15.15,8.37-.56,12.44,0,1.37.18,6.5-1.89,4.63,3.56-.09.26.72,1,1.25,1.25.7.27,1.61-.33,1.44-.92-.86-3.1.85-3.62,3.33-3.87,1.09-.11,1.59.06,1.65,1.07.05.82-.2,1.66-.13,2.47a1.08,1.08,0,0,0,1.36,1c.37-.1.95-.78.87-1C267,91,271,91.57,272.48,91.45c4-.31,8,.33,12,.36,2.22,0,3.93,0,2.91,3a1.06,1.06,0,0,0,1,1.43c1.11,0,1.18-.89,1.19-1.77,0-1.22-1.37-3.51,1.59-2.72,1.26.34,4.6-1.08,3.29,2.75a1.34,1.34,0,0,0,1.54,1.9c1.23-.19,1.57-1.21,1.18-2.29-1-2.69.4-2.13,2.37-2.42,5.11-.75,10.13.2,15.19,0,2.11-.09,1.32,1.22,1,2.23-.44,1.28-.46,2.49,1.18,2.6s1.91-1.2,1.55-2.43c-1-3.63,2.08-2.29,3.28-2.48,2.49-.39,1.38,1.35,1.07,2.52s0,2.09,1.24,2.23,1.68-.88,1.49-2c-.27-1.66-.69-3,2-2.41,1.61.33,3.43-.53,2.67,2.31-.22.83,0,1.88,1.06,1.92,1.45.06,1.37-1.11,1.2-2.12-.25-1.52-.39-2.82,1.88-2.07,1.19.39,3.75-1.31,2.9,2-.25,1,0,2.23,1.31,2.12s1.25-1.38,1.05-2.36c-.63-3,1.56-1.43,2.69-1.76,1.79-.51,2.61-.26,2.18,1.8-.24,1.17-.45,2.71,1.32,2.52s1.07-1.64.75-2.73c-.42-1.39-.07-2.7,1.51-2.07,1.17.47,3.9-1.31,3.49,2-.16,1.3-.72,3,1.43,2.82,1.67-.18,1-1.72.77-2.84s-.61-2,1.46-2c7.19,0,14.37-.37,21.56.11,2,.13,4.31-.59,2.89,2.88a1.39,1.39,0,0,0,1.18,1.86c1,.19,1.92-.53,1.61-1.32-1.51-3.94,2.25-3.69,3.49-3.46,2.8.5,7.92-2.85,7.82,3.81,0,.68.78,1.08,1.52,1a1.4,1.4,0,0,0,1.26-1.78c-.34-1.9-.55-2.82,2.27-2.75,2.52.07,2.82.52,2.41,2.63a1.28,1.28,0,0,0,1.34,1.66c1.07-.09,1.16-1,1.12-1.91-.08-1.4-1-3.2,1.91-2.69,1.83.32,3.81,0,2.81,3A1.35,1.35,0,0,0,410,96.41a1.51,1.51,0,0,0,1.09-2.31c-1.51-3.42.64-2.42,2.54-2.38,4.31.11,8.63-.21,12.93-.12,1.52,0,4.09-.42,2.91,2.83-.36,1,.06,2.13,1.45,2a1.5,1.5,0,0,0,1.28-2.2c-.91-2.5,0-2.45,2.29-2.54,2.56-.09,3,.26,2.23,2.58a1.5,1.5,0,0,0,1.35,2.16,1.2,1.2,0,0,0,1.41-1.56c-1.43-4.24,2.31-3.39,3.91-3.49a81.44,81.44,0,0,1,11.46.47c1.74.14,4.62-.55,3,3.12-.35.83.47,1.61,1.48,1.49a1.38,1.38,0,0,0,1.18-1.84c-.49-2.07-.33-2.8,2.33-2.67,2.19.12,3.17,0,2.53,2.51-.22.83,0,1.83,1.1,1.82s1.25-.94,1.22-1.82c0-1.39-1-3,2-2.49,2,.3,3.11,0,2.54,2.49-.24,1,.34,2.23,1.6,2,3.15-.71.16-3.1,1.09-4.71,1.58,1.14,5.51-1.77,4.72,3.17-.13.84.86,1.39,1.81,1.15.75-.2.91-.86.79-1.59-.16-.92-1.19-1.76,0-3.12,1.12,1.46,5.42-1.6,4.15,3.47a1.44,1.44,0,0,0,1.8,1.76c1.28-.23,1.35-1.27,1-2.34-.43-1.37-1.72-3.34,1.41-2.5,1.18.32,4.41-1.65,3.12,2.26-.43,1.32-.15,2.48,1.46,2.46,1.33,0,1.52-1.15,1.2-2.19-.63-2.09.16-2.24,2.14-2.5,5.22-.7,10.41.28,15.61-.21,1.95-.18,1,1.58,1,2.59s0,2.19,1.38,2.1c1.07-.07,1.15-1.12.89-2-1.27-4.07,2.5-2.14,3.56-2.52,2.1-.75,1.44,1.35,1.34,2.55-.06.86-.12,1.93,1,1.94,1.45,0,1.36-1.22,1.1-2.18-1-3.81,2.21-1.74,3.3-2.19,2.36-1,1.54,1.07,1.49,2.2s0,2.24,1.33,2.15,1.27-1.37,1.08-2.36c-.6-3,1.55-1.42,2.69-1.75,1.9-.55,2.53-.09,2.14,1.86-.2,1-.38,2.3,1,2.28s1.31-1.31,1.13-2.31c-.37-2,.14-2.78,2.37-2.22,1.36.34,3.26-.45,2.51,2.22-.33,1.16-.42,2.62,1.36,2.47,1.57-.12,1.58-1.38,1.14-2.65s-.88-2.74,1.1-2.13c1.12.35,3.92-1.27,3.44,2-.2,1.36-.52,3,1.49,2.91s1.41-1.71,1-3c-.47-1.51-.08-1.94,1.7-1.83,4.94.3,9.88-.4,14.88.32,2.25.33,2.92.26,2.08,2.58-.4,1.09.37,2,1.62,1.88a1.31,1.31,0,0,0,1.19-1.8c-1.27-3.55,1.63-2.53,3.13-2.86,3.24-.71,1.3,1.7,1.52,2.75.17.85.29,1.77,1.34,1.72s1.26-1.09,1-1.89c-1.13-3.44,1.65-2,3-2.47,3.23-1.13,1.68,1.26,1.76,2.39.06.86,0,1.77,1.08,2a1,1,0,0,0,1.23-1.15c-1.46-4.7,3.06-3.52,4.26-3.38,2.77.33,7.92-3,7.71,3.76,0,.27.68.79,1.05.79.82,0,1-.7,1.06-1.41.13-1.26-1.6-3.62,1.72-3.06,1.63.27,4.29-.55,3.09,2.89a1.31,1.31,0,0,0,1.25,1.76c1.26,0,2-.85,1.57-2-1-2.71,0-2.8,2.47-2.74,7.25.18,14.51,0,21.76-.21,2.5-.08,1.83,1,1.39,2.41s-.2,2.5,1.44,2.44c1.31-.05,1.39-1.2,1.19-2.25-1-5.2,4.2.47,3.85-3.19,1.36,1.43.82,2.18.56,2.93-.45,1.31-.31,2.48,1.31,2.54,1.32,0,1.54-1.06,1.31-2.15-.4-1.9-.25-2.52,2.19-2.3,2,.18,3.17-.07,2.54,2.45-.21.83.11,1.82,1.16,1.85s1.35-1,1.13-1.79c-.62-2.44.29-2.41,2.52-2.52,2.69-.14,2.77.63,2.34,2.67-.18.87.2,1.77,1.3,1.59s1-1.1,1-2c0-1.1-1-3.16,1.32-2.49,1.13.33,4.71-1.27,3.4,2.66-.34,1,0,2.08,1.41,2.06.75,0,1.42-.69,1.19-1.3-1.94-5.08,3-3.52,4.22-3.52,2.69,0,7.51-2.53,7.22,3.75a1.11,1.11,0,0,0,1.43,1,1.51,1.51,0,0,0,1.23-2.23c-1.4-3.23.46-2.49,2.51-2.51s4.24-.09,6.38,0c1.93.11,3.91-.56,2.67,2.63a1.48,1.48,0,0,0,1.42,2.1,1.12,1.12,0,0,0,1.36-1.13c-.78-5.93,4-3.58,6.25-3.64,1.46,0,6.7-2,4.85,3.65-.2.6.53,1.22,1.26,1.24a1.52,1.52,0,0,0,1.69-1.92c-.33-2-.4-2.74,2.32-2.72s2.74.63,2.38,2.66a1.27,1.27,0,0,0,1.37,1.63c1.06-.11,1.26-1.06,1.08-1.91-.39-1.9-.16-2.35,2.16-2.35s2.88.36,2.43,2.59A1.45,1.45,0,0,0,723,96.41a1.33,1.33,0,0,0,1.26-1.77c-1.66-3.59.51-2.83,2.83-3.12,2.49-.31,4.77.45,7.14.35.77,0,1.29,0,1.46.81.28,1.33-1.46,4,1.51,3.55,2.74-.45-.38-3.21,1.13-5,1.37,1.21,5.39-1.26,4.15,3.56a1.24,1.24,0,0,0,1.42,1.59,1.49,1.49,0,0,0,1.37-2.13c-.78-2.27-.39-2.7,2.2-2.62,2.26.08,3.26-.07,2.33,2.49A1.54,1.54,0,0,0,751,96.41c1,.18,1.78-.62,1.49-1.47-1.4-4.12,2.2-3.47,3.85-3.57a73.25,73.25,0,0,1,11.46.46c1.55.15,4.73-.71,2.93,3.06-.37.78.53,1.56,1.5,1.54a1.28,1.28,0,0,0,1.32-1.69c-1.48-4,2.24-2.76,3.47-3,2.37-.55,1.17,1.55,1.22,2.64,0,.87.07,1.81,1.14,1.9s1.47-.81,1.35-1.66c-.3-1.94-.47-2.87,2.35-2.64,2.22.17,2.51.45,2.19,2.37-.22,1.34.43,2.57,1.94,2,2.5-.91,0-2.9.64-4.49,2.22.67,6.42-2.12,4.84,3.54,1.79,0,2-.75,1.91-1.63-.16-1.61,0-2.75,2.11-2.08,1.28.41,3.76-.69,2.82,2.42-.37,1.21-.13,2.57,1.53,2.44s1.56-1.37,1.08-2.62-1-3,1.32-2.21c1.11.39,4.51-2,3.36,2.08-.36,1.3-.32,2.53,1.24,2.63,1.81.11,1.62-1.33,1.31-2.49-.52-2,.26-2.12,2-2.11,5.12,0,10.25-.24,15.38-.32,2.4,0,1.46,1.52,1.19,2.72s-.12,2.16,1.2,2.21,1.65-1.06,1.31-2.1c-1.33-4,2.5-2.38,3.44-2.57,2.52-.52,1.1,1.39.86,2.44s0,2.09,1.27,2.22,1.79-1,1.44-2c-1.36-4,2.2-2.26,3.36-2.62,2.34-.74,1.4,1.3,1.37,2.4,0,.88,0,1.85,1,2,1.41.2,1.71-1,1.45-2-.79-3.09,1.38-1.86,2.78-2.18,2.15-.5,2.31.36,2,2-.18,1-.28,2.21,1.17,2.16,1.08,0,1-1.12.92-2-.23-1.6-.58-3.15,2.05-2.65,1.69.33,3.95-.27,2.86,2.87-.35,1,.11,2.16,1.48,2s1.29-1.3,1-2.35c-.32-1.27-1.07-3,1.33-2.49,1.32.25,4.23-.83,3.2,2.63-.38,1.29.16,2.52,1.71,2.31s1.43-1.51,1-2.72c-.6-1.64-.54-2.47,1.72-2.13,2.08.31,4.33-.38,6.36,0,1.3.28,4.7-.7,3.25,3.08-.39,1,.56,1.89,1.79,1.73,1-.13,1.3-.93,1.16-1.86-.2-1.33-2-3.3,1.56-2.82,1.8.24,4.2-1.07,2.71,2.53a1.43,1.43,0,0,0,1.48,2c1.34,0,1.62-1.1,1.28-2.15-1.19-3.63,1.91-1.87,3-2.39,2.41-1.09,1.86.7,1.74,2-.09,1-.21,2.3,1.11,2.34s1.32-1.26,1.07-2.22c-1-3.83,2.27-1.75,3.35-2.15,2.33-.88,1.47,1.17,1.44,2.29s0,2.19,1.39,2.07c1.05-.1,1.07-1.15.88-2-.5-2.13.24-2.14,2.28-2.27,2.48-.15,3,.27,2.47,2.52-.18.84.19,1.81,1.24,1.76s1.2-1.07,1-1.9c-.43-2.13.32-3.17,2.55-3.15,2.43,0,2.67,1.39,2.31,3.34-.16.85.12,1.81,1.22,1.68s1.09-1.16.91-2c-.47-2.24.54-3.2,2.64-3.07,4.24.26,8.47.56,12.74.42,1,0,5.12-.76,3.57,3.31-.31.82.43,1.63,1.4,1.67,1.3,0,1.69-.78,1.54-2s-2-3.15,1.24-2.92c1.75.13,3.89-.16,2.83,2.9a1.43,1.43,0,0,0,1.56,2,1.48,1.48,0,0,0,1.42-2.11c-1.16-3.25,1.35-2.55,2.92-2.8,3.24-.52,1.55,1.47,1.34,2.71s.23,2.08,1.48,2.06,1.59-1.13,1.27-2.17c-1.28-4.1,2.65-2.3,3.5-2.44,2.56-.44.9,1.49.75,2.48-.18,1.18.16,2.09,1.39,2.15s1.67-1,1.4-2.06c-.67-2.61.56-2.1,2.55-2.39,3.61-.54,2.07,1.25,1.84,2.72-.15.93.23,1.69,1.24,1.76a1.24,1.24,0,0,0,1.41-1.59c-.57-2.41,0-2.79,2.62-2.93,3.08-.17,2.41,1.13,2.19,2.83-.09.71.17,1.43,1,1.49,1.11.08,1.25-.78,1.28-1.67,0-1.2-1.38-3.5,1.51-2.81,1.21.29,4.65-1.14,3.33,2.74a1.38,1.38,0,0,0,1.51,2c.75,0,1.36-.78,1.11-1.38-2.06-4.79,2.78-3.52,3.78-3.38,2.78.4,7.9-2.93,7.68,3.78a1.05,1.05,0,0,0,1.47.92,2.43,2.43,0,0,0,1.23-1.33c.37-1.1-1.14-2.1-.08-3.65,1.74.85,5.54-1.2,4.36,3.73-.2.84.66,1.56,1.64,1.41,1.27-.18,1.6-1.15,1.19-2.22-.83-2.21-.56-2.73,2.12-2.62,2.32.09,3.23,0,2.21,2.53-.42,1-.22,2.06,1.07,2.31.94.19,1.92-.48,1.71-1.3-1.28-5,3.36-3.86,4.85-3.7,2.32.25,7.6-2.34,6.32,4.08-.12.63.8,1,1.51.93,1.25-.19,1.61-1.07,1.4-2.2-.33-1.75-.48-2.74,2.13-2.4,1.87.25,3.27-.23,2.6,2.41-.21.82.06,1.81,1.13,1.86s1.29-.88,1.18-1.76c-.21-1.55-.82-2.82,2-2.54,2.23.23,3.36.16,2.73,2.82-.25,1.07.63,1.9,1.88,1.63a1.34,1.34,0,0,0,1-1.93c-1.57-3.16.59-2.1,2.29-2.54,2.52-.64,4.78,0,7.14,0s2.16.54,1.88,2.11c-.22,1.24-.23,2.58,1.52,2.34,1.32-.17,1.15-1.37.9-2.4-.32-1.32-.94-3.09,1.48-2.37,1.11.33,3.95-1.14,3.17,2.18-.27,1.16-.52,2.6,1.23,2.6,1.59,0,1.76-1.23,1.31-2.54-.83-2.45.5-2,2.26-2.13,7.51-.67,15,0,22.51-.13,2.71-.06,1.07,1.59.88,2.6s.06,2.09,1.29,2.22,1.8-1,1.45-2c-1.38-4,2.19-2.27,3.35-2.65,2.36-.77,1.44,1.25,1.4,2.37s0,2.16,1.42,2c1-.08,1.07-1.06,1.06-1.94,0-1.13-1.08-2.8,1.66-2.31,1.8.31,3.7-.34,2.87,2.68a1.44,1.44,0,0,0,1.78,1.78c1-.13,1.23-.9,1.24-1.85s-2.42-3,1.23-2.59c1.82.24,3.76-.48,3.13,2.54-.06.28.53.69.85,1.07,2-.67-.37-5.48,4-3.88,1.42.51,2.54.2,2,2.18-.3,1.17-.45,2.61,1.32,2.52,1.58-.08,1.69-1.31,1.19-2.59-.85-2.16-.26-2.28,2-2.17,7.1.32,14.24.34,21.34.05,2.49-.11,3.59-.27,2.41,2.58a1.47,1.47,0,0,0,1.33,2.15c.74.09,1.56-.49,1.37-1.1-1.5-4.67,2.66-2.82,4.31-3.86,1.15.93.21,1.81,0,2.71-.3,1.14,0,2.09,1.24,2.23,1.38.16,1.82-.94,1.46-2-1.34-3.94,2.14-2.28,3.33-2.65,2.37-.74,1.44,1.27,1.42,2.37s0,2.17,1.44,2c1-.1,1.23-1.12,1-2-.82-3,1.3-1.89,2.75-2.21,2.11-.46,2.34.3,2,2-.18,1-.28,2.3,1.14,2.17s1-1.45.87-2.42c-.11-1.15,0-3.18,1.35-2.06s3.88-1.7,3.8,1.5c0,1.42-.86,3.6,1.56,3s.11-2.83.68-4.77c1.71,1,5.66-1.91,4.57,3.4a1.41,1.41,0,0,0,1.46,1.66c1,.06,1.91-.6,1.55-1.44-2.23-5.23,2.76-3.67,4-3.53,2.6.27,7.6-2.64,7.08,3.83-.07.89,1,1.33,1.87,1.09a1.43,1.43,0,0,0,1-2c-.37-1.52-1.72-3.3,1.72-2.87,2,.25,3.79-.39,2.58,2.68a1.44,1.44,0,0,0,1.44,2.06c1.35,0,1.67-1.06,1.31-2.11-1.15-3.4,1.66-2.48,3.06-2.7,3-.47,1.58,1.57,1.39,2.84-.12.91,0,1.8,1,2a1.34,1.34,0,0,0,1.59-1.85c-1-3,.82-2.6,2.74-2.58,3.54,0,8.22-3.16,9.2,3.55,0,.29.75.7,1.13.67.81,0,1.08-.78,1-1.47-.38-2.15-.06-3.64,2.63-3.56,2.49.08,2.5,1.59,2.21,3.44-.13.9.21,1.74,1.32,1.58.76-.12,1-.86.86-1.56-.31-1.84-.3-3.36,2.2-3.45,2.7-.1,3,1.38,2.64,3.54a1.33,1.33,0,0,0,1.34,1.69c1,0,1.85-.75,1.5-1.54-2-4.51,2.58-3.17,3.38-3.08,2.93.31,8.17-3.33,7.95,3.77,0,.69.75,1.09,1.49,1,1-.1,1.71-.88,1.34-1.68-2-4.36,1.69-3,3.39-3.31a23.78,23.78,0,0,1,4.91.1c1.76.07,4.47-.89,3,2.78a1.4,1.4,0,0,0,1.12,1.91c1,.23,1.87-.39,1.67-1.27-1.16-5.06,3.78-3.83,4.91-3.54,2.27.59,7.67-2.75,6.54,3.84-.11.66.69,1.15,1.44,1a1.39,1.39,0,0,0,1.18-1.84c-.49-2.1-.3-2.78,2.36-2.67,2.29.1,3.11.14,2.49,2.55-.22.83,0,1.82,1.13,1.77s1.22-1.08,1-1.9c-.7-2.67.58-2.35,2.63-2.4s2.77.17,2.27,2.29c-.25,1.05-.07,2.16,1.27,2.18s1.66-1.07,1.25-2.12c-1-2.72.32-2.16,2.28-2.38a34.77,34.77,0,0,1,7.14,0c2.28.19,2.51.45,2.08,2.33-.24,1.07-.08,2.17,1.26,2.17s1.53-1,1.26-2.14c-.36-1.44-1.33-3.2,1.59-2.67,1.62.29,4-.33,2.92,2.85a1.46,1.46,0,0,0,1.46,2.08c1.67,0,1.76-1.22,1.29-2.5-.75-2-.31-2.61,2-2.28,1.67.23,3.6-.68,2.45,2.31-.49,1.27-.37,2.4,1.32,2.49a1.29,1.29,0,0,0,1.43-1.61c-1.29-3.58,1.84-2.53,3.27-3.34,2.52-1.42,4.91,1.09,7.58.07,1.11-.43.74,1.39.43,2.28-.45,1.27-.48,2.43,1.17,2.6a1.44,1.44,0,0,0,1.6-2c-.93-2.87.83-2.66,2.76-3,2.86-.52,2,1.26,2,2.65,0,.88.28,1.8,1.29,1.8,1.21,0,1.15-1.05.94-1.87-.57-2.2.19-2.52,2.29-2.14,1.39.25,3.16-.8,2.48,2-.29,1.21,0,2.58,1.6,2.42,1.38-.13,1.23-1.31.84-2.32-.85-2.24-.15-2.22,2-2.16,2.52.07,4.92-.52,7.64,0,2.18.37,2.46.52,2,2.38-.24,1.07,0,2.16,1.3,2.14s1.5-1.08,1.23-2.18c-.36-1.46-1.22-3.29,1.64-2.6,1.26.31,3.84-.78,2.92,2.39-.35,1.19-.26,2.62,1.48,2.37s1.4-1.54,1-2.76c-.62-2,.34-1.81,2-1.94,7.44-.58,14.87.07,22.29-.16,2.49-.07,2,.89,1.51,2.3s-.34,2.47,1.27,2.57c1.34.08,1.67-1.06,1.33-2.1-1.17-3.56,1.79-2,3-2.42,3.19-1.17,1.66,1.26,1.73,2.39,0,.86,0,1.8,1.09,1.94a1.22,1.22,0,0,0,1.39-1.58c-.79-2.83.74-2.43,2.77-2.68,3.63-.45,1.39,1.63,1.4,2.65,0,1.2.42,2,1.66,2,.92,0,1.31-.67,1.79-1.43.65-1-2.78-2.81,1.07-3.3,3.45-.44,3.2,1.89,3.7,3.66,2.74-.6.31-4,2.33-3.86,1.27.06,5.08-1.76,4,2.63-.26,1.08,0,2.18,1.33,2.13,1.62-.08,1.77-1.25,1.28-2.54-.73-1.94-.64-2.41,1.9-2.27,7.18.39,14.4.33,21.6.09,2.13-.07,3.42-.55,2.32,2.26-.5,1.28-.23,2.49,1.42,2.43,1.32,0,1.46-1.23,1.15-2.25-1.08-3.55,2-2.34,3.24-2.55,2.45-.41,1.52,1.28,1.13,2.51s-.09,2,1.13,2.31c1,.22,1.86-.61,1.55-1.4-1.71-4.25,2.29-3.14,3.65-3.43,2.29-.49,4.82,0,7.23.23,1.7.17.87,1.37.67,2.23-.26,1-.37,2.17,1,2.39s1.58-.81,1.59-1.93-1.41-3.5,1.58-2.72c1.29.34,4.61-1.07,3.26,2.74-.28.79.08,1.86,1.16,1.73,1.32-.17,1.22-1.38,1.11-2.38-.16-1.43-.35-3,1.86-2.17,1,.39,3-1,3.06,1.36,0,1.52-1,4,1.85,3.29,2.51-.64-.28-2.85.39-4.28,2.59-.26,5.19-.88,7.7-.65,1.67.16,5.23-.73,3.92,3.46-.34,1.09.67,1.85,1.87,1.64,1-.18,1.28-1,1.07-1.91-.34-1.49-1.72-3.31,1.66-2.91,1.84.22,3.93-.62,2.64,2.61a1.46,1.46,0,0,0,1.39,2.11c1.37.06,1.73-1,1.36-2.06-1.17-3.36,1.56-2.5,3-2.75,3-.51,1.7,1.47,1.47,2.78s.06,2.1,1.42,2a1.29,1.29,0,0,0,1.17-1.8c-1.2-3.45,1.49-2.83,3.08-2.8,3.35,0,8-2.68,8.82,3.66,0,.3.72.74,1.11.74.82,0,1.11-.75,1-1.43-.33-2.09-.19-3.69,2.56-3.62,2.45.07,2.61,1.48,2.28,3.39-.15.87.16,1.8,1.25,1.65s1.08-1.14.88-2c-.5-2.07,0-2.47,2.26-2.25,1.85.18,3.4-.45,2.66,2.35-.28,1.05,0,2.17,1.36,2.1s1.42-1.13,1.18-2.22-1.26-3,1.41-2.13c1.15.37,3.85-1.66,3.12,1.89-.25,1.19-.34,2.69,1.43,2.43s1.15-1.67.84-2.81c-.36-1.33-.26-2.71,1.51-2,1.12.47,3.94-1.29,3.31,2-.22,1.15-.61,2.65,1.06,2.72,2,.08,1.79-1.45,1.38-2.86s0-2.41,1.69-1.8c1.07.39,3.47-1,2.86,1.93-.28,1.36-.49,2.95,1.55,2.84,1.59-.08,1.57-1.46,1.23-2.68-.78-2.81,1.37-1.73,2.59-2.06,2-.55,2.49.2,1.89,2-.42,1.29-.34,2.54,1.25,2.6,1.78.07,1.55-1.38,1.28-2.54-.81-3.58,2.12-1.14,3.09-1.92,2.45-2,5,.29,7.6,0s.74,1.76.79,2.75.29,1.69,1.3,1.75a1.23,1.23,0,0,0,1.39-1.6c-1.41-3.83,2.06-2.9,3.4-3.13,2.81-.48,1.3,1.79,1.39,3,.05.71.17,1.44,1,1.52,1.12.12,1.46-.76,1.28-1.62-.44-2-.3-2.68,2.33-2.69s2.7.71,2.35,2.7a1.49,1.49,0,0,0,1.29,1.81c.74.12,1.57-.32,1.46-1-1.16-6.6,4.25-3.31,6.52-3.86,1.21-.29,6.08-1.58,4.91,3.51-.2.87.63,1.55,1.62,1.32s1.11-1.08,1-2c-.21-1.27-1.66-3.3,1.39-2.82,1.4.22,4.15-.69,3.1,2.7-.41,1.3.2,2.43,1.77,2.21,1.32-.18,1.4-1.31,1-2.33-1-2.62.1-2.53,2.31-2.41,3.48.19,7.06-.72,10.47-.23,2,.28,7-2.18,5.48,3.82-.16.64.58,1.2,1.3,1.22,1.28,0,2-.87,1.68-1.91-.85-2.74.6-2.75,2.69-3.06,3.47-.51,1.81,1.79,2,3.09.1.71.29,1.41,1,1.5,1.12.13,1.49-.73,1.31-1.59-.44-2-.32-2.68,2.32-2.68s2.68.68,2.37,2.68a1.45,1.45,0,0,0,1.75,1.81c1.07-.17,1.23-1.08.86-1.94-1.41-3.22.61-2.29,2.5-2.51a19.94,19.94,0,0,1,6.68-.07c2,.39,3.09,0,2.41,2.49-.28,1.05,0,2.17,1.42,2s1.36-1.22,1.08-2.28c-.33-1.27-1-3,1.29-2.54,1.23.23,4.32-1,3.27,2.53-.3,1-.18,2.2,1.14,2.28,1.63.1,1.93-1.07,1.5-2.39-.67-2.05-.16-2.19,2-2.34,7.45-.5,14.87.08,22.29-.14,2.5-.08,1.84,1,1.39,2.4s-.24,2.49,1.39,2.47c1.32,0,1.54-1.17,1.22-2.2-1.17-3.69,2-1.81,3.11-2.33,2.4-1.12,1.79.75,1.7,2-.08,1-.23,2.27,1.12,2.34s1.4-1.17,1.28-2.19c-.62-5,3.71.29,4-2.61,1.17,1.56,0,2.36,0,3.32a1.52,1.52,0,0,0,1.43,1.7,1.27,1.27,0,0,0,1.48-1.55c-.38-2.16-.42-3,2.56-3s2.54,1,2.25,2.79a1.18,1.18,0,0,0,.94,1.51c1.07.12,1.38-.69,1.42-1.59.07-1.43-1.27-3.47,2.1-3,2.28.32,3.38.59,2.57,3.14a1.29,1.29,0,0,0,1.32,1.69c1.27,0,1.93-1,1.45-2-1.53-3.47.49-2.78,2.7-2.73,6.7.17,13.42.13,20.12,0,2.08,0,4.3-.87,2.78,2.69a1.4,1.4,0,0,0,1.46,2,1.29,1.29,0,0,0,1.29-1.71c-1.21-5.08,3-2,4.18-3.4,1.2,1.6-.33,2.6,0,3.7a2.28,2.28,0,0,0,1.17,1.38c1,.29,1.88-.49,1.6-1.31-1.58-4.49,3.46-3.79,3.93-3.57,2.54,1.18,8.21-3.08,7.54,4-.07.7.72,1.13,1.47,1a1.43,1.43,0,0,0,1.13-1.89c-.53-2.18-.18-2.72,2.4-2.63,2.31.08,3.09.17,2.46,2.55-.22.84,0,1.82,1.15,1.77s1.18-1,1.18-1.88c0-1.31-1.1-3.26,1.81-2.77,1.75.29,3.87-.11,2.89,2.93-.34,1,.33,2.25,1.54,2,3.3-.75,0-3,.9-4.46,2.54-.25,5.14-.88,7.65-.63,1.65.16,5.25-.8,3.93,3.43-.34,1.08.64,1.86,1.85,1.67,1-.16,1.29-1,1.1-1.89-.31-1.46-1.81-3.35,1.61-2.93,1.76.22,4-.76,2.69,2.56a1.48,1.48,0,0,0,1.35,2.15c1.38.1,1.77-1,1.4-2-1.19-3.33,1.47-2.53,3-2.77,3.21-.52,1.55,1.49,1.32,2.73s.21,2,1.47,2.06a1.26,1.26,0,0,0,1.31-1.68c-1.09-3.24,1.41-2.28,3-3,2.78-1.39,5.28,1,8.08-.11,1.28-.49.63,1.76.66,2.81,0,.87.14,1.82,1.19,1.86s1.4-1,1.12-1.77c-1.37-3.89,2.13-2.41,3.32-2.7,2.9-.72,1.48,1.57,1.52,2.79,0,.88.15,1.73,1.26,1.66.34,0,1-.68.91-1-1-5.69,3.88-3.79,5.8-3.6s7-2.28,6.1,3.65a1.14,1.14,0,0,0,1.35,1.15c1-.09,1.38-.81,1.29-1.75-.14-1.38-1.74-3.45,1.57-3.08,1.73.2,3.93-.22,2.83,2.87a1.46,1.46,0,1,0,2.8.17c-1.66-4,1.51-2.86,3.25-3,2-.21,4,.12,5.88.09,2.23,0,3.34-.13,2.32,2.48a1.42,1.42,0,0,0,.87,2c.7.24,1.57-.1,1.6-.75.37-6.58,5.15-3.75,8.34-3.74,1.55,0,5-.67,3.22,3.33-.33.72.64,1.52,1.62,1.38a1.35,1.35,0,0,0,1.17-1.84c-1.28-3.62,1.75-2.51,3.18-2.82,3.22-.69,1.24,1.73,1.47,2.78.18.86.3,1.71,1.37,1.67.34,0,1-.7,1-.91-1.42-4.82,2.83-3.48,4.59-3.7a58,58,0,0,1,11.1.1c1.71.12,4.48-.25,3.22,3.24a1.21,1.21,0,0,0,1.48,1.5c1-.16,1.22-1,1-1.9-.36-1.37-1.48-3.22,1.31-3,1.61.13,4.44-.54,3.29,3a1.44,1.44,0,0,0,1.59,2,1.42,1.42,0,0,0,1.25-2.16c-1.3-3,.42-2.68,2.52-2.64,4,.08,8-.5,12-.15,1.36.12,6-1.25,3.68,3.57-.29.59.37,1.26,1.11,1.38a1.61,1.61,0,0,0,1.91-1.18c1.38-3.52,1.39-3.51,4.36-3.75.95,1,0,1.84-.15,2.76-.18,1.19.25,2,1.52,2a1.33,1.33,0,0,0,1.3-1.73c-.32-1.85-.67-2.92,2.25-2.73,2.35.14,2.87.38,2.43,2.6-.2,1.06.41,2.11,1.67,1.89s1.13-1.34.81-2.36-1-2.83,1.06-2.09c1.11.4,4.39-2,3.52,2-.22,1-.12,2.26,1.22,2.22s1.23-1.28,1.16-2.3c-.09-1.22-.76-3.1,1.68-2,1.14.5,4.24-1.3,3.1,2.35-.33,1-.1,2.16,1.23,2.19s1.55-1,1.29-2.13c-.34-1.41-1.34-3.32,1.57-2.64,1.21.28,3.88-.9,3,2.33-.32,1.17-.35,2.62,1.43,2.42,1.59-.18,1.49-1.46,1.09-2.7-.62-1.93.15-1.83,2-2,3.7-.46,7.35.41,11.08-.34,3-.6,3.75,2.08,3.84,4.63.11,2.83-1.13,3.95-4,3.39a24.1,24.1,0,0,0-4-.07c-5.67-.12-5.67-.12-3.52,5.42-3.74.52-8.34-.5-9.54,5-.06.28-2.42.58-3.25.09-3.21-1.87-7.66-2.25-8.6-6.76-2.27-.14-1.67,3.11-3.8,2.77-.3,0-.74-.77-.69-1.12.29-2,1.88-3,3.48-3.94.67-.38,1.4-.64,2.63-1.19-8.8-1.09-9.67-.63-13.3,6.21-1.16,2.19-2,3.57-5.59,2.79-3.2-.69-6.84,1.76-10.67-.74-2-1.32-2.83-2.1-2.69-4.41.1-1.68.3-4.08-2.28-4.27a7.25,7.25,0,0,0-6,2c-1.72,1.89,0,3.31,1.13,4.73.79,1,2.34,1.72,1.54,3.31-.43.83-1.48.58-2.3.42-1.82-.37-2.88-1.24-2.9-3.38,0-2.49-.22-5.84-2.86-6.35a34,34,0,0,0-12.83-.22c-2.74.55,1.06,3.29,0,5.31-2.72.22-5.56-.44-8.24,1.81-5.22,4.4-10.26,2.67-12.79-3.89-2.11-.6-1.63,3-3.79,2.35-.16-.27-.45-.54-.48-.83-.21-1.76,2.5-4.8-1.54-4.84-2.77,0-5.4,2-4.88,5.16.91,5.55-1.77,5.4-5.63,4.25a6.06,6.06,0,0,0-2.44,0c-5.18.69-5.17.71-4.09-4.44-1.06-1-1.78,0-2.63.43-1.51.71-2.74,3.62-4.47,1.83-1.56-1.61,1.65-2.84,1.89-4.81-4-2.46-7.94-3.45-12.32-.3-1.68,1.21-2.27-2-4.07-2-3.82-.06-7.65-.52-11.46-.39-2.84.1-3,1.33-.62,5.77-4.72-.39-9.16-.29-12.06,4-.29.45-1.4.89-1.72.69-3.68-2.3-7.83-3.25-11.88-4.57-1.71-.57-.47-2.47.71-3.06a33.76,33.76,0,0,1,5.18-1.67c-6.75-3.67-12.68-.49-12.52,6.93,0,2.14-1,1.57-1.9,1.9-3.08,1.16-6.27-.21-9.42.38-1.73.33-1.7-1.11-1.34-2.36a10.85,10.85,0,0,0-.23-7.73c-2.07,1.94-1.24,4.79-3.1,6.25-.93.73-1.72,1.81-3,1-1-.68-.71-1.74-.24-2.69,2.31-4.6-3.6-4.52-3.79-4.42-5.15,2.86-10-.74-15-.43-1.82.12-3.66-.14-5.5-.13-1.46,0-3-.22-4.07,1.28-1.47,2.09,1.29,2.7,1.58,4.15-1.63,1.44-3.34.42-4.91.51a6.86,6.86,0,0,0-4.91,2c-1,1,.28,3.91-3,3-3-.84-5.21-2.79-7.88-4-.21-.1-.11-.91-.12-1.39,0-1.8,4.15-3.89.46-5.12-3-1-6.83-1.8-9.78,1.41a10.44,10.44,0,0,0-3,5c-1.18,5.67-5.59,3.3-8.92,3.34-3.77,0-1.5-2.91-1.9-4.46s.18-3.3-1.22-4.64c-2,1-.67,2.77-1.31,4a18.19,18.19,0,0,0-1,3.91c-2.37-.54-4-1.24-4.25-4.37s-1.21-5.29-5.56-3.35c-2.31,1-5.46,2.12-8.85-.43s-8.22-1.15-12.13-.28c-3.6.8.58,3.46-.06,5.34-1.94,1.09-3.94-.35-5.85.15-.94.25-2.3.46-2.65,1.12-1.5,2.81-3.09,5.48-6.53,2.72-2.39-1.91-6.62-1.8-6.57-6.07a2.5,2.5,0,0,0-2.15,1.66c-.41.71-.81,1.68-1.84,1.18s-.68-1.37-.35-2.18c.55-1.38,2.8-2.75.61-4.23s-3.7.5-5.2,1.75a4.65,4.65,0,0,0-2,4.37c1,5-2.06,3.62-4.51,3s-6.77-5.38-8-8.76a17.77,17.77,0,0,0-1.86,8.36c-3.8-.12-6.23-1.2-5.48-5.81.21-1.31-.23-3.24-2.35-3.14s-4.42.44-6,2.15c-1.27,1.42-.24,2.73.66,4s3.1,1.93,2,4c-.22.4-1.52.38-2.29.28-2.27-.29-2.63-1.9-3-3.91-.4-2.38.41-5.77-3.56-6.17-3.61-.35-6.92-.55-6.14,4.93.23,1.65.89,4.14-2,5.35-.53-2.86-1.18-5.61-1.47-8.4-.09-.86,1-2-.77-2-1.39-.06-2.54.93-2,2.17,1.55,3.77-1.07,3.21-3.16,3.39a8,8,0,0,0-4.15,1.49c-6,4.34-10.33,3.15-13.66-3.55-1.71,0-1.36,2.77-3.22,2.53-.21-.18-.39-.27-.44-.4-.66-1.8,2.63-5.16-1.62-5.37a4.9,4.9,0,0,0-5.31,5.42c.48,5.18-1.75,5.4-5.58,3.91a1.54,1.54,0,0,0-1-.14c-4.2,1.64-6.62.77-5.77-4.31-2.88-.05-4.22,4.43-6.72,2.26-1.59-1.38,1.72-2.81,1.9-4.63-3.81-2.91-7.73-4.16-11.91-.73-.6.5-1,.81-1.67.2-4.14-4.2-9.48-2.13-14.14-2.17-5.48,0-.29,3.47-1,5.62-4.38-.68-8.34.34-11.46,3.85-.48.54-1.77,1.13-2.14.88-3.52-2.34-7.57-3.06-11.45-4.38-2.49-.85-.44-2.63.89-3.62,1.59-1.18,4,.07,5.79-2.06-3.53-.92-6.79-1.08-9.86.14-3.61,1.44-4.81,4.3-3.7,8.11.37,1.3-.88,1-1.55,1.29-3.11,1.15-6.28.09-9.42.25-1.84.1-1.89-1.5-1.69-2.92.28-1.94,1-3.87-.11-6.24-1.47,1.55-.47,4.11-2.52,5.09-1.14.54-2,2.28-3.4,1.55-1.71-.88-.37-2.25-.05-3.46.47-1.85-3.35-4.89-5.14-3.74-3.3,2.13-6.2.67-9.38.11a59.74,59.74,0,0,0-9.92-.72c-5.28,0-5.82,1.08-3.08,5.66-1.72,1.08-3.56,0-5.32.31-2.36.35-4.48.82-4.85,3.79-.14,1.1-.45,1.35-1.55,1-3.66-1.08-7.94-1.37-8.91-6.36-.3-1.53-1.38-1-2.3-.46s-1.18,2.15-2.73,1.77c1-3.06,1-3.06,6.26-4.46-6.78-3.87-12.57-1.13-13,6.42-.1,1.86-.76,2.21-2.13,2.63-2.83.88-5.6-.32-8.43-.21-1.65.06-1.07-1.68-1.05-2.78,0-2.11.68-4.31-1-6.44-1.84,1,.15,2.86-1,3.87s-.94,2.69-1.18,4.18c-3.3-.32-4.44-2.38-5.08-5.25-.55-2.43-1.26-4.07-4.84-2.49-2.23,1-5.42,2.11-8.76-.34s-8.17-1-12.16-.37c-3.29.53-.15,3.15-.32,4.8-5.57.62-5.54.65-9.46,5.11a2.77,2.77,0,0,1-2.31.38c-4-1.14-8.35-2-9.66-6.94a4.06,4.06,0,0,0-1.08.22c-1.14.64-.91,2.68-2.64,2.63-.3,0-.83-.68-.82-1a3.6,3.6,0,0,1,2.72-3.23,36.94,36.94,0,0,1,4.6-1c-7.42-3.79-12.58-1.37-13.79,6.08a4.36,4.36,0,0,1-.49,1.88c-.64.85-2.42,1.25-2.56.65-1.19-4.74-7.74,3-8-3.55-.07-1.84.49-4-1.38-5.5-1.56,1.25-.41,3.12-1.37,4.24s.7,4-2.45,3.17c-1.83-.47-3.57-.89-3.4-3.47.11-1.77.41-4.1-1.68-4.78-2.51-.83-4.89,1.06-6.71,2.24s.28,3.13,1.38,4.52c.7.87,2,1.59,1.27,2.94a2.13,2.13,0,0,1-1.72.65c-1.33-.11-2.67-.41-3.23-1.9a2.68,2.68,0,0,1-.11-.49c-.44-2.57.16-6.28-2.59-7.07a35.11,35.11,0,0,0-11.86-.76c-3.82.27-1.54,3-1.1,5.19-4.17.2-8.12.35-10.11,5-.68,1.59-9-.89-9.48-3.49-1.14-6.74-3.24-2-5-.52-.42-.46-.79-.68-.81-.92-.17-1.81,2.44-4.79-1.34-5-2.81-.19-5.84,1.38-5.57,5,.38,5-1.52,6-5.81,4.22a2.27,2.27,0,0,0-1.48,0c-3.76,1.25-5.86.49-4.65-4-2-.47-2.06,1-2.65,1.88-1,1.45-2.45.76-3.67.62s-1.19-1.27-1.28-2.32c-.55-6.42-2.25-7.52-7.8-4.48-2,1.11-2.8.94-4.92-.14-4.14-2.11-9.22-1.74-13.63-.84-3.57.73,1,3.37,0,5.54-4.4-.71-8.49,0-11.47,3.84-.1.13-.28.35-.36.33a143.68,143.68,0,0,1-13.9-4.7c-1.06-.46.59-2.4,1.8-2.84a45.3,45.3,0,0,1,5.54-1.24c-7.38-3.81-13.51-.73-13.45,6.7,0,1.84-.61,1.72-1.72,2.09-3.13,1-6.3-.18-9.43.27-.15,0-.44,0-.46-.12-1-4.92-3.29-4.5-7-2.31-1.19.7-.9-1.47-.42-2.5s2.08-2.13.41-2.83-3.87-3.61-5.14-1.93c-2.12,2.8-3.68.9-5.49.46A47.92,47.92,0,0,0,1145.55,99c-5.56.22-6,.75-3.67,5.6-5.69-.07-5.67-.06-9.79,4.85a2.06,2.06,0,0,1-1.8.41c-3.68-1.09-7.92-1-9.18-6.2-.81-3.35-2.72,1.07-4.29,0,.42-3.61,4.17-1.78,5.77-3.44-7.31-3.15-11.21-1.18-12.75,6.5-.24,1.2-.31,2.1-1.66,2.69-6.64,2.91-15.6-.51-18.4-7-.86-2-1.81-4.28-4.71-2-2,1.52-4.46.64-6.16,0-3.94-1.51-7.83-1.19-11.81-1.1-5.8.14-6.11.6-3.16,5.79-3,.07-6.55-1.34-8.57,1.15-1.79,2.21-3,5.35-6.1,3.11-2.22-1.59-6.29-1.18-6.47-5.78-.07-1.82-1.93-.38-2.67.74-.52.78-1,2.21-2.11,1.34s-.32-2.22.56-3c3.41-2.85,6.43-1.35,9.43.93,1.06.8,1.59,3.2,3.41,1.92a4.1,4.1,0,0,0,1.19-3.57c-.46-1.76-2.37-1.28-3.84-1.38-3.1-.2-6.12-1-9.2-1.39-5.42-.65-6.89,2.36-8.76,6.07-.65,1.31-1,6.67-4.3,1.32-.79-1.29-1.67.16-2.27.84-1,1.15-2.34,2.48-3.79,1.69s-.64-2.71-.62-4.15c0-1.63.56-3.34-1.24-5-1.35,2.6-1.43,5.27-1.81,8.22-3-.68-5.5-1-5.43-5.37s-1.77-4.82-7-2.29c-2.21,1-3.28,2.12-6.19-.12s-8-1.3-12.13-1c-.85.06-1.82.89-1.52,1.66,1.68,4.24-1.43,3.61-3.74,3.87a5.69,5.69,0,0,0-3.44,1.66c-5,4.66-10.62,3.09-13.17-3.48-2.08-.69-1.91,2.75-4,2.17-1.09-.91-.16-1.77,0-2.68.66-3-1-3.56-3.4-2.83-.91.27-2.28.94-2.41,1.63-1.24,6.45-6,7.19-11.36,8-4,.57-9.27-2.3-9.55-6.33-.31-4.49-2-5.17-7.88-2.28-2.16,1.07-3.48,2.57-5.08-.57-.57-1.13-13.12-1.33-14.14-.56-2.7,2,1.11,3.3.59,5.44-4.45-.68-8.33.26-11.59,3.8-1.87,2-7.21-.79-8.87-4.41a14.42,14.42,0,0,1-.53-1.62c-1.13-.17-1.49.37-1.66,1-.27,1-.54,2.07-1.87,1.82a2.13,2.13,0,0,1-1.43-1.14c-.36-1.16.56-1.93,1.46-2.29,1.92-.78,3.93-1.34,6.24-2.09-8.54-2.86-12.4-.93-14,7.05-.36,1.76-1.16,2.36-2.5,2.42-2.65.11-5.3,0-8-.09a2.11,2.11,0,0,1-.94-.26c-1.73-.92,1.13-4.67-2.53-4.28-1.91.21-2.75,2.93-5,2.66-.86-1.07-.2-1.9.19-2.81s2.54-2.23.44-3.19c-1.59-.72-3.58-3.32-4.72-1.95-2.86,3.44-5.75.49-8.1.19A87,87,0,0,0,832.17,99c-5.13,0-5.51.77-3,5.89-4.69-.42-8.6.25-12,4-2.82,3.06-5.12-1.58-7.81-2.32s-.78-2.71,0-4c1.37-2.29.79-3.22-1.83-3.55-7-.9-9.65.93-10.68,7.51,0,.17,0,.36,0,.5-2.84,5.79-8,1.12-11.93,2.53-2.28.82-3.24-1.66-3.26-3.9,0-1.39,1.52-3.89-.08-4-3.14-.11-6-3.32-8.76-1.67a7.45,7.45,0,0,1-6.6.32c-4.11-1.46-8.16-1.29-12.3-1.12-1.63.06-3.45-.6-4.59,1.11-1.35,2,1.76,2.55,1.56,4.33-1.68,1.16-3.52.18-5.27.3-2.21.16-4.84,1.22-4.73,2.87.2,3-1.45,1.92-2.68,2-2.58.16-4-2.33-6.24-2.9-1.51-.38-2.41-1.27-1.4-2.92s2.21-2,3.78-1c.83.56,1.49,1.38,2.35,1.87,2,1.15,2.09-1,2.75-1.88,1.14-1.51,0-2.3-1.3-2.23-3.74.18-7-1.87-10.73-2-5-.13-7.77,2.06-9.31,6.45-1.32,3.75-7.42,6-10.46,3.8-1-.71-.55-1.8-.62-2.75-.15-2.08.65-4.33-1.45-6.56-1,2.79-1.86,5.26-1.76,8.18-3.62-.34-5.57-1.69-5.46-5.85.08-3.09-1.53-4.43-4.28-1.51-1.7,1.8-5.65-.53-6,4-2.13-4.44-12.2-7.33-15.56-5.06-.27.18-.71.51-.67.66,1.61,6.21-3.44,4.27-6.21,5.16-.76.24-1.79.64-2.08,1.26-1.46,3.07-3.3,4.63-6.43,2.07-2.17-1.76-6-1.75-5.64-5.71-2.29-.3-2.19,2.38-3.93,2.28a1.07,1.07,0,0,1-.72-1.56c.5-1.38,1.58-2.85-.29-3.94-1.58-.92-2.84.25-4.09,1A5.74,5.74,0,0,0,640,104c-1.1,3.28-1.36,6.53-7,4.24-2.2-.89-6.27,1.15-9.94-.46-2.43-1.07-2.87-1.86-2.71-4.18.27-3.93-1.14-5.67-5.38-3.72-2.55,1.17-5.18,2.8-8.16-.23-1.06-1.08-4.22-.58-6.26-.1-3.45.81,0,3.24-.77,4.92s.76,4.12-2.3,5.26c-.69-2.7,0-5.53-1.36-8.11-.57-1.13-.15-2.89-2.1-2.26s-.88,2.09-.39,3.28c.24.59.45,1.19.8,2.14-3.07.5-6-.36-8.65,1.79-5.73,4.65-10.4,3.12-13-3.79-.89-.21-1.18.37-1.3,1.05-.24,1.35-.84,2.23-2.35,1.79a1.61,1.61,0,0,1-1-1c-.25-1.4.9-2,1.78-2.74,1.54-1.3,4-.16,5.42-2-8.75-2.62-11.78-.82-13.18,8-.25,1.54-1.3,1.23-2.09,1.5-2.94,1-5.94-.46-8.92.07a1.17,1.17,0,0,1-1.42-1.09c.1-9.42-3.51-1.14-5.36-1.11a4.43,4.43,0,0,0-1.32.47c-1.34-.78-.64-1.69-.37-2.61.35-1.19,2.88-2.45.53-3.54-1.71-.79-3.55-4-5.94-.78-2.21,2.94-3.93-.69-5.76-.94A87,87,0,0,0,519.19,99c-5.13,0-5.53.78-3,5.87-4.67-.35-8.61.23-12,4-2.82,3.1-5.12-1.56-7.81-2.28s-.83-2.71,0-4c1.75-2.88.21-3.37-2.29-3.58-7-.59-9.05.81-10.34,8-.26,1.46-.71,2.07-2,2.31a11.09,11.09,0,0,1-2,.37c-2.48,0-5.35.78-7.36-.2-3-1.46.53-4.38-.33-6.66-.33-.88.07-2-1.23-2.91-1.77,1.35-.72,4.07-2.41,5.46-.89.74-1.52,1.92-2.87,1.57s-1-1.47-1.13-2.47c-.37-4-1.05-5.85-6.25-3.87-3.49,1.33-8.32-.86-12.56-1.44a29.61,29.61,0,0,0-4-.38c-5.57,0-6.39,1.29-3.87,6-3.33,1.54-9.44-2.43-9.83,5a4.36,4.36,0,0,1-.95.14c-3.76.63-6.17-2.21-8.83-3.9-1.75-1.11.27-2.85,1.28-4.12.82-1,.33-1.79-.69-2.4-5.21-3.08-12.51.34-13.55,6.46-.23,1.34-.13,2.57-1.64,3.31-2.83,1.37-14.88-.46-17-2.66-1.48-1.52-.54-3.51-1.13-5.23-.8-2.34-1.83-3.15-3.88-1.3-.36.33-.56,1.11-.9,1.15-7.33.85-3.34,3.4-.91,5.76.57.56,1.47,1.29.8,2.08a2.86,2.86,0,0,1-2.24.59c-1.64-.22-3.18-.55-3.7-2.69-.56-2.32.13-5.8-2.33-6.68a24.35,24.35,0,0,0-11.82-.93c-4,.62-.78,3.31-.94,5.42-4.06-.16-7.88.38-10,4.46a1.85,1.85,0,0,1-2.62.55c-3.23-1.87-7.69-2.21-8.67-6.84a4.31,4.31,0,0,0-1.09.19c-1.14.64-.93,2.66-2.64,2.66-.29,0-.84-.66-.84-1,0-1.74,1.32-2.56,2.67-3.29s3,0,4.12-1.42c-6.85-2.54-11.11-.85-13.78,5.47-1.06,2.51-2.44,2.65-5.38,3-4.36.49-8.17-.47-12.23-.87-1.53-.16-2.18-.54-1.88-2.09.44-2.29,1.27-5.36-1.27-6.2s-5.49.32-7.64,2.38c-.58.56-1.1,1.72-1.83.57-3.68-5.75-9.43-2.6-14.09-2.93-4.88-.33-.39,3.3-1.4,5.43-3.49-.57-6.52,1-9.68,3.16-4.45,3-8.8.79-11.58-5.19-1.32,0-1.4,1.23-2,1.94a1.49,1.49,0,0,1-2.16.44,1.19,1.19,0,0,1-.31-1.76c1.07-1.65,2.31-3.69-.85-3.89-2.14-.14-4.64.66-5.22,3.61-.39,2,1.18,4.52-1.29,6-3,1.74-6.22,0-9.34.37-2.06.24-1.57-1.56-1.58-2.87,0-2.19,1.31-4.47-.56-7.46-.92,3.24-1.17,6.16-4,7.49-.75.35-1.49,1-2.28.41s-.46-1.49,0-2.21c.84-1.38,2.43-2.71-.54-3.67-1.85-.6-3.53-3.29-5.4-.16-1.31,2.19-3,1.67-4.72.76-.72-.38-1.31-1-2-1.45-2.12-1.29-4.58-.79-6.82-.89-4.54-.19-.74,3.64-2.09,5.23-.57.67-.51,1.86-.87,3.4-2-2-1.73-4.28-2.42-6.14-.35-1,.46-2.5-1.34-2.63a2.24,2.24,0,0,0-1.74.63c-.84,1.16-.13,2.17.65,3.11a12.11,12.11,0,0,1,.9,1.92c-5.14-.8-9.16.26-12.55,4.15-2,2.25-9-2.48-9.74-6.37-1.68.18-1.57,3.29-3.84,2.41-.71-.27-.75-1.07-.42-1.72a4,4,0,0,1,4.42-2.52c.78.1,1.69.21,2.18-.73-8.42-3.29-11.87-1.66-13,6.54-.26,2-1.08,2.68-2.66,2.76-2.8.15-5.61.09-8.42.08-2,0-1.43-1.34-1.17-2.46.55-2.39,1.12-4.78-.49-7.46-1.89,1.83-.93,4.51-2.7,6-.89.73-1.56,1.89-2.9,1.59s-1-1.51-1.13-2.46c-.62-3.5-1-6.25-6.27-4.18-3.11,1.21-7.41-.67-11.18-1.09a50.25,50.25,0,0,0-5.48-.36c-5.58,0-6.14,1-3.4,6-3.53.46-8.64-1.57-9.81,2.65-1,3.53-2.7,2.32-4,1.87-2.14-.72-5.26-1.77-5.81-3.4-1.56-4.65-3.45-3.25-6.21-.18.14-5.92,4.66-4.23,7.7-5.31-7-3.57-13.88-1.65-14.58,6-.12,1.32-.58,2.62-1.83,2.59-5.43-.12-11.27,2.13-16-2.39-.47-.45-1.13-.91-1.26-1.46-.44-1.93,0-4.32-1.47-5.7-2.57-2.43-3.43,2.81-5.11,1.77-2.92-1.82-3.13,1.52-4.69,2-2-3.48-12.46-6-15.42-3.91-2.29,1.64.51,3.25.09,4.84-2.53,1.69-6.46-1.15-8.32,3-.52,1.18-2.59-.19-2.69-1.65-.27-4-.26-8-.34-12,0-1.6,1.27-1.91,2.37-2,1.63-.18,1.3,1.06,1.14,2-.19,1.19-.47,2.6,1.28,2.58s1.72-1.26,1.28-2.55c-.85-2.47.5-2,2.26-2.11a194.67,194.67,0,0,1,21.06,0c2.1.09,3.37-.25,2.34,2.43A1.52,1.52,0,0,0,68,96.42c1.38.17,1.86-.93,1.5-2-1.38-3.89,2-2.4,3.26-2.68,3.12-.73,1.15,1.75,1.42,2.8.21.84.34,1.7,1.41,1.62.34,0,1-.7.92-.94C75.36,90.35,79.07,92.38,81.44,91.89Z" />
    <path fill="#585858"
        d="M1966.37,60.91c-2,2.12-1.22,4.48-1.2,6.69,0,1.09-.12,3.35-.92,2.7-3-2.45-5.37.15-8,.16-1.66,0-2.89-.58-3.17-2.91-.94-7.65-4.66-9.13-14.09-6.65,1.59,1.87,4,.47,5.6,1.68a15.09,15.09,0,0,1-7.22,7c-1.92,1-3.54,1.43-4.91-.18-2.82-3.29-6.48-3.69-10.64-3.27a26.79,26.79,0,0,0,.67-3.62c0-1.29-.48-2.33-2-2.32-1.24,0-1.77.62-1.59,1.92s-.54,2.39-2,2.25-.68-1.53-.94-2.37c-.82-2.59-9.5-3.87-12.49-1.61-1.78,1.34-2.84,2-5.14.68s-5.05,2.23-4.26,5c.31,1.08.56,1.88-.69,2.42-5.55,2.42-11.45,1.55-17.22,1.76-.62,0-1.34,0-1.62-1.3-2.25-10.14-3.13-10.64-13.22-8.07,1.61,1.74,4,.81,5.53,2,1.07.81,2.32,1.56,2.06,3.13s-1.69,1.88-3.09,1.79a8.06,8.06,0,0,0-6.4,2.11c-1.91,1.72-3.92,1.27-5.65-.73-1.3-1.5-2.67-2.91-4.91-3.14-2.63-.27-7,1.2-5-4.45.23-.62-.5-1.19-1.23-1.29a1.68,1.68,0,0,0-2,1.09c-.41,1.18,0,3.12-1.89,3-2.35-.1-.69-2-1-3.07-.49-1.49-7.85-3-8.49-1.48-2.11,5.06-5.38,1.16-7.67,1.05-5.39-.27-6.62.6-5,5.65.3.94.13,2.74-.21,2.44-3.83-3.25-7.48,4-11.29,0-1.13-1.17-2.32.69-3.5,1.09-2.66.89-5.29,1.55-4.85-2.9a7,7,0,0,0-2-5.45c-2.08-2.36-3.79-3-5.82.17-1.67,2.63-4.14,4.57-6.46,6.69-3.43,3.12-6.58,2-8.71-.11-2.65-2.66-5.32-2.84-8.51-2.43-.87-2,2.28-4.87-1.65-5.84-5-1.24-12.78.58-14.43,3.51-2.53-.15.3-5.61-2.42-3.57-3,2.24-5.48-1.46-7.69.84-2.4,2.5-.32,5.19,0,8.07-4.83-.83-7.15-3.4-7.1-9-3.33,3.69-.67,7.38-2.37,10.57-2-1.4-3.81-2.87-6-.6-1,1-2.23.25-3-.81a10.41,10.41,0,0,1-1.42-2.62c-1.06-3.14-2.71-6.19-6.09-6.58-3.08-.35-3.91,3.37-5.35,5.31-4.16,5.56-8.46,6.26-13.84,1.5-2-1.75-4.4-.87-6.77-.64-1-1.87,2.61-5.07-1.7-6-5.8-1.27-13,.35-14.78,4-.63-6.85-6.14-1.46-8.52-4-2.49,2.34-2.25,5.17-1.17,8-7.09,2.25-6.55-2.86-6.85-7.5-2.91,2-1.89,4.49-2.14,6.56-.13,1.08-.33,3.3-.61,3-3.1-3.27-5.82,1.17-8.69.22-1.26-.42-2.21-.61-2.59-2.41-1.94-9.16-5.05-9.11-14.19-7,3.1,1.82,8.59.15,8.09,7.3-2.29-4.83-3.24-4.56-6-1.16-2.28,2.85-6.94,5.5-10.91.37-2-2.58-5.28-1.15-7.83-1.2-1-1.49.29-2.45.23-3.58s-.29-2.41-1.79-2.54-2,.73-1.63,2.21a1.55,1.55,0,0,1-1.42,2.15c-.94.13-1.39-.42-1.78-1.31a6.06,6.06,0,0,0-9.22-2.42,7.59,7.59,0,0,1-6.9,1c-3.7-1.14-6,.21-5.6,3.9.17,1.52.54,2.53-1.42,2.89-1.8.33-2.71,0-3-2.06-.22-1.71-1.07-3.35-1.79-5.47-1.5,2.44-1,4.65-.47,6.84.27,1.14.67,3-.88,2.68-3.49-.72-6.89.35-10.31-.08-1.27-.15-1.58-.67-1.62-2.26-.18-8.26-5.59-11.18-13.3-7.38,1.17,1.69,3.08.86,4.57,1.38a3.36,3.36,0,0,1,2.59,3.28c0,2.11-1.55,2.26-3.16,2.2-.34,0-.75-.14-1,0-5.24,3.23-10,3.44-14.64-1.4-1.12-1.16-4.08-.54-6.46-.76.17-.92.29-1.71.45-2.49.24-1.16.64-2.45-1-2.81-1.48-.32-2.11.61-2.25,2-.1,1-.42,2.16-1.63,2.15-2,0-1.22-1.45-1.09-2.55a1.88,1.88,0,0,0-2.17-2.16c-2.35.2-5.09-1.18-7,1.32a22.73,22.73,0,0,0-1.53,2.89c-2.2-4-5.92-3.28-8.94-2.8-1.81.28-4.44,2.25-1.81,5.18a2.67,2.67,0,0,1,.46,2.28c-.37,1-1.37.62-2.11.24a3.74,3.74,0,0,0-5,.87c-.73.8-1.93,1.32-2.68.59-2.17-2.11-3.85-1-6.11,0-2.48,1.12-5,.72-4.25-3.24a18.8,18.8,0,0,0-.08-3c0-2.88-2.65-3.16-4.33-4.19-1.3-.79-2.57.4-3.11,1.72-.73,1.77-3.78,3.3-.06,5.74-3.71.53-6.78.63-9.38,3-2.06,1.85-4.54-.54-5.72-1.64-2.69-2.53-5.38-3.53-9.75-2,3.66-6.27.52-6.3-3.77-6.47-8.65-.36-9.1-.48-11.88,3.75-2-1,.3-2.79-1-4.17-1.92.67-3.77,2.58-6.23.76-1.54-1.14-2.2.25-2.76,1.65-.89,2.22.29,4.24.41,7.23-4.12-1.62-7.87-2.62-7.23-8.39-3,2.88-1,6.15-1.56,9.46-2.06-1.22-4.06-2.38-6.76-.5-2.35,1.64-3.68-1.1-4.13-2.88-1.75-6.87-6.2-8.56-14.11-6.2,1,1.93,3.17.55,4.48,2-2.52,1.44-3.15,4.38-6.11,6-4.3,2.42-6.82,1.28-9.53-1.67-2.08-2.27-4.57-1.1-7.08-1-.85-1.8,1.7-3.92-.27-5.5-1.6-1.28-3.57-.14-5.35-.44-.82-.14-1.69,0-2.49-.15-5.35-1.12-7.94,1-7.75,6.47a3.33,3.33,0,0,1-1.37,3.06c-1.27.88-2.88,1.84-4.08.63-1.45-1.44.67-2.19,1.33-3.14.84-1.22,2.36-2,2.57-3.6s1.06-4.3-2.45-2.52a3.12,3.12,0,0,1-1.43.33c-5.6-.23-6.35.75-5,6.57-5.45,1.14-5.45,1.14-7.13-6.74-2.24.72-1.47,2.66-1.73,4.15s.68,3.28-.64,5c-2.58-1.34-5.19-4.51-8-.13-.46.69-2.93.07-3.17-2.45-.79-8.28-6-9.25-13.6-6.76,7.15,2.68,7.15,2.68,7.23,6.07-2.2.1-.92-3.29-3.61-3-.13,3.54-3.67,3.66-5.94,5.33-3.73,2.73-5.28-.83-7.56-2.38s-5-1.36-7.88-.58a37.94,37.94,0,0,0,.71-4.23,1.78,1.78,0,0,0-1.78-2c-1.17-.07-2,.41-1.7,1.75.22,1.13,0,2.1-1.23,2.26-1.44.17-1.18-1.18-1.61-2-1.37-2.61-6.52-3.13-9.55-1.41-2.46,1.39-4.72,3.34-8,.5-2.47-2.13-4.44,1.84-4.31,2.93.83,7-5.13,5.06-8.2,6.19-1.88.69-4.55.33-6.87.4-2.79.09-5-.08-4.56-4.2.43-4.47-2.67-7-7.05-6.77-2,.11-3.93.29-6.5.47,1.49,2.19,3.24,1.38,4.68,1.54,1.83.22,3,1.62,2.64,3-.59,2.42-1.71-.47-2.29-.12a55,55,0,0,0-5.52,4.35c-2.8,2.21-4.76,1.68-7-.35-1.35-1.22-2.59-2.64-4.63-2.68-3-.06-7,1-5-4.56.3-.85-.76-1.38-1.69-1.32a1.31,1.31,0,0,0-1.36,1.65c.18,1.78-.64,3.25-2.37,3S1212,63,1212,62c0-1.75-1.31-2.14-2.67-2.41-4.13-.83-6.33,0-8,3-2.2-4.33-6-1.05-8.86-1.34-1.66-.16-4.7,2.21-1.85,5.32.63.7.18,2.7-.16,2.4-3.83-3.27-7.52,4-11.28,0-1-1-2.08.39-3.09.86-3.92,1.78-5.21,1-5.28-3.15,0-2.3.32-4.65-2.57-5.82-1.2-.49-2.11-1.73-3.57-.85-1.62,1-1.55,2.41-1,3.93.44,1.14.89,2.72-.35,3.12a28.22,28.22,0,0,0-8,3.46c-2.68,1.83-6.45-.79-9-3.4-2-2.09-4.65-1.07-7.17-1.14-.61-1.88,2.94-4.47-1-5.73-6.33-2-12.87-.54-15.4,3.66-2.1-.94.11-2.74-1-4.25-2.46,2.53-5.87-.3-8,.94-2.88,1.68-1.64,5.22-.3,8.57-3.26-.67-5.65-1.16-8.44.67-1.72,1.13-4.77-1.26-8.06.12-3.12,1.31-3.41-3.5-4.68-5.8-2.8-5-6.3-5.9-12.89-3.07,1.06,1.68,3.28.25,4.55,1.81-2.63,1.08-3,4-5.44,5.73-4.5,3.22-7.31,1.47-10.31-1.5-2.16-2.12-4.61-1-7.11-1-.89-1.88,2.33-4.67-1.16-6-4.42-1.63-12.93.37-15.14,3.82-.71-6.41-6.07-1.42-8.74-3.66-.33-.28-2.18,3.35-1.69,5.48.53,2.3-.51,2.56-2.32,2.61-1.46,0-3,.75-3.11-1.76a50.29,50.29,0,0,0-1.06-6.14c-2.54,2.32-1.61,4.75-1.81,6.91-.09.92.58,2.2-.73,2.59-1,.32-1.82-.63-2.51-1.33-1.65-1.71-3.38-3.42-1.62-6.07.52-.78,1.51-1.83-.19-2.26a1.87,1.87,0,0,0-2.39,1.9c-.1,1.83.14,3.67,0,5.49a2.21,2.21,0,0,1-2.65,2.29c-1.13-.09-1.59-.54-1.77-1.83-1.06-7.45-2.38-8.52-9.71-8.25-1.28,0-2.67-.35-4.15,1,2.61,2,8.37.23,7.76,6.13-2.21-.15-1.3-3.3-3.49-3.07-3.48,6-8.17,7.25-13.57,3.24-2.48-1.84-5.12-.82-8.15-1.08,1.88-5.4-.45-6.19-5.43-5.94s-10.07-1.38-14.77,1.6c-.85.54-1.54-.09-2.24-.55-3.41-2.2-3.44,1.12-4.26,2.77s.29,4.78-3.2,4.57c-3.16-.2-2-3.18-2.88-4.8a14,14,0,0,1-.72-3.11c-2,2.81-1.24,5.07-1,7.26.1.84.2,1.73-.64,2.23-1,.62-1.89.12-2.71-.55-3.43-2.83-3.33-6.08,0-10.46-5.17,1.42-5.24,4-4.58,7.15.3,1.51,1.9,4-1.31,4.22-2.23.19-3.42-.48-3.32-3.66.18-6.08-4.41-8.11-12.9-6.09,1.87,1.9,4.91.64,6.23,2.81.53.86,1.32,1.8.64,2.71-1.1,1.48-1.64-.66-2.11-.59-3,.46-5.4,2.23-7.81,3.87-1.79,1.21-3.33,1.76-4.73-.16-2.63-3.58-6.31-3.95-10.2-3.6-1.23-1.15-.22-2.24-.09-3.3s.15-2.12-1.17-2.3c-1.65-.23-2,.68-1.64,2.15a2,2,0,0,1-2.19,2.6c-1.85-.06-1-1.53-1.1-2.61-.17-2-6.86-4.19-8.74-2.47-2.59,2.37-5.4,1.27-8,1.23-4.4-.07-5.75,1.13-4.68,5.54.2.83-.12,2.3-.45,2-3.72-2.88-7.18,4.46-10.78.2-7.9,5-7.79-1.57-10-6.32-2.46-5.33-7.6-2.48-12.21-2.74,1.29,2.75,3.29,1.82,4.69,2.42s2.8,1.43,2.74,3.16c-.06,2-1.65,2.2-3.25,2.22-2.53,0-4.82.42-6.88,2.3-2.67,2.42-6.72-.68-7-1.28-1.89-4.06-5.25-2.56-8.13-2.81-.65-1.9,2.14-4.42-1.21-5.63-5-1.8-12.94.15-15.27,4.23-1.75-4.74-6.39-4.6-9.15-3.77-4.07,1.21-1.91,5,.21,8.46-5.11-1.17-8.26-2.86-8.08-8.16-2.86,2.79-.26,5.84-.81,9.09a7.67,7.67,0,0,0-8.51.18c-1.15.74-3.25.9-3.68-1.47-1.71-9.55-3.64-10.72-13.26-8,.13.25.21.64.42.73,1.44.61,3.66-1,4.45,1.13s-1.89,1.63-2.76,2.77c-5.21,6.8-6.45,6.72-13.8,1.12-1.82-1.39-4.15-.78-6.4-.51-1.14-1.83,2-4.78-1.53-5.92-5.55-1.79-12.32-.23-15.27,4,0-7.87-6.11-1.1-8.23-4.09-2.65,2.27-2.45,5.08-1.18,8-6.23.74-6.23.74-7.16-6.68-1.57,1.4-1.57,1.4-1.67,6.08,0,1,.3,2.17-.68,2.76s-1.89-.26-2.52-1c-1.93-2.29-3.62-1.35-5.6,0-.74.53-2.36,2-2.73-1-1-8.2-4.41-10-13.84-7.23,2.88,1.57,7.24.85,7.4,6.22-2.13-2.13-3.41-4.82-5.75-.33-2.12,4-7.35,3.79-11.27.61-2.5-2-5.19-1.84-8.24-1.23-.73-1.87,1.62-4-.23-5.55-1.62-1.38-3.55-.06-5.32-.29a33.63,33.63,0,0,0-12.65.6c-4.32,1.06-10-1.15-9.07,6.76.12,1.06-2,.65-3.09.89-1.51.32-1.36-.82-1.75-1.74-.77-1.85-.74-3.83-1-6.66-2.71,2.79-1.94,5.18-1.5,7.49.17.94.9,2-.28,2.67a2.56,2.56,0,0,1-3.15-.82c-2.46-2.62-3.73-5.51-1.79-9.28-3.29.72-3.32,2.91-2.86,5.58.27,1.57,1.94,3.92-.78,4.6S623.57,69,623,66.65c-1.93-7.54-4.26-7.91-13.63-5.92,1.62,1.87,4,.81,5.54,1.84s2.9,2.19,2.08,4.36c-2.46.41-1.62-2.41-3.35-2.82-.22.19-.66.42-.85.78-2.61,4.94-8,6.24-12.17,2.93-2.44-1.92-2.76-2-8.48-2-1-.87-.16-1.84-.12-2.76.06-1.17.41-2.51-1.25-2.76s-1.91.77-1.69,2.18c.19,1.22-.64,1.81-1.71,2-.72.16-1.49-.06-1.49-.87,0-1.48.52-3.33-1.72-3.4-3.29-.09-6.61-2-9.8-.42-2.06,1-3.43,2.35-6.17,1-2.29-1.16-5,2.68-4,5.35.46,1.23,1.05,1.8-1,2.76-5,2.35-10.47-.79-15.42,1.68-.87.44-3,.64-3-2.35,0-8.19-5.28-10.94-13.36-7.33.84,1.46,2.36,1,3.58,1.27,1.48.4,3.12.79,3.13,2.66,0,1.58-1.46,2.11-2.73,2.52a15.09,15.09,0,0,0-5.12,3c-2.6,2.12-6.71.08-9-2.67a4.8,4.8,0,0,0-3.79-1.76c-2.22-.17-4.86.55-3.83-3.44.4-1.56-1.07-2.21-2.59-2.31-2.47-.16-4.95-.29-7.41-.58-3.27-.37-6.09-.2-6.06,3.94-2.7.63.7-5.65-3.61-2.67-2.33,1.62-4.22-1.49-6.07-.6-4.37,2.13-2.18,5.39-.19,9-5-1.28-7.79-3.44-7.73-9-3.33,3.67.49,7.13-1.6,10.29-2.33-1.52-4.62-2.35-7.51-.47-1.9,1.23-4.69,1.37-4.07-2.7a6.25,6.25,0,0,0-.93-4.31c-2.46-4-3.84-3.86-7.29-.59-2.11,2-3.77,4.36-6.14,6.24-2.88,2.28-4.64,2.17-7.39.47-2.41-1.48-4.34-4.12-7.74-3.67-.46,0-1.48-.69-1.46-1,.42-6.83-4.88-3.8-7.77-4.31-3.43-.6-7.52-1.62-9.09,4.18-.68-7.4-6.44-4.42-8.69-3.83-3.29.87-2.68,5-.6,8.07-6.41-.17-6.41-.17-8-7.8-2.36,1.92-1.49,4.32-1.54,6.46,0,1.08.79,2.67-.8,3-2.37.48-3.23-3.93-6.51-2-3.48,2-3.33-1.76-4.46-3.39-.56-.82-1-1.74-1.55-2.56-1.19-1.73-2.68-3.38-4.93-2.16-2.63,1.44-.33,3.09.19,4.64.15.45.21.94.39,1.8-2.13.12-2.05-2.72-4.23-2.52-.36,3.86-4.42,4-6.79,6-1.78,1.56-3.15-.22-4.28-1.24-2.93-2.64-6.17-3.77-10.87-2.33,3-5.7.78-6.32-4.05-6.27s-9.82-.69-14.54,1.34c-.94.4-1.89.8-2.8,0-4.25-3.83-4.38.8-4.66,2.71-.37,2.49-.22,4.72-3.58,4.3-2.92-.37-1.65-3-2.26-4.66-.32-.82.31-2-.91-3-2.25,2-1.38,4.58-1.28,6.89s-.29,3.63-2.66,1.82c-1.47-1.13-2.08-1-3.65.22-2.31,1.79-5.1,1.75-5.68-2.16-1.19-7.9-5-9.16-14-6.86,1.51,1.84,4,.6,5.72,1.9-2.74,1.79-3.6,5-6.9,6.47-2.77,1.22-4.49,1.49-6.58-.55-1.18-1.16-2.35-2.41-4.17-2.55-2.72-.21-6.68,1.25-5-4.38.41-1.37-2.52-2.19-2.78-1.16-1.73,7-1.92,3.34-4.77.31-1.95-2.07-7.45-3.07-11.2-.54-1.78,1.2-2.89,2.38-5.1.64-1.79-1.41-2.84,1-4.21,1.69-1.72.9-1.28,2-.3,3.21.68.86,1,2.23-.41,2.34-3.52.3-6.44,4-10.41,1.74-1.22-.7-2.55,0-3.86.33-3.09.79-4.77,0-4.54-3.75.27-4.56-2.38-7-7-6.66-2,.14-4.31-1-6.41.85,1.32,1.82,3.39,1,5,1.57s2.74,1.52,2.69,3.21-1.5,1.92-2.93,2a11,11,0,0,0-7.17,2.57c-2.75,2.32-6.27-.22-7.8-2.29A3.63,3.63,0,0,0,205.35,66c-2.49-.38-5.95.57-4.78-4.1.08-.32-.39-.91-.75-1.21-3.6-2.94-13.78-.86-16,3.54-1.9-4.46-6-4.87-9.24-3.62-4,1.53-2.14,5.09.08,8.36-3.34-.19-6.22-1.81-8.42,1-.68.89-1.9.44-2.68-.28-1.56-1.44-2.87-.81-4.5,0-3.1,1.59-5.82,2.08-5-3.09a4.66,4.66,0,0,0-.66-3.35c-1.42-1.68-2.79-4.38-5.51-3.32-3.32,1.3-.53,4.05-.83,6.54-3.95-3.93-6,.75-7.7,2.21-3.32,2.92-6.28,1.89-8.32-.11-2.71-2.66-5.52-3.09-8.84-2.62-.57-2.07,2.12-4.58-1.29-5.74-4.25-1.44-13,.53-15.29,3.91-.41-6.71-6.08-4.09-8.09-3.65-3.92.85-1.5,5.18-1.46,8-6.91,1.84-6.6-3.26-7.07-8.39-3,3.49-1.49,6.78-2.06,10-2.14-.15-3.86-2.13-6.57-.29S76.83,68,75.89,66c-3.37-6.87-5.57-7.75-13.88-4.88,3,1.46,7.63.74,7.14,5.9-2.35,0-1.14-3.45-3.59-2.88-3.34,5.34-9.86,9.07-14.73,2.6-.55-.73-2.11-.86-3.22-1-2-.17-4.19.25-3-3.15.52-1.54-.83-2.4-2.37-2.46s-3.34.07-5-.1c-1.45-.14-3.77,1-4.16-.33-.47-1.65.49-3.75,1-5.62.25-1,1.19-1,2-1,1.08,0,2,.3,2.07,1.62.09,1.14-.09,2.64,1.56,2.64S41.14,56,41,54.78c-.14-1.39.79-1.64,1.88-1.66,1.55,0,2.59.43,2.49,2.27-.05,1,.18,2.15,1.57,2,1.24-.13,1.58-1.11,1.32-2.22s-.1-2,1.3-2c1.15,0,2.45-.17,2.78,1.42.22,1.09-.05,2.65,1.57,2.66s1.44-1.37,1.26-2.57c-.22-1.52.89-1.51,1.92-1.53,1.67,0,2.39.76,2.29,2.47-.07,1.12.44,2,1.75,1.79a1.46,1.46,0,0,0,1.19-1.88c-.24-1.23-.6-2.46,1.39-2.2,1.21.16,2.9-.29,2.71,1.93-.1,1.29.21,2.48,1.83,2.29,1.28-.15,1.49-1.22,1.12-2.28-.84-2.38.78-2,2.12-2,2.32,0,4.65,0,7,0,1.27,0,3-.5,2.25,1.92a1.56,1.56,0,0,0,1.34,2.2c1.38.14,1.64-.93,1.57-2-.09-1.45.48-2.17,2-2.27s2.57.39,2.56,2.18c0,.83.16,1.88,1.2,1.89,1.43,0,1.3-1.2,1.3-2.18,0-1.61,1-1.87,2.33-1.89s2.18.57,2.18,2.06c0,1,.2,2.16,1.48,2.21s1.55-1,1.27-2.07c-.39-1.54.25-2.19,1.75-2.21s2.72.18,2.67,2.1c0,1,.11,2.14,1.44,2.16s1.76-.88,1.51-2c-.3-1.42-.06-2.26,1.61-2.24s2.58.47,2.48,2.3c-.06,1.06.21,2.11,1.6,2a1.43,1.43,0,0,0,1.33-1.76c-.3-1.57-.23-2.64,1.8-2.56,1.69.08,2.39.8,2.29,2.5-.07,1.12.43,2,1.74,1.8a1.5,1.5,0,0,0,1.19-1.9c-.21-1.26-.4-2.4,1.45-2.38,1.44,0,2.72.18,2.72,2.08,0,1.08.34,2.08,1.56,2.19,1.4.13,1.52-1,1.58-2,0-.34-.06-.86.11-1,4.26-2.78,9-1,13.48-1.18,1.55-.07,4.42-1,4.24,2.54a1.52,1.52,0,0,0,1.37,1.77c1.27.11,1.81-.77,1.77-1.89-.07-1.66.54-2.46,2.27-2.5s2.3.9,2.33,2.48c0,.86.36,1.7,1.43,1.62.79-.07,1.06-.78,1-1.48-.12-1.58.32-2.56,2.13-2.61s2.44.64,2.44,2.34c0,1.06.42,2.08,1.73,1.93s1.59-1.1,1.31-2.21-.15-2,1.26-2.06,2.67.14,2.69,2c0,1,.14,2.17,1.54,2,1-.11,1.12-1.11,1.11-2,0-1.48.71-2.07,2.16-2.08,1.66,0,2.45.65,2.36,2.4-.06,1.09.34,2.06,1.69,1.88a1.49,1.49,0,0,0,1.26-1.83c-.15-1.19-.59-2.45,1.33-2.46,1.41,0,2.75.11,2.74,2,0,1.27.23,2.56,1.82,2.36s1.32-1.52,1.07-2.73c-.48-2.23,1.29-1.45,2.24-1.48,4.33-.15,8.66-.22,13-.29,1.85,0,3.88-.25,3.19,2.79-.2.89.53,1.55,1.5,1.6a1.21,1.21,0,0,0,1.37-1.15c0-1.88.28-3.3,2.7-3.14s1.53,2.17,2.14,3.34c.2.38.69.61,1,.88,2-.63.57-2.75,1.52-3.38,1.75-1.17,3.81-2,4.23,1.41.1.85.22,1.82,1.25,1.88s1.33-.89,1.23-1.75c-.25-2.06,1-1.9,2.47-2,2.26-.24,2,.94,1.77,2.41a1.31,1.31,0,0,0,1,1.53,1.41,1.41,0,0,0,1.65-.73c3.26-4.71,3.27-4.7,6,.65,1.08-.22,1.18-1.08,1.14-1.92-.08-1.47.57-2.19,2-2.22s2.73.14,2.68,2.07c0,1.3.32,2.46,1.89,2.28,1.31-.15,1.43-1.23,1.11-2.3s-.29-2,1.16-2.07,2.77-.1,2.92,1.83c.09,1.21.25,2.56,1.9,2.23,1.28-.25,1.13-1.39.85-2.44-.45-1.65.63-1.53,1.71-1.46,1.38.1,2.77.06,2.53,2.12-.13,1.1.26,2.07,1.52,2.11s1.74-.85,1.49-2-.56-2.42,1.33-2.4c1.43,0,2.73.22,2.65,2.14-.05,1.07.17,2.13,1.42,2.24,1.68.15,1.82-1.11,1.74-2.36-.13-2.25,1.62-1.7,2.8-1.83,2.08-.25,1.42,1.16,1.29,2.28A1.55,1.55,0,0,0,267,57.42a1.21,1.21,0,0,0,1.52-.94c.3-1.56-.12-3.33,2.5-3.43,3-.12,1.44,3,2.9,3.79,1.87,0,1.23-1.65,1.83-2.42,1.47-1.9,3.21-2.4,4.37.36.37.85-.05,2.24,1.25,2.39s1.49-1,1.5-2.05c0-1.52.84-2,2.24-2s2.09.72,2.1,2.15c0,.85.11,1.82,1.14,1.95s1.39-.77,1.35-1.64c-.09-1.67.59-2.46,2.31-2.45s2.44.69,2.37,2.41c0,1.09.37,2.06,1.7,1.86,1-.16,1.21-1.06,1-1.95-.24-1.36,0-2.31,1.65-2.31,1.49,0,2.69.23,2.61,2.14-.05,1.06.12,2.15,1.46,2.13a1.48,1.48,0,0,0,1.45-2.08c-.42-1.48-.27-2.3,1.54-2,1.26.19,2.83-.19,2.71,2-.07,1.09.28,2.15,1.59,2s1.41-1.2,1.11-2.26c-.4-1.37.19-1.9,1.48-1.68s2.95-.47,2.74,1.84c-.11,1.27.09,2.5,1.74,2.38,1.27-.1,1.59-1.12,1.25-2.21-.46-1.47-.12-2.28,1.53-2.21,1.2.06,2.4.16,2.53,1.77.09,1.19.19,2.59,1.77,2.5s1.26-1.54,1.32-2.67c.09-1.87,1.66-1.23,2.67-1.41,1.91-.33,1.71.83,1.46,2.14a1.48,1.48,0,0,0,1.6,2c1,0,1.4-.85,1.33-1.74-.11-1.63.42-2.5,2.19-2.57,2-.08,2.23.84,1.88,2.48A1.47,1.47,0,0,0,338,57.41,1.31,1.31,0,0,0,339.61,56c0-1.72.33-2.9,2.45-2.86,1.91,0,2.08,1.22,2.15,2.65,0,.7.35,1.37,1.12,1.43,1.07.09,1.45-.72,1.46-1.6,0-1.57.46-2.53,2.27-2.52s2.14,1.15,2.17,2.63c0,.91.47,1.7,1.46,1.68,1.34,0,1.59-1,1.37-2.1-.3-1.53.3-2.19,1.81-2.19s2.61.41,2.51,2.26c-.06,1.05.16,2.16,1.55,2s1.62-1.1,1.33-2.2c-.43-1.66.33-2.1,1.8-2.06,1.32,0,2.27.41,2.3,2,0,1-.08,2.21,1.37,2.09,1-.08,1.13-1.1,1.13-1.95,0-1.45.64-2.13,2.12-2.11s2.51.58,2.4,2.36c-.07,1.09.31,2.07,1.66,1.91a1.48,1.48,0,0,0,1.3-1.81c-.12-1.1-.82-2.52,1.28-2.28,1.18.13,2.92-.42,2.81,1.82-.07,1.25.08,2.57,1.73,2.39s1.44-1.44,1.11-2.67c-.57-2.19,1.11-1.54,2.12-1.56,4.32-.07,8.65-.14,13-.1,1.91,0,4.24-.34,3.91,2.9a1.14,1.14,0,0,0,1.31,1.17c.82-.08,1.09-.75,1.05-1.46-.09-1.53.23-2.56,2.08-2.67,2.15-.12,2.45,1.13,2.54,2.81a1.42,1.42,0,0,0,1.61,1.51c1.05-.12,1.3-.94,1.09-1.84-.31-1.31-.33-2.37,1.42-2.46,1.43-.07,2.73,0,2.79,1.94,0,1.23.27,2.51,1.89,2.29,1.24-.17,1.44-1.25,1.18-2.33-.3-1.28.14-1.9,1.47-1.91s2.73.16,2.64,2.09c0,1.05.06,2.18,1.41,2.18s1.53-1.08,1.33-2.16c-.3-1.54.36-2.17,1.84-2.16s2.59.47,2.46,2.32c-.08,1.06.19,2.1,1.58,2a1.43,1.43,0,0,0,1.36-1.75c-.69-3.27,1.72-2.59,3.36-2.61,5.33-.07,10.67-.14,16,.07,2.47.1,5.89-1.11,6.11,3.56.06,1.33,2,1.33,2.55-.06.61-1.62.11-3.73,3-3.49s1,3.33,2.81,4.09c1.11.18,1.52-.5,1.48-1.43-.08-1.56.28-2.58,2.11-2.64,1.67,0,2.46.59,2.45,2.31,0,1,.38,2.14,1.69,2s1.25-1.29,1-2.31c-.31-1.29.23-1.93,1.5-2s2.42-.22,2.74,1.41c.2,1.06-.2,2.68,1.5,2.61,1.36-.06,1-1.47,1.09-2.41.16-1.69,1.42-1.61,2.59-1.61,1.43,0,2.12.7,2,2.19,0,1,.12,2.18,1.5,2.08s1.45-1.18,1.23-2.24c-.34-1.63.48-2.12,1.91-2.07,1.25,0,2.36.27,2.39,1.88,0,1.2,0,2.59,1.68,2.5s1.59-1.3,1.24-2.57c-.57-2.07,1-1.62,2-1.65,4-.1,8-.28,12-.24,2,0,5.1-1,4.43,3.1-.06.35.77,1.1,1.28,1.22,1,.24,1.56-.52,1.56-1.45,0-1.46.12-2.63,2-2.79,2.1-.18,2.55,1,2.6,2.72a1.3,1.3,0,0,0,1.17,1.4A1.12,1.12,0,0,0,524.59,56c-.07-1.73.28-2.91,2.4-2.89,1.89,0,2.08,1.15,2.24,2.61a1.93,1.93,0,0,0,1,1.45c1.08.26,1.46-.65,1.35-1.52-.24-1.91.68-2.13,2.33-2.21,1.93-.09,2.33.54,1.94,2.27a1.3,1.3,0,0,0,1.28,1.72,1.75,1.75,0,0,0,1.23-.65c3.69-4.68,3.68-4.68,6,.5,1.44-.16,1.28-1.26,1.29-2.23,0-1.6,1.05-1.89,2.35-1.89s2.31.34,2.33,1.92c0,1.22.11,2.56,1.74,2.44s1.53-1.39,1.18-2.62.38-1.77,1.57-1.78c1.51,0,2.62.35,2.63,2.19,0,1.06.4,2.09,1.71,2a1.35,1.35,0,0,0,1.14-1.86c-.33-1.3-.53-2.4,1.42-2.11,1.21.18,2.9-.28,2.67,1.94-.1,1,0,2.15,1.36,2.18s1.77-.87,1.55-2c-.26-1.36-.19-2.38,1.55-2.28,1.17.08,2.45.07,2.52,1.74.05,1.17-.09,2.57,1.55,2.64s1.71-1.23,1.64-2.47c-.1-1.83,1.29-1.53,2.4-1.72,2.27-.39,1.92.94,1.7,2.38a1.46,1.46,0,0,0,1.38,1.73,1.17,1.17,0,0,0,1.45-1c.16-1.69,0-3.27,2.57-3.33s1.66,2.58,3.06,3.36c2.05-1,4-8,6.21-.11a1.56,1.56,0,0,0,1,.91,1.08,1.08,0,0,0,1.23-1.2c0-1.7.29-2.93,2.43-2.89,1.9,0,2.1,1.2,2.16,2.65,0,.69.33,1.39,1.1,1.45,1.11.1,1.4-.76,1.35-1.63-.1-1.67.54-2.46,2.28-2.47s2.27,1,2.28,2.52c0,.89.41,1.71,1.4,1.76,1.35.06,1.67-.88,1.46-2-.26-1.43.14-2.25,1.74-2.25s2.64.35,2.53,2.22c-.06,1.06.17,2.15,1.54,2.06a1.49,1.49,0,0,0,1.35-2.15c-.49-1.62,0-2.19,1.65-2,1.33.17,2.79,0,2.55,2.08-.13,1.07.06,2.13,1.45,2.07a1.33,1.33,0,0,0,1.23-1.78c-.34-1.61-.2-2.62,1.87-2.36,1.38.18,2.75.11,2.45,2.16-.17,1.13.28,2.06,1.54,2.08s1.75-.83,1.48-2-.63-2.41,1.29-2.4c1.43,0,2.72.18,2.76,2.07,0,1.07.35,2.13,1.56,2.19,1.79.1,1.55-1.28,1.51-2.47-.08-1.9,1.43-1.4,2.47-1.6,1.64-.3,2.13.33,1.68,1.94a1.54,1.54,0,0,0,1.38,2.16c1.38.11,1.6-1,1.52-2-.14-1.89,1-2.22,2.51-2.25,1.72,0,1.83.91,1.58,2.28-.22,1.16.3,2,1.57,2,1,0,1.41-.81,1.37-1.71-.09-1.61.41-2.52,2.2-2.57s2.31.86,2.33,2.45c0,.86.36,1.75,1.42,1.64s1.1-1.11,1.06-1.94c-.06-1.49.67-2.1,2.09-2.17,1.66-.07,2.46.62,2.45,2.34,0,1.06.39,2.07,1.71,2,1-.08,1.36-.95,1.17-1.84-.35-1.71.17-2.5,2-2.47s2.36.86,2.28,2.5c0,.88.27,1.7,1.29,1.8A1.35,1.35,0,0,0,674.29,56c-.11-1.58-.5-3,2-2.84,2.32.16,1.91,1.81,2.19,3.21.07.39.57.7.83,1,1.8-.35,1.41-1.73,1.61-2.8.25-1.28,1.23-1.39,2.28-1.37,1.38,0,2.24.54,2.16,2.08-.05,1.05.08,2.15,1.42,2.17a1.46,1.46,0,0,0,1.51-2c-.38-1.47-.25-2.3,1.55-2.07,1.32.16,2.8,0,2.58,2.06-.13,1.35.38,2.41,2,2.13,1.33-.25,1.31-1.34,1-2.37-.62-1.82.41-2.1,1.77-1.82,3.49.7,8.34-2.89,10.12,3.57.42,1.51,2.46.56,2.36-1.24s.66-2.22,2.28-2.35c1.86-.14,2.37.63,2.31,2.29,0,.86.34,1.76,1.39,1.68s1.14-1.09,1.08-1.92c-.11-1.52.64-2.1,2.05-2.18,1.65-.1,2.49.53,2.49,2.27,0,1,.34,2.15,1.66,2s1.26-1.27,1-2.29c-.31-1.29.24-1.91,1.49-2,1.41-.09,2.74,0,2.81,1.9.05,1.21.2,2.55,1.84,2.34,1.34-.17,1.25-1.33,1-2.37-.32-1.52.57-1.67,1.72-1.53s2.52-.58,2.63,1.33c.06,1-.32,2.28,1.08,2.38s1.39-1.16,1.43-2.16c0-1.52.9-2,2.28-1.94s2.27.49,2.21,2c0,1,0,2.15,1.35,2.24s1.79-.82,1.58-2c-.24-1.35-.21-2.34,1.54-2.31,1.48,0,2.68.28,2.66,2.16,0,1.07.39,2.14,1.61,2.12,1.83,0,1.51-1.34,1.2-2.53-.36-1.41.46-1.73,1.62-1.74,1.52,0,2.57.46,2.58,2.27,0,1.07.46,2,1.76,1.87,1-.15,1.27-1,1.06-1.93-.6-2.56,1.3-2.51,2.66-2.21,3.15.7,8-2.4,8.91,3.84.14.95,1.68.8,2.44-.16,3.44-4.34,3.43-4.35,6.09.54,2.27-.46.28-3.11,1.65-3.58,1.66-.56,4.13-1.73,4.12,1.92,0,1.1.6,2,1.87,1.73,1.05-.2,1.11-1.1.87-2-.4-1.46.05-2.23,1.63-2.29s2.64.29,2.62,2.15c0,.83.1,1.81,1.15,1.94s1.38-.77,1.33-1.64c-.08-1.68.6-2.45,2.32-2.44s2.45.68,2.36,2.41c-.06,1.09.35,2.07,1.69,1.88,1-.14,1.22-1,1.07-1.93-.22-1.31-.18-2.38,1.57-2.37,1.44,0,2.72.18,2.7,2.08,0,1.29.3,2.53,1.87,2.3s1.3-1.59,1-2.76c-.19-.72,0-1.65.79-1.41,3.58,1,8.82-3.6,10.74,3.12a1.23,1.23,0,0,0,1.63.74,1.31,1.31,0,0,0,1-1.53c-.29-1.48-.41-2.68,1.71-2.58,1.59.08,2.47.65,2.47,2.39,0,1.07.53,2,1.8,1.91,1-.07,1.34-.93,1.26-1.82-.15-1.73.66-2.4,2.31-2.46,1.94-.06,2.2,1,2,2.56a1.36,1.36,0,0,0,1.28,1.75,1.73,1.73,0,0,0,1.23-.65c3.25-4.16,3.24-4.17,6.26.32,2.17-.37-.32-3.61,2.23-3.67,1.43,0,3.72-1.06,2.82,2.15a1.45,1.45,0,0,0,1.23,1.85,1.19,1.19,0,0,0,1.54-.9c.23-1.88.22-3.65,3-3.39s1,3.24,2.5,4.07c1.31.17,1.69-.55,1.65-1.45-.07-1.58.34-2.6,2.16-2.6,1.54,0,2.61.38,2.55,2.22-.05,1.34.44,2.37,2,2.12,1-.15,1.25-1,1-1.91-.26-1.16-.79-2.41,1.21-2.45,1.42,0,2.73.07,2.8,2,0,1,.24,2.15,1.54,2.14s1.56-1,1.27-2.13-.21-2,1.29-1.81c1.15.18,2.93-.51,2.87,1.74,0,1.2-.14,2.59,1.65,2.36,1.22-.16,1.48-1.22,1.22-2.31-.3-1.24,0-2,1.39-2s2.76.09,2.74,2c0,1.27.2,2.5,1.81,2.37,1.28-.11,1.54-1.18,1.17-2.25-.8-2.31.67-2,2.08-2s2.92-.5,2.26,1.9a1.58,1.58,0,0,0,1.32,2.21,1.16,1.16,0,0,0,1.46-1c.47-5.92,5-2.54,7.67-3.31,3.4-1,3.89,1.89,4.82,4.07,0,.09.31.1.66.2,1.92-.65-.07-4.56,3.49-4.28,3.06.24,1.06,3.72,3.08,4.26,1.27-.16,1.46-1,1.42-1.83-.07-1.38.36-2.26,1.88-2.34s2.66.23,2.65,2.11c0,1,.23,2.14,1.53,2.15s1.56-1,1.34-2.12c-.32-1.56.35-2.15,1.84-2.15s2.25.39,2.28,1.95c0,1.21.2,2.54,1.84,2.31,1.35-.19,1.21-1.36,1-2.39-.29-1.33.3-1.9,1.58-1.69s2.93-.49,2.84,1.78c0,1.19-.11,2.6,1.66,2.3,1.32-.22,1.14-1.42.92-2.44-.29-1.42.49-1.82,1.68-1.63s3-.43,2.75,1.86c-.11,1.27.11,2.49,1.75,2.36,1.27-.11,1.53-1.13,1.23-2.23s-.44-2.07,1-2.16c1.32-.07,2.8-.17,3,1.75.13,1.19.21,2.58,1.79,2.49s.86-1.89,1.39-2.63c2.1-2.95,5.4-1.33,8.17-1.68,1.65-.21,3.53-.19,2.88,2.56A1.42,1.42,0,0,0,964,57.41c1.38.15,1.69-.88,1.62-1.95-.1-1.81.85-2.32,2.44-2.32s2.07.76,2.08,2.17c0,.84.14,1.77,1.19,1.92a1.1,1.1,0,0,0,1.27-1.18c0-1.65.18-2.93,2.36-3,2.74-.05,1.84,2.24,2.54,3.51.13.24.54.33.8.47a1.59,1.59,0,0,0,1.43-1.75c0-1.79,1-2.28,2.58-2.2a1.86,1.86,0,0,1,2,2.21c0,1.06.15,2.16,1.53,2.06s1.65-1.06,1.36-2.17c-.42-1.62.26-2.12,1.76-2.1s2.17.6,2.17,2.08c0,.84.1,1.84,1.1,2,1.39.18,1.54-1,1.56-2,0-1.47.72-2.11,2.17-2.06,1.29,0,2.34.32,2.34,1.91,0,1.21,0,2.57,1.73,2.34,1.25-.16,1.44-1.24,1.14-2.33-.36-1.3.08-1.93,1.44-1.74,1.2.16,2.92-.38,2.75,1.87-.09,1.27.16,2.55,1.78,2.34s1.41-1.53,1-2.72.17-1.79,1.19-1.5c3.5,1,8.71-3.35,10.47,3.54.37,1.48,2.53,1,2.63-.83s.43-2.68,2.47-2.75,2.16.94,2.19,2.44c0,.87.43,1.68,1.5,1.52.77-.11,1-.82,1-1.52-.15-1.63.4-2.51,2.17-2.57s2.35.8,2.37,2.42c0,.85.33,1.76,1.38,1.7s1.15-1.07,1.1-1.91c-.09-1.47.55-2.14,2-2.2,1.63-.07,2.53.5,2.51,2.26,0,.84.21,1.8,1.27,1.84s1.38-.86,1.36-1.73c0-1.66.66-2.45,2.38-2.37,1.52.06,2,.85,2,2.24,0,.84.16,1.81,1.24,1.85s1.38-.85,1.38-1.72c0-1.62.62-2.46,2.37-2.41s2.26,1,2.18,2.6c0,.92.37,1.71,1.38,1.69,1.26,0,1.77-.88,1.53-2-.3-1.42-.08-2.29,1.6-2.26,1.49,0,2.64.32,2.61,2.19,0,1.07.37,2.08,1.7,2,1-.09,1.35-.93,1.16-1.84-.28-1.32-.35-2.36,1.48-2.3,1.47,0,2.64.31,2.65,2.18,0,1.05.36,2.09,1.69,2,1-.09,1.33-.95,1.15-1.85-.26-1.33-.26-2.4,1.52-2.3,1.17.07,2.43,0,2.65,1.64.13,1,.4,2,1.75,1.92a1.09,1.09,0,0,0,1-1.44c-.42-1.64.18-2.11,1.78-1.94,1.43.16,2.69.23,2.44,2.22-.13,1.12.33,2.05,1.62,2s1.6-1,1.52-2.13c-.1-1.48.6-2.13,2-2.23,1.61-.11,2.55.44,2.55,2.21,0,.84.18,1.89,1.21,1.89,1.46,0,1.27-1.24,1.21-2.22-.12-1.88,1.27-1.56,2.38-1.69,1.39-.18,2.27.15,2.21,1.8-.05,1.25.23,2.54,1.86,2.25,1.4-.25,1-1.46.8-2.44-.25-1.36.55-1.78,1.71-1.8s2.41-.08,2.58,1.61c.09,1-.1,2.34,1.18,2.42,1.83.12,1.22-1.54,1.4-2.57.22-1.3,1.18-1.43,2.23-1.46,1.38,0,2.23.46,2.25,2,0,1.23.23,2.52,1.88,2.25,1.34-.23,1.12-1.43,1-2.44-.2-1.31.47-1.81,1.69-1.82,1.47,0,2.69.24,2.64,2.13,0,1.3.34,2.46,1.92,2.25,1.34-.18,1.32-1.27,1.06-2.33-.2-.82-.41-2.12.73-1.82,3.58,1,8.86-3.68,10.71,3.15a1.21,1.21,0,0,0,1.66.67,1.3,1.3,0,0,0,.92-1.56c-.36-1.57-.27-2.63,1.78-2.53,1.64.08,2.4.75,2.42,2.44,0,1.1.61,2,1.85,1.86,1-.1,1.29-1,1.21-1.87-.17-1.79.75-2.35,2.35-2.41,2.17-.08,1.83,1.26,1.7,2.66a1.44,1.44,0,0,0,1.48,1.64c1,0,1.42-.7,1.47-1.63.21-4.39,3.75-2.88,5.6-2.5s6-2.66,5.47,2.72a1.36,1.36,0,0,0,1.67,1.42c1-.11,1.34-.92,1.28-1.81-.12-1.67.53-2.46,2.26-2.48s2.3.9,2.32,2.49c0,.86.36,1.75,1.43,1.59s1-1.14,1-2c-.08-1.54.78-2,2.16-2.07,1.56,0,2.59.41,2.53,2.23,0,1.33.46,2.36,2,2.1,1-.17,1.25-1,1-1.93-.29-1.19-.73-2.4,1.24-2.43,1.42,0,2.72.09,2.77,2,0,1,.26,2.15,1.57,2.12s1.52-1.1,1.25-2.17c-.32-1.27.06-1.94,1.41-1.94s2.76.09,2.7,2c0,1,0,2.15,1.36,2.23s1.79-.81,1.6-2-.32-2.38,1.49-2.33c1.45,0,2.7.29,2.6,2.2-.06,1.32.36,2.44,1.94,2.18,1.33-.22,1.35-1.32,1-2.36-.61-1.81.38-2,1.77-1.83s3.4-.85,2.58,2.05a1.49,1.49,0,0,0,1.51,2c1,0,1.38-.75,1.41-1.67.15-4,3.27-2.74,5.2-2.58,2.21.19,5.68-2,6.33,2.44.13.86.41,1.7,1.46,1.6a1.34,1.34,0,0,0,.94-.95c0-1.86.3-3.3,2.74-3.11s1.5,2.18,2.13,3.35c.2.38.69.6,1,.85,2-.63.57-2.75,1.52-3.39,1.78-1.18,3.82-1.88,4.23,1.46.1.85.24,1.8,1.3,1.82s1.36-.88,1.34-1.74c0-1.72.72-2.41,2.41-2.34,1.54.06,2,.92,2,2.28,0,1.06.34,2.09,1.67,2a1.35,1.35,0,0,0,1.23-1.79c-.33-1.65,0-2.57,1.93-2.51,1.64.05,2.47.67,2.37,2.42-.07,1.08.31,2.08,1.66,1.86,1-.16,1.2-1.06,1-1.95-.25-1.37,0-2.34,1.65-2.31,1.43,0,2.73.16,2.64,2.11-.05,1.31.31,2.45,1.89,2.27,1.3-.16,1.41-1.25,1.1-2.3s-.26-2,1.18-2.08,2.77,0,2.91,1.86c.1,1.23.33,2.51,1.89,2.4,1.33-.09.88-1.49,1.29-2.27,1.77-3.36,5.11-1.73,7.79-2,1.26-.14,3.75-1,3.26,2.13-.18,1.13.18,2.08,1.41,2.17s1.66-.91,1.51-2c-.28-2.09,1.15-1.94,2.51-2.11,2.25-.29,2,1,1.76,2.47a1.33,1.33,0,0,0,1.36,1.67c1,0,1.45-.75,1.41-1.67-.08-1.54.25-2.61,2.1-2.66,1.69,0,2.45.65,2.43,2.35,0,.86.33,1.79,1.41,1.52a2,2,0,0,0,1.09-1.44c.13-1.57.61-2.46,2.4-2.44s2.1,1.18,2.15,2.64c0,.9.47,1.69,1.46,1.67,1.35,0,1.6-1,1.38-2.11-.31-1.53.29-2.17,1.81-2.17,1.34,0,2.25.4,2.29,2,0,1,.09,2.17,1.45,2.14,1.06,0,1.2-1.05,1.2-1.89,0-1.41.56-2.19,2.06-2.19s2.59.43,2.48,2.28c-.06,1.05.18,2.12,1.56,2,1-.08,1.32-.93,1.2-1.83-.17-1.27-.27-2.42,1.51-2.44,1.42,0,2.74.09,2.74,2,0,1.26.24,2.56,1.83,2.35s1.36-1.55,1-2.73.23-1.77,1.24-1.48c3.48,1,8.91-3.48,10.35,3.59.06.3,1.14.65,1.67.56a1.33,1.33,0,0,0,1-1.92c-.64-1.76-.22-2.5,1.74-2.26,1.36.17,3.32-.62,2.69,2.11-.25,1.1.11,2.08,1.45,2,1,0,1.37-.89,1.29-1.78-.16-1.68.49-2.46,2.21-2.52s2.29.89,2.33,2.46c0,.86.37,1.75,1.42,1.64s1.11-1.1,1.06-1.93c-.09-1.5.63-2.1,2.06-2.16,1.67-.08,2.48.6,2.46,2.31,0,.86.27,1.79,1.31,1.8s1.34-.92,1.32-1.78c0-1.72.74-2.4,2.42-2.33s2,.92,2,2.28c0,.86.23,1.8,1.29,1.81s1.34-.9,1.34-1.76c0-1.67.7-2.45,2.41-2.36,1.4.08,2.2.62,2.12,2.13,0,1,.06,2.18,1.41,2.16s1.53-1.09,1.31-2.16c-.31-1.57.4-2.17,1.87-2.12,1.22,0,2.38.15,2.44,1.8,0,1.14-.17,2.66,1.62,2.45,1.58-.18,1.47-1.49,1.2-2.72s.45-1.51,1.4-1.51c1.15,0,2.45-.16,2.77,1.43.22,1.1,0,2.66,1.58,2.65s1.42-1.39,1.25-2.58c-.22-1.54.9-1.52,1.92-1.52,1.27,0,2.34.3,2.33,1.91,0,1.06.15,2.13,1.55,2a1.32,1.32,0,0,0,1.28-1.75c-.39-1.49-.16-2.27,1.61-2,1.31.19,2.8,0,2.56,2.1-.13,1.1.23,2.07,1.5,2.12s1.71-.92,1.63-2c-.13-1.81.83-2.31,2.41-2.36,1.89-.06,2.12,1.14,2.21,2.6,0,.89.46,1.69,1.54,1.48a1.24,1.24,0,0,0,.86-1.57c-.47-2.45,1.25-2.21,2.74-2.35,1.84-.18,1.84.85,1.56,2.18-.19.91,0,1.78,1.06,1.94,1.32.2,1.77-.75,1.7-1.85-.11-1.71.58-2.44,2.29-2.44,1.45,0,2.16.58,2.2,2.06,0,1,.15,2.18,1.55,2,1-.13,1-1.17,1-2-.06-1.54.81-2,2.19-2s2.27.37,2.31,1.92c0,1.21.19,2.55,1.83,2.34,1.35-.18,1.2-1.38,1-2.39-.21-1.3.36-1.9,1.62-1.88s2.47-.06,2.66,1.56c.15,1.31,0,3,1.91,2.8,1.67-.19,1.26-1.6,1-2.77-.31-1.54.79-1.55,1.82-1.59,1.69,0,2.41.74,2.33,2.44-.06,1.11.42,2,1.74,1.8a1.48,1.48,0,0,0,1.18-1.9c-.2-1.26-.38-2.41,1.46-2.38,1.45,0,2.72.22,2.62,2.15-.05,1,.08,2.15,1.44,2.13s1.74-.93,1.48-2.08c-.34-1.47,0-2.28,1.65-2.19,1.19.06,2.4.1,2.52,1.75.08,1.18.14,2.57,1.75,2.51s1.25-1.6,1.47-2.68c.36-1.84,2-1.59,3.2-1.61,3.66-.06,7.33-.1,11,.12,1.71.11,4.85-1.06,3.85,2.95-.08.31.75,1.11,1.27,1.24,1,.25,1.61-.5,1.58-1.42,0-1.76.35-2.89,2.45-2.85,1.87,0,2.15,1.16,2.18,2.64,0,.69.31,1.39,1.09,1.46,1.1.1,1.4-.76,1.34-1.62-.12-1.71.61-2.44,2.3-2.45s2.46.67,2.41,2.38c0,1.09.39,2.07,1.68,2s1.67-1,1.33-2.12c-.41-1.38-.29-2.29,1.45-2.28,1.53,0,2.62.38,2.55,2.23,0,1,.16,2.16,1.54,2s1.64-1.09,1.35-2.19c-.42-1.63.29-2.13,1.77-2.08,1.28,0,2.34.32,2.33,1.93,0,1.2,0,2.57,1.72,2.34,1.22-.16,1.45-1.24,1.18-2.32-.3-1.26.06-2,1.42-2s2.75.14,2.71,2.07c0,1.27.24,2.49,1.84,2.33,1.29-.12,1.52-1.2,1.15-2.26-.8-2.34.72-2,2.1-2s2.9-.45,2.24,1.92a1.56,1.56,0,0,0,1.35,2.19c1,.13,1.38-.65,1.54-1.56.91-5.23,5-2.11,7.62-2.74,1.83-.45,4.26-.49,3.52,2.88-.08.37.65,1.2,1.15,1.36a1.26,1.26,0,0,0,1.69-1.28c.05-1.64.18-3,2.36-3,2.34,0,2,1.7,2.35,3.07.34,1.17,1.51,1.72,2.06.41.67-1.56.05-3.72,3-3.49s.93,3.37,2.75,4c2.46-.08.9-5.64,3.92-3.43s4.53,3.16,6.82-.44c.43-.68,2.59,0,2.52,2,0,1,0,2.19,1.38,2.19s1.53-1.06,1.31-2.14c-.31-1.57.4-2.14,1.86-2.14s2.6.46,2.48,2.3c-.08,1.09.29,2.08,1.57,2.1s1.75-.81,1.48-2-.66-2.41,1.28-2.41c1.43,0,2.7.17,2.76,2.06,0,1.27.48,2.47,2,2.19,1.36-.25,1.12-1.41.8-2.41-.45-1.42.28-1.69,1.51-1.7,2.33,0,4.66-.2,7-.21,1.67,0,3.59-.2,2.77,2.6a1.38,1.38,0,0,0,1.14,1.87,1.48,1.48,0,0,0,1.86-1.72c-.28-2.22,1-2.41,2.66-2.53,2.37-.16,1.74,1.31,1.63,2.61a1.34,1.34,0,0,0,1,1.52,1.24,1.24,0,0,0,1.6-.79c.46-1.42-.32-3.37,2.39-3.56,3.29-.22,1.42,3.39,3.41,4.08,2.25-.39.36-4.49,3.86-4.11,2.91.32,1.36,3.07,2.64,3.95,1.66.28,1.93-.75,2-1.78a1.88,1.88,0,0,1,2.19-2.07c1.41,0,2.19.53,2.22,2,0,1,.13,2.17,1.52,2,1-.09,1.14-1.09,1.13-1.94,0-1.46.67-2.14,2.13-2.11,1.26,0,2.35.23,2.39,1.84,0,1.18-.08,2.61,1.65,2.42,1.33-.15,1.21-1.37,1.06-2.38-.19-1.29.38-1.87,1.65-1.88,1.45,0,2.71.19,2.67,2.1,0,1.29.3,2.41,1.89,2.27,1-.09,1.29-.9,1.18-1.84s-1.22-2.5,1-2.37c1.38.07,3.23-.38,3.07,2.11-.07,1.1.43,2.06,1.74,1.84a1.36,1.36,0,0,0,1-1.94c-.49-1.52-.19-2.27,1.57-2,1.25.19,2.84-.16,2.58,2-.16,1.34.32,2.42,1.9,2.17,1.32-.21,1.38-1.3,1-2.34-.6-1.72.21-2.12,1.69-1.88,1.21.19,3.45-1,2.65,2a1.52,1.52,0,0,0,1.43,2.12c1.35.07,1.62-1,1.46-2.06-.32-2.16,1.23-1.88,2.52-2,1.58-.2,2.1.56,2,2,0,.86.13,1.87,1.15,1.92,1.44.07,1.36-1.14,1.34-2.13,0-1.58.92-1.94,2.26-2s2.2.51,2.24,2c0,1,.15,2.16,1.53,2.05,1-.09,1.15-1.08,1.14-1.93,0-1.45.63-2.13,2.11-2.14s2.21.48,2.24,2c0,1,.12,2.17,1.5,2.07,1-.07,1.16-1.07,1.16-1.92a1.86,1.86,0,0,1,2.1-2.16c1.6,0,2.53.54,2.42,2.33-.06,1.07.24,2.12,1.61,2,1-.11,1.28-1,1.14-1.88-.19-1.28-.23-2.4,1.54-2.42,1.42,0,2.75.06,2.74,2,0,1,0,2.21,1.32,2.26,1.64.06,1.83-1.13,1.54-2.44s.31-1.83,1.57-1.82c1.48,0,2.64.28,2.65,2.16,0,1,.35,2.09,1.69,2,1-.09,1.34-.95,1.16-1.85-.27-1.33-.26-2.36,1.52-2.3,1.46,0,2.69.29,2.56,2.21-.07,1,.12,2.15,1.5,2.07a1.5,1.5,0,0,0,1.4-2.13c-.46-1.61,0-2.16,1.67-2,1.39.16,2.74.15,2.48,2.18-.14,1.12.3,2.06,1.57,2.05s1.72-.93,1.55-2.06c-.3-2.05,1-2,2.45-2.16s2.18.37,2.15,1.92c0,1,.14,2.19,1.53,2,1-.15,1-1.19.88-2-.23-2.3,1.57-1.68,2.73-1.87,2-.31,1.66.92,1.4,2.16a1.46,1.46,0,0,0,1.15,1.91c1.3.24,1.86-.6,1.8-1.74-.09-1.65.47-2.47,2.22-2.53s2.27.93,2.31,2.48c0,.86.37,1.7,1.44,1.63.79-.06,1.07-.76,1-1.46-.09-1.54.25-2.56,2.11-2.65,2.15-.09,2.4,1.2,2.5,2.85a1.42,1.42,0,0,0,1.65,1.48,1.4,1.4,0,0,0,1.18-1.85c-.36-1.69.1-2.53,2-2.49,1.71,0,2.37.82,2.3,2.49,0,1.12.46,2,1.77,1.8a1.49,1.49,0,0,0,1.18-1.9c-.2-1.25-.44-2.39,1.44-2.37,1.49,0,2.7.24,2.61,2.15,0,1,.11,2.15,1.47,2.11s1.71-1,1.45-2.1c-.34-1.5.09-2.27,1.68-2.19,1.21.06,2.39.17,2.42,1.84,0,1.15-.16,2.6,1.62,2.44,1.24-.12,1.53-1.16,1.27-2.26s0-2,1.37-2,2.76,0,2.85,1.92c0,1.26.36,2.5,1.92,2.33,1.28-.14,1.15-1.37,1.24-2.37.21-2.23,2-1.9,3.43-1.93,3.5-.08,7-.12,10.49.1,1.88.13,5-1.11,4.26,3.16-.2,1.16,1.54,1.68,2.56.42,3.39-4.22,3.36-4.24,6.08.55,1.08-.19,1.24-1,1.18-1.88-.14-1.85.92-2.27,2.47-2.26s2.22.53,2.21,2c0,1.28.3,2.49,1.87,2.33,1.3-.14,1.44-1.23,1.12-2.29s-.28-2,1.16-2.09,2.7.11,2.71,2c0,1,.17,2.15,1.44,2.24s1.66-.9,1.46-2c-.27-1.44.12-2.27,1.73-2.25s2.67.31,2.54,2.21c-.07,1.06.14,2.15,1.5,2.08s1.7-1,1.43-2.13c-.36-1.5.07-2.26,1.67-2.17,1.21.07,2.39.2,2.42,1.85,0,1.18,0,2.58,1.63,2.54s1.68-1.25,1.31-2.53c-.57-2,.86-1.68,2-1.7,4.67-.08,9.33-.18,14-.22,1.32,0,2.87-.15,2.42,2-.22,1.08,0,2.1,1.27,2.28s1.7-.85,1.64-1.93c-.12-1.81.83-2.33,2.42-2.33s2,.79,2.08,2.19c0,.84.15,1.87,1.2,1.9,1.43,0,1.3-1.2,1.3-2.18,0-1.6,1-1.87,2.31-1.91s2.17.57,2.21,2c0,1,.15,2.19,1.54,2,1-.13,1-1.16.94-2-.17-1.85,1-1.68,2.27-1.71s2.39-.05,2.26,1.73c-.06.85.08,1.74,1.06,2a1,1,0,0,0,1.36-1c0-1.94.39-3.2,2.78-3,2.7.16,1.54,2.49,2.33,3.7.15.24.54.33.82.48,1.09-.22,1.19-1.08,1.15-1.92-.06-1.45.55-2.21,2-2.23s2.74.14,2.69,2.07c0,1.3.31,2.47,1.88,2.29,1.3-.15,1.43-1.23,1.11-2.29s-.29-2,1.16-2.08,2.77-.08,2.93,1.83c.1,1.22.33,2.6,1.86,2.42,1.78-.2,1.07-1.6.92-2.74-.29-2.22,1.47-1.31,2.38-1.34,4-.14,8-.31,12-.14,1.87.09,5.19-1.15,4.34,3.13-.13.65.61,1.2,1.34,1.11a1.93,1.93,0,0,0,1.17-.75c3.17-4.4,3.16-4.41,5.63.48,0,.09.31.08.52.12,2.18-.48,0-3.52,2.59-4.17,3.88-1,2.07,4,4.35,3.85,2.06-.1.37-4.48,4-3.89,2.77.45.39,4.43,3.21,4.08,2.07-.25,0-3.86,2.77-4,1.76-.09,3,.28,2.83,2.41-.06,1.1.38,2,1.71,1.83,1-.16,1.19-1.06,1-2-.24-1.38,0-2.31,1.68-2.31,1.49,0,2.68.26,2.59,2.17-.06,1.05.12,2.14,1.47,2.1a1.48,1.48,0,0,0,1.44-2.08c-.44-1.5-.26-2.29,1.55-2,1.27.18,2.82-.16,2.7,2-.06,1.09.29,2.15,1.61,2s1.39-1.22,1.09-2.28c-.41-1.39.22-1.88,1.49-1.66s3-.45,2.73,1.86c-.12,1.28.11,2.5,1.75,2.35,1.27-.1,1.57-1.14,1.23-2.22-.66-2.05.52-2.25,2.06-2.24s2.72.13,2.22,2.19c-.26,1.12.2,2.08,1.43,2.15s1.63-.95,1.46-2c-.32-2.16,1.23-1.89,2.52-2,1.56-.2,2.1.53,2,2,0,.86.13,1.86,1.15,1.92,1.44.09,1.36-1.13,1.34-2.11,0-1.58.91-2,2.25-2s2.35.25,2,2c-.18,1-.17,2.16,1.15,2.32s1.61-1,1.57-2c-.06-1.44.5-2.19,2-2.27s2.57.4,2.54,2.21c0,.84.16,1.8,1.23,1.86s1.39-.81,1.39-1.68c0-1.62.58-2.5,2.34-2.44,1.47.06,2.08.75,2.06,2.2,0,1.05.24,2.14,1.56,2.1s1.51-1.11,1.3-2.17c-.32-1.6.45-2.14,1.89-2.11,1.24,0,2.36.18,2.42,1.82,0,1.14-.14,2.66,1.63,2.43,1.59-.2,1.43-1.53,1.18-2.74s.51-1.48,1.44-1.49,2.21-.17,2.57,1c1.21,3.87,3.78,7.43,2.66,11.84-.3,1.17-.48,2.31-1.83,2.7s-1.5-.66-1.94-1.61c-.67-1.46-2.29-1.2-3.55-1.28-2.07-.13-4,.2-3.08-3.15.57-2.14-1.33-2.56-3.26-2.52a53.86,53.86,0,0,1-9.43-.32c-3.33-.53-2.24,2.74-3.74,3.7-2.27-2.71-5.86-1.89-8.72-3.17-1.48-.67-2,2.59-2,3.87,0,2.68-.1,4.74-3.42,4.31-2.9-.38-2.14-3-2.48-4.87C1967.25,62.88,1967.69,62,1966.37,60.91Z" />
    <path id="detalle-zona-lumbar-1" fill="#b800ee"
        d="M1771.05,1238c14.84,0,29.68.27,44.5-.06,17.56-.4,34.8.75,52,5.06,25.82,6.48,51.9,12,77.86,17.88.81.18,1.63.36,2.43.59,12,3.46,15,8.33,12.93,20.81-.52,3.11-1,6.23-1.53,9.35-1,6.43-2.11,7.19-8.86,6.27-10.9-1.49-21.54-4.24-32.27-6.57q-35.61-7.74-71.22-15.54a38.66,38.66,0,0,0-8.43-.69c-39.17,0-78.34.36-117.5-.17-16.67-.23-32.74,2.11-48.87,5.84-24.16,5.59-48.45,10.58-72.71,15.67-4,.85-8.25.9-12.38,1.34-2.47.27-3.22-1.5-3.6-3.32a84.81,84.81,0,0,1-1.21-25.78c.3-2.91,2.52-4,5-4.91,9.73-3.63,20-5.18,30-7.5,25.13-5.81,50.34-11.31,75.5-17a50,50,0,0,1,11.37-1.28Q1737.56,1238,1771.05,1238Z" />
    <path id="detalle-zona-lumbar-2" fill="#000dfc"
        d="M1771.48,1668.76c11.66,0,23.34.41,35-.08a235.59,235.59,0,0,1,69.63,7.16c21.37,5.51,43,9.91,64.55,14.89,4.2,1,8.25,2.6,12.47,3.5,8.88,1.91,8.91,7.16,7.5,13.86-1.37,6.45-1.89,6.31-8.57,5.44-34.82-4.52-68.43-14.77-102.75-21.68a66.12,66.12,0,0,0-13.31-1.65c-39.16.07-78.32.28-117.48-.1a160.51,160.51,0,0,0-38.46,4.58c-26.51,6.22-53.11,12.07-79.71,17.89-4.5,1-9.2,1.11-13.82,1.54a3.12,3.12,0,0,1-3.54-2.17,36.94,36.94,0,0,1-2.07-7.16c-.65-5.6,1.39-8.43,7-10.12,21.81-6.62,44.2-10.74,66.36-15.85,14.08-3.25,28.22-6.24,42.3-9.46a30.1,30.1,0,0,1,6.94-.58Z" />
    <path fill="#bababa"
        d="M209.77,1722c7.08,2.46,14.56,4.93,21.65,8.82,6.71,3.69,10.09,8.83,10.43,16.21.25,5.7,2.18,10,8.35,11.32,2.57.56,3.37,2.36,2.73,4.93a394,394,0,0,0-7.74,40.16c-.48,3.39-2.07,4.25-5.47,3.86a266,266,0,0,0-61.59,0c-3.13.36-4.9-.41-5.36-3.5-2.07-13.66-4.73-27.2-7.79-40.66-.84-3.69,1.74-4.87,4.3-5.53,4.21-1.1,6.05-3.74,6.32-7.83,0-.33.21-.66.2-1-.57-13.13,8.86-17.87,18.74-22C199.26,1724.79,204,1722.53,209.77,1722Z" />
    <path id="detalle-zona-lumbar-3" fill="#000dfc"
        d="M1554.09,1864c-.28-16.46-.86-32.92-1.29-49.37-.59-22.76-1-45.54-2.07-68.27-.64-14.27.17-28.58-1.36-42.84-.56-5.21.25-10.61.84-15.88.44-4,4.3-4.15,7.17-5.15,2.56-.89,5-.58,6.55,2,2.73,4.54,5.35,8.92,5.17,14.73-.55,17.29.73,34.58,1.12,51.87.51,23.25.94,46.54,2.07,69.76.7,14.44,0,28.89,1.44,43.34,1.16,11.54.39,23.25-.73,34.87-.54,5.67-5.37,3.82-8.34,5.15s-4-1.12-5.11-3.23C1553.2,1889.32,1554.12,1876.59,1554.09,1864Z" />
    <path id="detalle-zona-lumbar-4" fill="#000dfc"
        d="M1989,1708.64c-.82,26.45-1.58,54-2.24,81.64-.54,22.6-1.42,45.19-2,67.79-.25,9.8-.47,19.61-.91,29.41-.26,5.78-3.36,10.86-6.31,15.54-2.14,3.4-6.08.39-9.2,0-2.71-.36-3.4-2.39-3.32-4.77.29-8.46-.41-16.91-.13-25.39.64-19.78.4-39.6,1.2-59.37,1-23.6,1.06-47.22,2.17-70.79.76-15.94-.35-31.93,1.69-47.83a20.34,20.34,0,0,1,6.07-11.71c3-3.06,10.86.48,11.93,5C1989.52,1694.51,1988.81,1701,1989,1708.64Z" />
    <path fill="#bababa"
        d="M110.43,1799.14c-16-.29-27.18-4.42-35.3-15a23.15,23.15,0,0,1-1.07-26.6c9.33-14,10.92-29.75,10.75-45.84-.06-4.71-2.82-9.12-3.42-14a36,36,0,0,1,1.87-16.16c4.78-14.23,18.77-16.51,29.16-15.12,18.55,2.49,24.35,18.35,20.55,33.48-3.46,13.74-2.5,26.55.19,39.8,1.07,5.26,2.66,10.37,5.83,14.76,12.4,17.16,3.11,34.27-14.05,41.32C119.38,1798.08,113.5,1799.31,110.43,1799.14Zm-3-10.06a42.83,42.83,0,0,0,15.23-3.19c12.14-5.1,15.76-16.67,8.11-25.59-10.48-12.2-36-12.22-46.46,0-5.78,6.73-5.36,14.24.91,20.46S99.26,1788.55,107.41,1789.08Zm.08-80.06h6c8.29,0,11.7-2.42,13.07-10.56,2-12-2.71-23.77-14.68-25.35-15-2-23.6,5.05-23.72,20.14-.1,11.84,4.41,16.51,14.84,15.79C104.48,1708.94,106,1709,107.49,1709Z" />
    <path fill="#bababa"
        d="M299.88,1695.45c.4,10.83-4.4,18.46-14.07,23.13-1.8.87-3.57,1.79-5.36,2.67-7.15,3.48-7.15,3.48-12.06-2.57-1.51-1.86-3.25-3.47-5.75-3.58-6.8-.29-13.53-1.56-20.38-1.15-4.35.27-8.21,1.24-10.83,5-2.76,4-5.74,3.46-9.19.73-5.65-4.48-11.14-9-13.14-16.38-3.29-12.16,0-22,10.13-29.78.92-.71,2-1.28,2.81-2.07,3.45-3.21,6.46-3.25,9.6.63,5.83,7.2,14,4.6,21.41,4.57,2,0,4-.72,5.92-.62a11.14,11.14,0,0,0,10.81-5.84c1.72-2.92,3.71-3.31,6.64-2.23,5.63,2.06,11,4.38,15.68,8.4C298.15,1681.59,299.76,1688.14,299.88,1695.45Z" />
    <path fill="#bababa"
        d="M308,1872.82c0,14.1.72,11.44-12.65,11.38-11.07-.06-22.14.54-33.21.6-7.09,0-14.21-.09-21.27-.68-4.58-.38-8.89,1.07-13.41.9-7.59-.27-8.38-.88-8.4-8.24,0-2.66,0-5.32,0-8,0-7.63.68-8.26,8.11-8.27,23.42,0,46.85-.09,70.27-.09,2,0,4,.56,5.93.52,3.45-.06,4.81,1.54,4.64,4.88C307.87,1868.15,308,1870.49,308,1872.82Z" />
    <path fill="#bababa"
        d="M405.39,1884.68c-13.07,0-26.13,0-39.2,0-9.73,0-19.45-.42-29.21.19-7.12.44-7.93-.8-8-8q0-4.5,0-9c0-6.38,1.14-7.47,7.52-7.5,12.53,0,25.08-.65,37.57,0,13.06.63,26.11-.58,39.15.63,3.36.32,4.81,1.44,4.72,4.83-.13,4.66-.06,9.32,0,14,0,3.88-1.83,5.66-5.65,4.78C410,1884,407.64,1885.17,405.39,1884.68Z" />
    <path fill="#bababa"
        d="M424,1787.11c0,6.66-.08,13.31,0,20,.05,3.05-.55,4.4-4.2,4.2-7.79-.41-15.62-.35-23.41-.06-3.91.14-5.49-1.06-5.45-5q.16-19.73,0-39.44c0-3.91,1.9-5.39,5.38-5.66a127.07,127.07,0,0,1,22.83-.08c3.58.35,4.85,2.19,4.81,5.6-.1,6.82,0,13.64,0,20.47Z" />
    <path fill="#bababa"
        d="M283,1777.12c0-8.16.13-16.33-.06-24.49-.09-4,1.24-5.83,5.45-5.64,5,.23,10,.11,15,0,3.12-.06,4.58,1.21,4.57,4.42q-.08,25.5,0,51c0,3.1-1.2,4.63-4.42,4.58-5.33-.08-10.66-.11-16,0-3.53.08-4.65-1.63-4.61-4.9.09-8.33,0-16.67,0-25Z" />
    <path fill="#bababa"
        d="M278,1776.5c0,7.83-.1,15.66,0,23.48.06,3.62-1.32,5.19-5,5-4.16-.16-8.33-.11-12.49,0-3.13.07-4.56-1.24-4.54-4.44q.09-24,0-48c0-3.13,1.25-4.61,4.45-4.54,4.16.08,8.33.12,12.49,0,3.63-.14,5.1,1.37,5,5-.14,7.83,0,15.66,0,23.49Z" />
    <path fill="#bababa"
        d="M455.63,1754c4.5,0,9,.18,13.49-.06,4.21-.23,6.17,1.17,5.93,5.66a136.1,136.1,0,0,0,0,15c.21,4-1.61,5.79-5.21,6.57-7.1,1.54-14.3,1.2-21.37.47-12.47-1.28-12.52-1.6-12.43-14.26.12-15.48-2-13.14,13.1-13.35C451.3,1754,453.47,1754,455.63,1754Z" />
    <path fill="#bababa"
        d="M455.08,1784c4.49,0,9,.09,13.48,0,3.75-.1,5.53,1.42,5.44,5.29-.13,5.33-.14,10.66,0,16,.1,3.4-1.27,5.56-4.59,6a113.23,113.23,0,0,1-28.79,0c-3.27-.4-4.78-2.46-4.68-5.92.17-5.48.18-11,0-16.47-.1-3.73,1.57-5,5.11-4.91C445.76,1784.14,450.42,1784,455.08,1784Z" />
    <path fill="#bababa"
        d="M111.05,1858.86c0-8,.07-16,0-24,0-3.33,1.22-5,4.68-4.87,1.64,0,3.29-.45,4.94-.57a7.77,7.77,0,0,1,2.8.21c.5,4.51,6.29,5.95,6.39,10.22.31,13.29,1.1,26.64-3.66,39.52-2.22,6-5,8.37-11.34,8.49-3.33.06-3.81-1.93-3.81-4.53q0-12.25,0-24.49Z" />
    <path fill="#bababa"
        d="M93,1858.9c0,7.32.11,14.64-.07,22,0,2.41,1.4,6.15-2.3,6.7-3.44.52-7.7.53-9.84-3.15a43.83,43.83,0,0,1-6.3-25.69c.41-5.33.85-10.59,0-15.88-.27-1.67-.81-3.89,1.18-4.33,5.28-1.16,1.61-7.24,4.9-8.69s6.84.26,10.25.64c2.34.26,2.1,2.68,2.11,4.48,0,8,0,16,0,24Z" />
    <path fill="#bababa"
        d="M454.41,1724c-4.83,0-9.66-.08-14.49,0-3.26.08-5-1-4.91-4.58.13-4.66.1-9.33,0-14-.06-3.22,1.49-4.42,4.58-4.4q15,.1,30,0c3.24,0,4.46,1.51,4.4,4.6q-.12,7,0,14c.06,3.24-1.52,4.44-4.6,4.38C464.4,1723.91,459.4,1724,454.41,1724Z" />
    <path fill="#bababa"
        d="M454.5,1751c-5,0-10-.07-15,0-3.18.06-4.54-1.34-4.48-4.5q.14-7,0-14c-.06-3.18,1.37-4.49,4.51-4.47q15,.09,30,0c3.18,0,4.54,1.35,4.48,4.51q-.14,7,0,14c.06,3.18-1.34,4.54-4.5,4.49C464.49,1750.9,459.49,1751,454.5,1751Z" />
    <path fill="#bababa"
        d="M345,1786.32c0,7-.07,14,0,20.93.05,3.38-1.34,4.65-4.73,4.79-11.28.48-11.28.58-11.27-10.69s.12-22.27-.06-33.4c-.07-4.41,1.24-6.39,6-7.11,11.81-1.77,9.88,0,10,9C345,1775.36,345,1780.84,345,1786.32Z" />
    <path fill="#bababa"
        d="M360,1785.7c0-6.81.09-13.62,0-20.43-.06-3.47.65-4.7,4.79-4.58,12.1.35,10.15,2.15,10.18,11.48,0,11.45,1.53,22.84,1.13,34.31-.15,4-1.39,5.56-5.52,5.59-10.57.07-10.57.23-10.57-10.42,0-2.66,0-5.31,0-8Z" />
    <path fill="#bababa"
        d="M172,1861c0,7.84,0,15.67,0,23.5,0,2.25.46,5-3,5.32-3,.31-5.19-.82-5.94-4-1.9-8.09-4.37-16.1-4-24.56s-1.28-17.26,1.88-25.68c.74-2,.14-4.7,3.57-3.88,3,.72,7.58-1,7.49,4.8-.13,8.17,0,16.34,0,24.5Z" />
    <path fill="#bababa"
        d="M133,1866.15c-1-9,1.42-19.7,1-30.49-.19-4.9,3.21-4.36,6.35-4.8,3.8-.53,2.92,2.15,3.7,4.25,3.53,9.49,1.52,19.4,2.32,29.07.62,7.5-2.17,15-4.57,22.29-.93,2.85-3.58,2.57-5.91,2.37-2.75-.24-2.86-2.35-2.87-4.41C133,1878.94,133,1873.46,133,1866.15Z" />
    <path fill="#bababa"
        d="M167.09,1930.27c-.93-1.37-2.51-1.49-3.86-2.08-1-.45-2.32-1.13-1.86-2.54a2.11,2.11,0,0,1,2.53-1.15c3.11,1.41,6.22.13,8.92-.56,4.05-1,7.21,1.91,11.39,1,3.82-.83,8.27,1.3,13.31,2.29-2.2,1.94-6.78.41-5.13,4.9,2.45-2.44,5.37-3.33,8.37-1.58,3.36,2,3.6,5.37,3,8.81-.36,2.14-1.51,3.07-3.35,1.2-.89-.92-1.28-2.49-3-2.08-.76.19-1.16,1.19-.6,1.52,1.93,1.12-.17,4.88,3.15,4.82,4.11-.06,2.66,1.93,1.1,3.28-2.87,2.47-6.07,5-10.17,3.64-4.8-1.58-5.27-5.84-5.25-10.12,0-1.16.26-2.31.38-3.47.16-1.63,0-3.26-2.18-3-2.82.39-1.26,1.44-.19,2.32-1.84,1.46-3.08,3.62-5.7,4.15-3.31.68-4.89-1-6-3.7-.42-1.47.08-3.32-2.3-3.82C167.82,1933.78,167.49,1931.89,167.09,1930.27Z" />
    <path fill="#bababa"
        d="M97.05,1860.11q0-12.24,0-24.47c0-2.71-.2-5.58,3.87-5.51,3.54.06,5.13,1.8,5,5.31-.34,12.14,1.68,24.22,1,36.37a54.32,54.32,0,0,0,1,14.39c.3,1.43,0,2.86-1.76,2.91-2.5.07-1.34-1.58-1.16-2.79a6.59,6.59,0,0,0-.07-2c-.3-1.92-1.05-3.83-3.24-3.78-2.39.07-2.36,2.27-2.71,4.09-.28,1.5,2,4.36-.89,4.29s-1.27-3.07-1.27-4.87v-24Z" />
    <path fill="#bababa"
        d="M376.54,1755c-4.82,0-9.65-.11-14.47,0-3.59.11-5.32-1.28-5.06-5,.12-1.66.07-3.33,0-5,0-2.67,1.19-4,3.9-4,10.32,0,20.63,0,30.95,0,1.67,0,3.63,0,3.71,2.34s-1.83,2.44-3.53,2.52c-1.5.07-3,0-4.49.1-1.32.09-2.93.1-3,1.89s1.5,1.92,2.83,2c1.82.16,3.67.11,5.46.41,1.33.23,2.67.91,2.59,2.56s-1.61,2-2.95,2c-5.32,0-10.64,0-16,0Z" />
    <path fill="#bababa"
        d="M357,1786.29c0,6.64-.07,13.28,0,19.92.05,3.31-1.18,4.87-4.66,4.81-3.26,0-4.38-1.53-4.37-4.6q.11-20.42,0-40.84c0-3.07,1.14-4.54,4.38-4.59,3.53,0,4.66,1.6,4.61,4.88-.1,6.8,0,13.61,0,20.42Z" />
    <path fill="#bababa"
        d="M375,1935c-2.8-.35-5.06-.25-6.33,3.14-1.68,4.47-4.45,4.87-8.76,1.65-.64,4,6.06,4.2,3.74,8.56,2.12-.18,1.56-1.45,1.72-2.31s.55-1.63,1.56-1.6,1.4.77,1.39,1.69a5.3,5.3,0,0,0,.81,2.8c1,1.83-1.21,3.65-1.6,3.37-4.88-3.47-7.88,3.15-12.54,2.1-2.82-.63-4.58-2.38-3.82-3.92,2.74-5.47-1.37-9.73-1.79-14.56-.14-1.51-.53-3,.27-4.35a2.16,2.16,0,0,1,2.5-1.24c2.07.84-.26,1.28-.34,2s0,1.5.76,1.54c3.66.15,2,2.3,1.25,3.68a2.46,2.46,0,0,0,.21,3.15,2,2,0,0,0,2.27.6c1.57-.56,1-1.74.79-2.9-.45-2.25,2.66-4.75-.42-7a7.57,7.57,0,0,1,3.63-1.88c1.52-.11,1.94,1,1.82,2.36a19.26,19.26,0,0,0,1,8.28c1.9-2.16,1.07-3.85.56-5.44-.71-2.21-.07-4.63,1.7-5.2,2.58-.82,5.41-3.42,7.92-1.81,2.22,1.43,1.41,4.82,1.64,7.39Z" />
    <path fill="#bababa"
        d="M431.92,1744.46c-1.09,2.07-3.18,1.24-4.86,1.57-1.17.23-2.44.36-2.52,1.87s1.16,1.74,2.33,2.06c1.7.47,4.95-.76,4.68,1.9-.21,2-3.44,1-5.31,1.06-6.65.12-13.3.07-20,0-1.82,0-3.62,0-5.29-1s-3.06-2.41-3.05-4.74,2-2.42,3.33-3.21a6.76,6.76,0,0,1,3.3-.88c8.32-.06,16.64,0,25,0C430.49,1743.1,431.58,1743.09,431.92,1744.46Z" />
    <path fill="#bababa"
        d="M375,1935c.3-.77.6-1.54.89-2.31.56-1.48-.52-4.49,2.31-3.92,2.49.51,1.15,3,.9,4.69a17.58,17.58,0,0,0,.25,2.64c1.5-4.38,2.52-7.94,7.22-4.83,4.16,2.75,5.84,7.72,3.33,11.75-1.95,3.13-3.25,7.84-8.63,4.35-.15-.09-.75.46-1.09.76-4.18,3.66-4.86,3.35-6.25-2.15-1-3.88-1.15-7.55,1.13-11Z" />
    <path fill="#bababa"
        d="M259.92,1845c0,1.66,0,3.32,0,5-.08,2.64-1.45,4-4.12,3.83a34.47,34.47,0,0,0-9.87.86c-2.38.51-4-.48-4.25-2.93s1.33-3.24,3.29-3.58c1.3-.22,2.66-.13,4-.33,2.31-.34,3.67-1.86,3.47-4.1-.21-2.44-2.16-3.17-4.37-3s-4.52,2.1-6.27-.71a3.13,3.13,0,0,1,.11-3.76c2-2.44,4.63-2.17,7.32-1.46a15.83,15.83,0,0,0,2,.26C260,1836.35,260,1836.36,259.92,1845Z" />
    <path fill="#bababa"
        d="M373.91,1844.52c.65-2.72-1.31-6.47,1.75-7.85a23.45,23.45,0,0,1,14-1.7,3.78,3.78,0,0,1,2.71,4.3c-.29,2.17-2.33,1.92-4,1.89-.66,0-1.32-.14-2-.13-1.66,0-3.48-.17-4.15,1.87a4.49,4.49,0,0,0,.67,4.26,3.13,3.13,0,0,0,4.38.94c1.35-.71,2.82-1.45,4,.07a4.28,4.28,0,0,1,.69,3.8,3.47,3.47,0,0,1-3.91,2.43c-3.95-.33-8-.57-11.76-1.73C372.17,1851.35,374.83,1847.21,373.91,1844.52Z" />
    <path fill="#bababa"
        d="M277.24,1841c-1.4.14-3.71-.69-4.8,1.65a4.26,4.26,0,0,0,.46,4.72c1.55,1.75,3.4,1.66,5.39.47,2.26-1.34,3.73-.58,4.39,2,.75,3-1.27,4.45-3.33,4.41-4.45-.1-8.88-1-13.31-1.57a1.36,1.36,0,0,1-.87-.45c-2.78-4.34.4-8.7,0-13.08-.21-2.28,1.59-3.16,3.51-3.46,2.95-.47,5.91-.89,8.88-1.13,2.77-.21,5.34.86,5.4,3.83C283,1842,280,1841.05,277.24,1841Z" />
    <path fill="#bababa"
        d="M369,1845.4c0,1.33,0,2.66,0,4a16.49,16.49,0,0,1-.14,2c-.23,1.84-1.52,2.81-3.13,2.39-4.53-1.22-9.57,3.14-13.53-.86-1.66-1.68-.77-4.17,2.21-4.66.65-.1,1.34.13,2,.06,2.74-.3,6.26.09,5.82-4.21-.41-4-3.53-3.11-6.15-2.69s-5-.23-5.12-3.18,2.38-4.08,4.76-3.92a92.62,92.62,0,0,1,10.78,1.83c1.77.34,2.4,1.64,2.44,3.29,0,2,0,4,0,6Z" />
    <path fill="#bababa"
        d="M459.66,1692c-6.52,0-7.57-.93-7.59-7.45a118.12,118.12,0,0,0-.93-12.89c-.24-2.14-.16-4.88,2.8-4.88,2.66,0,1.74,2.68,2,4.33a76.79,76.79,0,0,1,1.09,14.37c-.05,1.86.19,4,2.61,4.11,2.67.12,3.22-2.13,3.23-4.16a106.61,106.61,0,0,1,1.19-15.87c.21-1.31.15-2.91,2-2.87a2.61,2.61,0,0,1,2.67,3c-.89,6.56-.09,13.3-1.9,19.75C466.15,1692,465.59,1692,459.66,1692Z" />
    <path fill="#bababa"
        d="M167.09,1930.27c.4,1.62.73,3.51,2.59,3.89,2.38.5,1.88,2.35,2.3,3.82.59,2.18-.86,4.51,3.11,6.07,3.57,1.4-.94,3-2.42,4.8,2.7.34,4.1,2,3.4,4.37s-3.25,1.15-4.7,1.18c-1.81,0-3.57.56-5.36.44-3.08-.19-4.61-2.28-3.11-4.68,3-4.73.66-9.14-.58-13.21C160.28,1930.27,160.21,1929.75,167.09,1930.27Z" />
    <path fill="#bababa"
        d="M156,1863c0,6.48,0,13,0,19.46,0,1.79.18,4.09-2.42,4.14s-2.49-2.29-2.5-4.07q0-20.14.06-40.29c0-1.71.31-3.67,2.44-3.74,2.74-.08,2.39,2.3,2.41,4C156,1849.37,156,1856.19,156,1863Z" />
    <path fill="#bababa"
        d="M446.07,1683.31c0-2.82-.05-5.65,0-8.47,0-1.12-.12-2.75,1.37-2.8s1.43,1.59,1.45,2.69c.07,5,.21,10,0,15-.14,4.18,1.57,6,5.66,5.07a24.08,24.08,0,0,1,9.86,0c4.64.81,6.43-.84,6.53-5.58s0-9.64.09-14.46c0-1.11-.08-2.74,1.47-2.69s1.36,1.68,1.37,2.79c.05,5.82,0,11.64,0,17.46,0,2.84-1.53,4.31-4.08,4.85a47.8,47.8,0,0,1-19.75,0c-2.84-.58-4.22-2.36-4.11-5.34.09-2.82,0-5.65,0-8.48Z" />
    <path fill="#bababa"
        d="M146.4,1931.3c-2.4-1-4.85-2.18-4.73-5,.09-2.31,2.55-2,4.14-3.15.06,3.8,1.46,5.05,5.19,4.86,1.2-.06,2.5-.44,2.85,1,.3,1.21-.9,1.73-1.86,1.93-3.44.72-1.45,4.18-2.86,5.6-1.88,1.89-1.37,2.65-.27,4.93,1.73,3.56,2.9,7.86.85,12-.52,1-1.21,2.22-2.61,1.87-2.36-.6-2-2.82-2.28-4.52-.18-1-.63-2.81,1.14-2.59,1.38.16,2.43.51,2.23-1.22s-.1-3.69-1.85-4.92C141.78,1938.88,141.75,1934.67,146.4,1931.3Z" />
    <path fill="#bababa"
        d="M385.05,1786.49c0-6.81,0-13.62,0-20.43,0-1.19-.36-3.1,1.57-3,1.46,0,1.27,1.75,1.27,2.85q.06,21.18,0,42.35c0,1.11.12,2.8-1.35,2.79-1.86,0-1.53-1.89-1.54-3.1-.06-7.15,0-14.29,0-21.43Z" />
    <path fill="#bababa"
        d="M379,1786.75c0-6.81,0-13.62,0-20.42,0-1.25-.36-3.19,1.34-3.3,1.85-.12,1.52,1.86,1.53,3.07q.07,20.93,0,41.85c0,1.2.32,3.17-1.56,3-1.69-.13-1.32-2.06-1.33-3.3-.06-7,0-14,0-20.93Z" />
    <path fill="#bababa"
        d="M431.9,1772.56c0,3,.05,6,0,9,0,1.6-.46,3.1-2.45,3.1-1.68,0-2.29-1.29-2.3-2.72q-.08-9.47,0-18.94c0-1.46.73-2.63,2.41-2.6s2.27,1.29,2.3,2.72c.08,3.15,0,6.31,0,9.47Z" />
    <path fill="#bababa"
        d="M427.11,1799.26c0-3,0-6,0-9,0-1.4.45-2.74,2.15-2.87,2-.14,2.57,1.31,2.59,2.92q.09,9.24,0,18.48c0,1.4-.47,2.72-2.18,2.84-2,.14-2.58-1.26-2.62-2.89-.07-3.16,0-6.33,0-9.49Z" />
    <path fill="#bababa"
        d="M334.7,1933.38c.18-1.88-.69-2.76-2.73-3.16a3.4,3.4,0,0,1-2.44-3.42c0-1.61,1.49-2.06,2.56-2.75,1.73-1.12,2.74.1,3.74,1.27,1.17,1.39,2.21,3.15,4.45,1.62.57-.39,1.2-.72,1.64.11s.48,2-.17,2.28c-4.32,1.58-4.22,6.32-6.78,9.11-1,1.09-1,3.53-3.4,2.87-.39-.1-1-.76-.93-.92.72-1.78.86-4.59,2.55-5S335,1934.82,334.7,1933.38Z" />
    <path fill="#bababa"
        d="M351,1736c-5,0-10,0-15,0-1.5,0-3.09,0-3.81-1.74a1.89,1.89,0,0,1,.22-2.31,1.26,1.26,0,0,1,1.81-.07c2.89,3.4,6.8,2,10.31,2.14,5.65.19,11.32.07,17,0,2,0,4.05.25,5.55-1.55a1.86,1.86,0,0,1,2.63-.57,2,2,0,0,1,.9,2.16c-.28,1.44-1.41,1.82-2.62,1.84-5,.07-10,.07-15,.1Z" />
    <path fill="#bababa"
        d="M396.44,1736c-5,0-10,0-15,0-1.31,0-2.71.11-3.69-1.06a2.12,2.12,0,0,1-.32-2.34c.41-.9,1.29-1.25,2-.59,3.73,3.37,8.29,2.19,12.42,1.93,7.14-.44,14.59,2.23,21.4-2,1.06-.65,2,.13,2.24,1.22.39,2-1,2.72-2.64,2.74-5.49.07-11,0-16.46,0Z" />
    <path fill="#bababa"
        d="M344,1747.59a4.09,4.09,0,0,1,0-1c.55-2-1.58-5.92,1.63-5.71s-.54,3.36.29,5.21c.31.7,0,1.65.11,2.47.26,1.82.52,4,2.91,3.89s1.93-2.32,2-3.9-.12-3-.17-4.46c0-1.18-1.06-3,1.19-3,1.7,0,1.78,1.67,1.93,3,.33,3-.58,5.92-1,8.86s-2.65,2.93-4.86,2.94-3.91-.77-4-3.36c0-1.66,0-3.32,0-5Z" />
</svg>