<?xml version="1.0" encoding="utf-8"?>
<!-- Generator: Adobe Illustrator 24.0.1, SVG Export Plug-In . SVG Version: 6.00 Build 0)  -->
<svg version="1.1" id="Layer_1" xmlns="http://www.w3.org/2000/svg" x="0px" y="0px"
	 viewBox="0 0 2048 2048" width="2048"
    height="2048">
<style type="text/css">
	.st0{fill:#FFFF27;}
	.st1{fill:#383530;}
	.st2{fill:#BABABA;}
	.st3{fill:#D1D1D1;}
	.st4{fill:#5E5E5E;}
	.st5{fill:#C4B7A7;stroke:#828282;stroke-width:0.1;stroke-miterlimit:10;}
	.st6{fill:none;stroke:#000000;stroke-miterlimit:10;}
</style>
<path class="st0" d="M1581.1,1214c-0.1-26.2-1.1-48.9-1.3-71.5c-0.2-22.1-1.5-44.2-2.9-66.2c-2.2-33.3-4.7-66.6-9-99.7
	c-2.2-17.3-4.5-34.6-9-51.6c-3.8-14-9.4-27-19.3-37.8c-3.2-3.5-3.5-6.8-1.2-10.8c10.2-17.4,12.6-36.4,12.8-56.2
	c0.3-34.3-2.5-68.2-10.4-101.5c-6.3-26.4-15.8-51.5-29.7-75c-9.6-16.2-8-15,5.5-23.4c14.8-9.2,30.4-17.3,45.6-25.8
	c19.8-11,39.6-21.9,59.4-32.8c8.2-4.6,8.9-4.4,15.4,1.9c7,6.7,13.1,14.1,21.3,19.5c12.5,8.2,26.4,12.1,41,12.9
	c42.8,2.4,85.6,1,128.4,0.9c17.4,0,35-1.6,50.8-10.6c8.4-4.8,16.4-10.2,22.2-18.2c0.9-1.2,2-2.3,3.1-3.3c7.5-7.6,9.5-7.6,18.9-2.3
	c25.4,14.3,50.9,28.3,76.3,42.6c11.6,6.6,23.7,12.2,34.5,20.1c3.6,2.6,4.5,5.3,2.7,9.3c-2.3,5.2-5.5,9.9-8.2,14.9
	c-15.6,28.7-25.4,59.3-30.9,91.4c-4.7,27.9-6.7,56.2-6,84.5c0.4,17.8,3.3,35.1,12.8,50.7c2.2,3.6,3.1,7.6-0.4,11
	c-15.1,14.7-19.5,34.1-23.3,53.6c-4.5,23-6.9,46.3-9.2,69.7c-2.2,22-3.9,44-5.1,66.1c-0.7,12.8-1.3,25.6-2,38.3
	c-1.6,29.4-1.4,58.9-2.2,88.3c-0.3,11.9,0.6,24-1.6,35.8c-1.2,6.3-2.3,7-8.8,6.2c-16.2-2.1-32-6.2-47.9-9.5c-20-4.2-40-8.6-60-12.9
	c-2-0.3-4-0.5-6-0.4c-43.8,0-87.7,0-131.5,0c-10.8,0-21,3.5-31.4,5.7c-24.8,5.1-49.5,10.6-74.2,15.9c-2.4,0.5-5,0.1-7.5,0.6
	c-11.2,1.9-9.4,0.6-11.2-7.9S1581.4,1219,1581.1,1214z"/>
<path class="st0" d="M750,983c0-87.5,0.1-175-0.2-262.4c0-9.2,3.3-15.4,10-20.8c5.7-4.6,11.2-9.5,16.4-14.5
	c13.6-13.1,24.8-28.4,33.1-45.3c5.7-11.6,15-20.3,21.6-31.1c11.5-19,21.2-38.8,27.2-60.3c2.7-9.7,7.4-11.6,16.2-6.8
	c19.9,11.1,40,21.9,60,32.8c19.1,10.5,38.3,20.8,57.4,31.3c3,1.7,5.9,3.8,8.4,6.2c3.7,3.4,1,7.3-0.4,10.5c-3.8,9-7.9,18-11,27.3
	c-6.8,19.7-11.1,40.1-12.7,60.9c-2,26.7-1,53.2,5.9,79.2c0.1,0.8,0.3,1.6,0.6,2.4c9,16.4,5.4,33.9,4.8,51.2c0,0.8-0.1,1.7-0.2,2.5
	c-0.3,17.3-0.4,34.6-1.1,51.9c-0.9,21.9-1.4,43.9-2.1,65.8c-0.6,19.6-1.4,39.2-1.9,58.8c-0.7,22.1-1.4,44.2-2.1,66.3
	c-0.6,18.6-1.3,37.2-1.8,55.8c-0.8,23.3-1.5,46.5-2.1,69.8c-0.5,19.9-1.3,39.9-2,59.8c-0.7,21.8-1.6,43.5-2,65.3
	c-0.2,6.2-1.2,12.3-2.8,18.2c-0.9,3.6-3,4.5-6.3,3.9c-5.8-1.1-10.9-4.1-16.2-6.4c-30.2-13.5-60.4-27.1-90.6-40.8
	c-26.2-11.9-52.4-23.8-78.6-35.8c-7.4-3.4-14.7-7.1-22.1-10.5c-3.1-1.4-4.2-3.5-4.5-6.9c-1.8-20.3-0.8-40.6-0.8-60.9
	C749.9,1128,749.9,1055.5,750,983z"/>
<path class="st0" d="M739,984.7c0,89.8,0,179.6,0.1,269.5c0,7.7-2.7,11.7-9.6,14.8c-29.9,13.5-59.5,27.6-89.3,41.4
	c-32.8,15.2-65.6,30.2-98.5,45.2c-3.5,1.6-7.3,2.2-11,3.3c-3,0.9-4.3-0.5-4.8-3.3c-1.2-6-1.9-12.1-2.2-18.3
	c-0.7-23.6-1.4-47.2-2.1-70.8c-0.6-20.4-1.2-40.9-1.9-61.3c-0.7-22.3-1.3-44.6-2-66.8c-0.6-20.1-1.4-40.2-2-60.3
	c-0.7-22.6-1.4-45.2-2.1-67.8c-0.6-18.9-1.2-37.9-1.9-56.8c-0.8-23.6-1.5-47.2-2.1-70.8c-0.6-20.6-1.1-41.2-2.1-61.8
	c-0.4-8.9,1.1-17.7,4.3-26c5.4-14.4,7.2-29.7,7.9-45c0.3-6.3,1.2-12.6,1.1-18.9c-0.9-36.2-7.9-70.9-22.7-104.1
	c-6.1-13.8-6.5-13.3,6.8-21c30.7-17.8,61.8-34.7,92.7-52.1c6.5-3.7,13-7.4,19.5-11.1c1.3-0.8,2.6-1.4,4-2c7-2.8,10.2-1.4,12.3,5.9
	c4.8,17.3,11.8,33.6,19.9,49.5c5.9,11.4,13.2,22.1,21.6,31.7c5.2,6.1,7.6,14,11.7,20.9c10.6,17.9,23.4,34,39.4,47.3
	c3.2,2.7,6.2,5.6,9.4,8.2s3.6,6,3.6,9.8C739,804,739,894.4,739,984.7z"/>
<path class="st0" d="M1319,976.9c-29.4,1.8-58.9-3.9-88.5-8.2c-19.1-2.8-38.1-5.9-57.2-8.5c-5.5-0.8-8.6-3-10.1-8.5
	c-2.6-9.7-4.7-19.3-4.1-29.4c0.9-14.8-3.4-29-6.6-43.3c-3.9-17.9-5.3-36.2-7.6-54.3c-2.4-19.3-4.6-38.6-6.8-57.9
	c-1.4-12.2-2.9-24.4-4.1-36.6c-0.9-8.6,0.8-10.7,9.9-13.1s18.1-4.4,25.8-10.3c9.5-7.3,15.2-17.5,21.1-27.5
	c9.3-15.6,18.2-31.5,31.6-44.1c19.4-18.3,42.5-28.7,69.1-31.3c7.4-0.8,15-1.4,22.3-1.5c30.1-0.5,58.4,5.8,82.9,24.8
	c16.4,12.8,28.3,28.9,37.9,47c4,7.7,8,15.3,12,23c8.4,16,21.4,26,39,30.2c7.9,1.9,11.1,4.6,9.7,14.6c-4.4,32.6-8.3,65.3-12.1,97.9
	c-2.3,19.8-4.1,39.7-6.3,59.5c-0.6,5.1-1.6,10.2-2.9,15.2c-2.7,10.4-1.1,21.1-2.8,31.6c-1.8,11.1-2.1,12.2-13,14.2
	c-13.6,2.4-27.2,4.6-40.8,6.8c-15.9,2.6-31.8,5.4-47.8,7.6C1352.8,976.9,1335.9,977.7,1319,976.9z"/>
<path class="st0" d="M181.6,947c-30.2,0.7-60.7-4.3-91.2-9.3c-15.8-2.6-31.5-4.9-47.3-7.5c-12.8-2.1-11.9-2.6-14-15.4
	c-1.1-6.4-0.9-12.9-1.1-19.4c-0.2-5.5-3.1-10.9-3.9-16.4c-2-14.1-3.4-28.4-5.1-42.5c-2.2-17.8-4.4-35.6-6.6-53.4
	C10,763.2,7.2,743.5,5,723.6c-1.5-14.1-1.3-14.9,12.1-18.4c19.4-5,31.4-17.6,40.1-34.7c7.5-14.7,14.8-29.5,25.5-42.2
	c20-23.6,45-38.8,75.9-43.3c22.4-3.3,45.3-2.6,67.4,2c29.5,6.1,52.8,22,70.7,46.1c9.9,13.2,17.1,28.2,27,41.4
	c7,9.7,17.2,16.6,28.8,19.4c3.7,0.9,7.5,1.7,11.1,3c6.7,2.3,8.1,4.5,7.3,11.5c-0.9,8.8-2,17.5-3.1,26.2c-2.2,18.3-4.7,36.6-6.7,54.9
	c-3.1,28.9-6.4,57.8-13.6,86.1c-2,7.7,0.3,15.5-1.3,23.3s-3.1,15.6-5,23.4c-1.3,5.1-4.6,7-9.2,7.7c-32.2,4.7-64.5,9.5-96.7,13.9
	C217.5,946.3,199.6,947.3,181.6,947z"/>
<path class="st1" d="M619.4,230.2c-184.3,0-368.6,0-552.9,0.1c-5.8,0-11.6-0.9-17.4-1.1c-3.3-0.1-3.8-2.4-4.3-5
	c-2.6-13.2-1.5-26.5-2.1-39.8c-0.5-7.6-0.2-15.2,0.9-22.7c0.5-2.9,1.9-3.6,4.5-4c4.8-0.7,9.6-1,14.4-0.9
	c322.8,0,645.6-0.1,968.4-0.3c47.8-0.1,95.6-0.2,143.4-0.8c3.8,0.1,7.6,0.7,11.3,1.6c2.6,0.3,4.5,2.5,4.5,5.1
	c0.6,8.4,1.9,16.8,0.5,25.3c-1,6.3-0.4,13-0.3,19.5s-1.9,12.8-2.2,19.3c-0.1,1.9-1.4,2.3-2.9,2.9c-3.1,1.1-6.3,0.8-9.4,0.8
	L619.4,230.2z"/>
<path class="st0" d="M486.8,836.5c0.9,15.7,0.9,32.2,1.4,48.7c0.7,22.8,1.3,45.5,2,68.3c0.7,23.9,1.3,47.9,2,71.8
	c0.7,22.6,1.3,45.2,2,67.8c0.7,24.1,1.3,48.2,2,72.3c0.7,22.6,1.3,45.2,2,67.8c0.7,24.4,1.2,48.9,2.1,73.3
	c0.6,16.4,0.6,32.9,0.8,49.3c0.1,4.6-2.1,6.8-6,7.8c-17,4.7-34.2,8.5-52,8.4c-7.6-0.1-15.3,0.8-22.8,1.6c-6.9,0.7-10.7-2.4-11.3-9.3
	c-1.9-23.2-4-46.3-5.9-69.5c-1.2-14.2-2-28.5-3.2-42.7c-1.5-17.9-3.2-35.7-4.7-53.6c-1.1-13.6-2.1-27.2-3.2-40.7
	c-1.2-14.7-2.5-29.4-3.8-44.2c-1.1-13.7-2.1-27.5-3.3-41.2c-1.2-14.6-2.5-29.1-3.7-43.7c-0.8-9.8-1.5-19.5-2.3-29.3
	c-1.2-14.6-2.5-29.1-3.7-43.7c-0.8-9.8-1.5-19.5-2.3-29.3c-1.2-14.6-2.5-29.1-3.7-43.7c-0.8-9.8-1.5-19.5-2.3-29.3
	c-0.2-2.5-0.5-5-0.7-7.4c-0.2-1.8-0.3-3.6-0.1-5.5c1.2-7,5-8.5,10.5-4.2c0.7,0.5,1.3,1,1.9,1.7c8.4,12.9,21.2,13.2,34.3,11.3
	c26.3-3.8,42.7-21.2,56.4-42c1.4-2.1,2.5-4.3,3.8-6.4c1.9-3,5.1-5.5,8.2-4.7s4.8,4.5,4.7,8.1C485.7,814.9,488,825.3,486.8,836.5z"/>
<path class="st0" d="M992.5,1346.2c0.5-23.9,0.5-47.9,1.7-71.8c0.5-10.3,0.3-20.6,0.8-30.9c1.2-24.6,1.5-49.2,2.1-73.8
	c0.6-22.4,1.3-44.9,2-67.3c0.7-24.3,1.3-48.5,2-72.8c0.6-22.3,1.4-44.5,2-66.8c0.7-24.8,1.3-49.5,2.1-74.3c0.4-10.5-0.1-21,0.8-31.4
	c1.5-17.4,0.1-34.9,1.9-52.3c0.4-3.7,1.7-7.7,5-8.4s6.5,1.9,8.3,5.3c4,7.1,8.6,13.9,13.7,20.2c8.9,11.3,20.5,19.4,33.2,24.9
	c10.9,4.6,23,5.1,34.2,1.6c4.6-1.5,8.7-4.4,11.5-8.3c0.6-1,1.4-1.9,2.3-2.6c2.3-1.5,4.5-4.9,7.2-3.3c3.1,1.9,4.8,5.4,4.4,9
	c-0.6,8.6-1.4,17.2-2.1,25.8c-0.9,10.6-1.8,21.2-2.8,31.8c-1.3,14.6-2.5,29.1-3.8,43.7c-0.8,9.8-1.4,19.5-2.3,29.3
	c-1.2,14.6-2.5,29.1-3.7,43.7c-0.8,9.8-1.5,19.6-2.3,29.3c-1.2,14.6-2.5,29.1-3.7,43.7c-0.8,9.1-1.5,18.2-2.2,27.3
	c-1.3,15.4-2.6,30.8-3.8,46.2c-1.1,14.1-2.1,28.2-3.2,42.2s-2.5,28.1-3.7,42.2c-0.8,9.3-1.5,18.5-2.3,27.8
	c-1.3,15.2-2.6,30.4-3.8,45.7c-1.1,14.1-2.3,28.1-3.2,42.2c-0.5,7.6-4.1,10.8-11.6,10s-15.2-1.5-22.8-1.6c-16.6-0.1-32.8-3-48.6-7.6
	c-8.5-2.5-8.5-2.5-9.2-11.5c-0.2-2.3-0.7-4.6-1-6.9L992.5,1346.2z"/>
<path class="st0" d="M1768.8,1305c18.3,0,32.8,0.2,47.3-0.1c7.9-0.2,15.6,1.2,23.4,1.2c5,0,7.3,2.7,7.3,7.4
	c0.1,8.8,0.2,17.7-0.1,26.5c-0.1,2.6-0.6,5.3-0.7,7.9c-0.3,20-0.3,40-1.1,59.9c-0.9,23.1-1.3,46.2-2.1,69.3
	c-0.5,14.9-0.3,29.9-2.8,44.8c-0.5,2.8-1.7,4.1-4.5,4.2c-13.3,0.4-26.6-0.2-39.9-1.6c-15.6-1.6-31.1-1.2-46.8,0
	c-12.9,1-25.7,3.4-38.7,1.8c-3.3-0.4-4.9-2-5.1-5c-0.7-8.8-2.4-17.4-2.2-26.3c0.3-17-0.8-33.9-1.2-50.9c-0.5-23.1-1-46.2-2-69.3
	c-0.8-17.8,0-35.6-1.7-53.3c-0.1-0.8-0.1-1.7,0-2.5c0.8-12.7,0.9-12.1,12.7-13.1C1731.3,1304.1,1751.9,1305.7,1768.8,1305z"/>
<path class="st0" d="M1816.9,534c-32.5,2-65,1.1-97.4,0.9c-14.4-0.1-28.8-1.2-42.9-5.3c-17.9-5.2-32.9-14.8-44.4-29.2
	c-9.2-11.4-20.8-20.1-31-30.3c-11.1-11.1-21.5-22.7-29.7-36.1c-7.6-12.5-13.4-25.8-15-40.4c-1.9-17.1,0.6-33.5,9.7-48.5
	c1.8-2.9,4-3.3,7.2-2.6c13.8,2.9,26.9,7.5,39.9,12.7c2.7,1.1,4,2.9,3.8,5.8c-0.3,5-0.6,10-1,14.9c-1.8,23,5.9,42.5,20.4,60.1
	c12.6,15.4,27.1,28.8,42.1,41.8c1.4,1.4,3.2,2.5,5.1,3.1c10.3,2.4,20.6,5.7,31.3,6c19,0.5,38,0.9,57-0.1s38-0.2,56.9-0.9
	c9.1-0.4,18.1-2.7,27-4.8c5.5-1.3,8.8-6.4,13.2-9.6c9.6-7,18.1-15.3,26.3-23.7c18.7-19.1,32.3-41.1,31.7-69.2
	c-0.1-4.8-0.6-9.6-1.2-14.4c-1.2-8.6-1.2-8.3,6.4-11.9c10.8-5,22.1-8.4,33.6-11.3c7.9-2,10.1-1.3,13.2,6.2
	c9.3,22.1,10.3,44.6,1.1,67c-7.4,18.1-18.7,33.6-32.1,47.8c-7.9,8.3-16.2,16.2-24.9,23.7c-5.7,5-9.6,11.4-14.7,17
	c-11,12.2-25.2,21-40.9,25.5C1850.8,533,1833.9,533.7,1816.9,534z"/>
<path class="st0" d="M1997,1357c-1.3,24.3-1.1,48.6-0.9,72.9c0.1,20.3,1,40.6,1.2,60.9c0.1,11.9,1.5,23.9,1.7,35.8
	c0.1,6.7-0.7,7.2-7.5,7.4c-18.5,0.6-36.8-1.4-55.2-2.8c-15.6-1.3-31.1-2.5-46.7-3.1s-18.8-2.1-18.2-17.3c0.5-14.1-0.6-28.3,1.4-42.3
	c0.1-0.8,0.2-1.7,0.2-2.5c-0.7-17.2,0.9-34.3,1.1-51.4c0.3-27.3,1.8-54.5,2.1-81.8c0.1-7.7,1-15.3,2.6-22.8c0.6-2.9,1.4-3.5,4.5-3.5
	c16.8,0.4,32.8,5.7,49,9.3c19.3,4.3,38.8,7.8,57.8,13.7c5.2,1.6,6.9,4.7,7,9.4C1997.1,1345,1997,1351,1997,1357z"/>
<path class="st0" d="M1679.9,1414.1c0.4,15.3,0.6,31.7,1.5,47.9c0.8,14.3-0.7,28.6,1.6,42.9c0.9,5.7-1,11.3-1,16.9
	c0,3-2.3,3.5-4.4,3.8c-8.2,1.2-16.4,2.7-24.7,3.4c-22,1.8-44.1,3.5-66.1,4.9c-9,0.6-18,0.1-27,0.2c-3.9,0-4.8-2.7-4.8-5.7
	c0.3-10.1,0.9-20.3,1.4-30.4c0.1-1.5,0.4-3,0.5-4.5c1-41.3,1.3-82.6,0.8-123.9c-0.1-9-0.8-17.9-0.8-26.9c0-10.2,0.4-10.9,9.8-13.8
	c17.8-5.4,36.3-8.7,54.4-12.9c12.5-2.9,25.1-5.4,37.5-8.3c4.5-1,9-0.2,13.4-1.2c2.4-0.5,2.8,1.3,3,3c1,6.4,2.7,12.8,2.7,19.2
	c-0.1,15.7,1.4,31.3,1.1,46.9C1678.7,1388.2,1680.8,1400.6,1679.9,1414.1z"/>
<path class="st0" d="M1771.6,1580c59.5,0,119,0.1,178.4-0.2c6.3,0,10.4,2.1,13.9,6.7c6.6,8.6,13.3,17.1,19.8,25.6
	c0.8,1,1.5,2.2,2.1,3.4c2.1,5.6,1.4,6.5-4.3,8.6c-11.3,4.1-23.3,3.7-34.9,4.9c-15,1.6-30.1,2.7-45.2,3.9
	c-13.6,1.1-27.2,2.1-40.7,3.2c-14.1,1.2-28.1,2.9-42.2,3.7c-18.7,1-37.3,4.5-56.2,3.2c-13.9-1-27.8-2.5-41.7-3.7
	c-13.1-1.1-26.2-2.1-39.2-3.3c-14.6-1.2-29.1-2.5-43.7-3.7c-13.7-1.1-27.5-1.8-41.2-3.4c-12.3-1.4-24.9-0.2-36.9-4.8
	c-4.8-1.9-5.3-4.3-3.2-8.3c4.3-8.2,10.9-14.7,16.2-22.1c0.1-0.1,0.3-0.2,0.3-0.4c6.2-12.1,16.4-13.8,29.1-13.6
	C1658.7,1580.3,1715.1,1580,1771.6,1580z"/>
<path class="st0" d="M1771.1,1238c14.8,0,29.7,0.3,44.5-0.1c17.6-0.4,34.8,0.8,52,5.1c25.8,6.5,51.9,12,77.9,17.9
	c0.8,0.2,1.6,0.4,2.4,0.6c12,3.5,15,8.3,12.9,20.8c-0.5,3.1-1,6.2-1.5,9.3c-1,6.4-2.1,7.2-8.9,6.3c-10.9-1.5-21.5-4.2-32.3-6.6
	c-23.7-5.2-47.5-10.3-71.2-15.5c-2.8-0.5-5.6-0.8-8.4-0.7c-39.2,0-78.3,0.4-117.5-0.2c-16.7-0.2-32.7,2.1-48.9,5.8
	c-24.2,5.6-48.4,10.6-72.7,15.7c-4,0.8-8.3,0.9-12.4,1.3c-2.5,0.3-3.2-1.5-3.6-3.3c-1.7-8.5-2.1-17.2-1.2-25.8c0.3-2.9,2.5-4,5-4.9
	c9.7-3.6,20-5.2,30-7.5c25.1-5.8,50.3-11.3,75.5-17c3.7-0.9,7.5-1.3,11.4-1.3C1726.4,1238,1748.7,1238,1771.1,1238z"/>
<path class="st1" d="M1771.5,1668.8c11.7,0,23.3,0.4,35-0.1c23.4-1.1,46.9,1.3,69.6,7.2c21.4,5.5,43,9.9,64.6,14.9
	c4.2,1,8.3,2.6,12.5,3.5c8.9,1.9,8.9,7.2,7.5,13.9c-1.4,6.4-1.9,6.3-8.6,5.4c-34.8-4.5-68.4-14.8-102.8-21.7
	c-4.4-1-8.8-1.6-13.3-1.7c-39.2,0.1-78.3,0.3-117.5-0.1c-13,0-25.9,1.5-38.5,4.6c-26.5,6.2-53.1,12.1-79.7,17.9
	c-4.5,1-9.2,1.1-13.8,1.5c-1.6,0.3-3.1-0.7-3.5-2.2c-0.9-2.3-1.6-4.7-2.1-7.2c-0.7-5.6,1.4-8.4,7-10.1c21.8-6.6,44.2-10.7,66.4-15.8
	c14.1-3.3,28.2-6.2,42.3-9.5c2.3-0.5,4.6-0.7,6.9-0.6L1771.5,1668.8z"/>
<path class="st2" d="M209.8,1722c7.1,2.5,14.6,4.9,21.6,8.8c6.7,3.7,10.1,8.8,10.4,16.2c0.3,5.7,2.2,10,8.4,11.3
	c2.6,0.6,3.4,2.4,2.7,4.9c-3.3,13.2-5.9,26.6-7.7,40.2c-0.5,3.4-2.1,4.3-5.5,3.9c-20.5-2.4-41.1-2.4-61.6,0
	c-3.1,0.4-4.9-0.4-5.4-3.5c-2.1-13.7-4.7-27.2-7.8-40.7c-0.8-3.7,1.7-4.9,4.3-5.5c4.2-1.1,6.1-3.7,6.3-7.8c0-0.3,0.2-0.7,0.2-1
	c-0.6-13.1,8.9-17.9,18.7-22C199.3,1724.8,204,1722.5,209.8,1722z"/>
<path class="st3" d="M1554.1,1864c-0.3-16.5-0.9-32.9-1.3-49.4c-0.6-22.8-1-45.5-2.1-68.3c-0.6-14.3,0.2-28.6-1.4-42.8
	c-0.6-5.2,0.3-10.6,0.8-15.9c0.4-4,4.3-4.2,7.2-5.2c2.6-0.9,5-0.6,6.6,2c2.7,4.5,5.3,8.9,5.2,14.7c-0.6,17.3,0.7,34.6,1.1,51.9
	c0.5,23.3,0.9,46.5,2.1,69.8c0.7,14.4,0,28.9,1.4,43.3c1.2,11.5,0.4,23.3-0.7,34.9c-0.5,5.7-5.4,3.8-8.3,5.2s-4-1.1-5.1-3.2
	C1553.2,1889.3,1554.1,1876.6,1554.1,1864z"/>
<path class="st3" d="M1989,1708.6c-0.8,26.4-1.6,54-2.2,81.6c-0.5,22.6-1.4,45.2-2,67.8c-0.3,9.8-0.5,19.6-0.9,29.4
	c-0.3,5.8-3.4,10.9-6.3,15.5c-2.1,3.4-6.1,0.4-9.2,0c-2.7-0.4-3.4-2.4-3.3-4.8c0.3-8.5-0.4-16.9-0.1-25.4
	c0.6-19.8,0.4-39.6,1.2-59.4c1-23.6,1.1-47.2,2.2-70.8c0.8-15.9-0.3-31.9,1.7-47.8c0.7-4.5,2.8-8.6,6.1-11.7c3-3.1,10.9,0.5,11.9,5
	C1989.5,1694.5,1988.8,1701,1989,1708.6z"/>
<path class="st2" d="M110.4,1799.1c-16-0.3-27.2-4.4-35.3-15c-5.9-7.8-6.4-18.4-1.1-26.6c9.3-14,10.9-29.8,10.8-45.8
	c-0.1-4.7-2.8-9.1-3.4-14c-0.6-5.5,0-11,1.9-16.2c4.8-14.2,18.8-16.5,29.2-15.1c18.6,2.5,24.4,18.3,20.6,33.5
	c-3.5,13.7-2.5,26.6,0.2,39.8c1.1,5.3,2.7,10.4,5.8,14.8c12.4,17.2,3.1,34.3-14.1,41.3C119.4,1798.1,113.5,1799.3,110.4,1799.1z
	 M107.4,1789.1c5.2-0.1,10.4-1.2,15.2-3.2c12.1-5.1,15.8-16.7,8.1-25.6c-10.5-12.2-36-12.2-46.5,0c-5.8,6.7-5.4,14.2,0.9,20.5
	S99.3,1788.6,107.4,1789.1L107.4,1789.1z M107.5,1709h6c8.3,0,11.7-2.4,13.1-10.6c2-12-2.7-23.8-14.7-25.3c-15-2-23.6,5.1-23.7,20.1
	c-0.1,11.8,4.4,16.5,14.8,15.8C104.5,1708.9,106,1709,107.5,1709L107.5,1709z"/>
<path class="st2" d="M299.9,1695.4c0.4,10.8-4.4,18.5-14.1,23.1c-1.8,0.9-3.6,1.8-5.4,2.7c-7.1,3.5-7.1,3.5-12.1-2.6
	c-1.5-1.9-3.3-3.5-5.8-3.6c-6.8-0.3-13.5-1.6-20.4-1.2c-4.4,0.3-8.2,1.2-10.8,5c-2.8,4-5.7,3.5-9.2,0.7c-5.6-4.5-11.1-9-13.1-16.4
	c-3.3-12.2,0-22,10.1-29.8c0.9-0.7,2-1.3,2.8-2.1c3.4-3.2,6.5-3.3,9.6,0.6c5.8,7.2,14,4.6,21.4,4.6c2,0,4-0.7,5.9-0.6
	c4.4,0.4,8.7-1.9,10.8-5.8c1.7-2.9,3.7-3.3,6.6-2.2c5.6,2.1,11,4.4,15.7,8.4C298.1,1681.6,299.8,1688.1,299.9,1695.4z"/>
<path class="st2" d="M308,1872.8c0,14.1,0.7,11.4-12.6,11.4c-11.1-0.1-22.1,0.5-33.2,0.6c-7.1,0-14.2-0.1-21.3-0.7
	c-4.6-0.4-8.9,1.1-13.4,0.9c-7.6-0.3-8.4-0.9-8.4-8.2c0-2.7,0-5.3,0-8c0-7.6,0.7-8.3,8.1-8.3c23.4,0,46.9-0.1,70.3-0.1
	c2,0,4,0.6,5.9,0.5c3.5-0.1,4.8,1.5,4.6,4.9C307.9,1868.2,308,1870.5,308,1872.8z"/>
<path class="st2" d="M405.4,1884.7c-13.1,0-26.1,0-39.2,0c-9.7,0-19.5-0.4-29.2,0.2c-7.1,0.4-7.9-0.8-8-8c0-3,0-6,0-9
	c0-6.4,1.1-7.5,7.5-7.5c12.5,0,25.1-0.7,37.6,0c13.1,0.6,26.1-0.6,39.1,0.6c3.4,0.3,4.8,1.4,4.7,4.8c-0.1,4.7-0.1,9.3,0,14
	c0,3.9-1.8,5.7-5.6,4.8C410,1884,407.6,1885.2,405.4,1884.7z"/>
<path class="st2" d="M424,1787.1c0,6.7-0.1,13.3,0,20c0,3.1-0.5,4.4-4.2,4.2c-7.8-0.4-15.6-0.3-23.4-0.1c-3.9,0.1-5.5-1.1-5.5-5
	c0.1-13.2,0.1-26.3,0-39.4c0-3.9,1.9-5.4,5.4-5.7c7.6-0.7,15.2-0.7,22.8-0.1c3.6,0.3,4.9,2.2,4.8,5.6
	C423.9,1773.5,424,1780.3,424,1787.1L424,1787.1z"/>
<path class="st2" d="M283,1777.1c0-8.2,0.1-16.3-0.1-24.5c-0.1-4,1.2-5.8,5.5-5.6c5,0.2,10,0.1,15,0c3.1-0.1,4.6,1.2,4.6,4.4
	c-0.1,17-0.1,34,0,51c0,3.1-1.2,4.6-4.4,4.6c-5.3-0.1-10.7-0.1-16,0c-3.5,0.1-4.6-1.6-4.6-4.9C283,1793.8,282.9,1785.4,283,1777.1
	L283,1777.1z"/>
<path class="st2" d="M278,1776.5c0,7.8-0.1,15.7,0,23.5c0.1,3.6-1.3,5.2-5,5c-4.2-0.2-8.3-0.1-12.5,0c-3.1,0.1-4.6-1.2-4.5-4.4
	c0.1-16,0.1-32,0-48c0-3.1,1.3-4.6,4.4-4.5c4.2,0.1,8.3,0.1,12.5,0c3.6-0.1,5.1,1.4,5,5C277.8,1760.8,277.9,1768.7,278,1776.5
	L278,1776.5z"/>
<path class="st2" d="M455.6,1754c4.5,0,9,0.2,13.5-0.1c4.2-0.2,6.2,1.2,5.9,5.7c-0.3,5-0.3,10,0,15c0.2,4-1.6,5.8-5.2,6.6
	c-7.1,1.5-14.3,1.2-21.4,0.5c-12.5-1.3-12.5-1.6-12.4-14.3c0.1-15.5-2-13.1,13.1-13.3C451.3,1754,453.5,1754,455.6,1754z"/>
<path class="st2" d="M455.1,1784c4.5,0,9,0.1,13.5,0c3.8-0.1,5.5,1.4,5.4,5.3c-0.1,5.3-0.1,10.7,0,16c0.1,3.4-1.3,5.6-4.6,6
	c-9.6,1.2-19.2,1.2-28.8,0c-3.3-0.4-4.8-2.5-4.7-5.9c0.2-5.5,0.2-11,0-16.5c-0.1-3.7,1.6-5,5.1-4.9
	C445.8,1784.1,450.4,1784,455.1,1784z"/>
<path class="st2" d="M111.1,1858.9c0-8,0.1-16,0-24c0-3.3,1.2-5,4.7-4.9c1.6,0,3.3-0.4,4.9-0.6c0.9-0.1,1.9,0,2.8,0.2
	c0.5,4.5,6.3,5.9,6.4,10.2c0.3,13.3,1.1,26.6-3.7,39.5c-2.2,6-5,8.4-11.3,8.5c-3.3,0.1-3.8-1.9-3.8-4.5
	C111.1,1875.2,111.1,1867,111.1,1858.9L111.1,1858.9z"/>
<path class="st2" d="M93,1858.9c0,7.3,0.1,14.6-0.1,22c0,2.4,1.4,6.2-2.3,6.7c-3.4,0.5-7.7,0.5-9.8-3.2c-4.7-7.7-6.9-16.7-6.3-25.7
	c0.4-5.3,0.8-10.6,0-15.9c-0.3-1.7-0.8-3.9,1.2-4.3c5.3-1.2,1.6-7.2,4.9-8.7s6.8,0.3,10.3,0.6c2.3,0.3,2.1,2.7,2.1,4.5
	C92.9,1843,92.9,1851,93,1858.9L93,1858.9z"/>
<path class="st2" d="M454.4,1724c-4.8,0-9.7-0.1-14.5,0c-3.3,0.1-5-1-4.9-4.6c0.1-4.7,0.1-9.3,0-14c-0.1-3.2,1.5-4.4,4.6-4.4
	c10,0.1,20,0.1,30,0c3.2,0,4.5,1.5,4.4,4.6c-0.1,4.7-0.1,9.3,0,14c0.1,3.2-1.5,4.4-4.6,4.4C464.4,1723.9,459.4,1724,454.4,1724z"/>
<path class="st2" d="M454.5,1751c-5,0-10-0.1-15,0c-3.2,0.1-4.5-1.3-4.5-4.5c0.1-4.7,0.1-9.3,0-14c-0.1-3.2,1.4-4.5,4.5-4.5
	c10,0.1,20,0.1,30,0c3.2,0,4.5,1.3,4.5,4.5c-0.1,4.7-0.1,9.3,0,14c0.1,3.2-1.3,4.5-4.5,4.5C464.5,1750.9,459.5,1751,454.5,1751z"/>
<path class="st2" d="M345,1786.3c0,7-0.1,14,0,20.9c0,3.4-1.3,4.7-4.7,4.8c-11.3,0.5-11.3,0.6-11.3-10.7s0.1-22.3-0.1-33.4
	c-0.1-4.4,1.2-6.4,6-7.1c11.8-1.8,9.9,0,10,9C345,1775.4,345,1780.8,345,1786.3z"/>
<path class="st2" d="M360,1785.7c0-6.8,0.1-13.6,0-20.4c-0.1-3.5,0.6-4.7,4.8-4.6c12.1,0.3,10.1,2.2,10.2,11.5
	c0,11.4,1.5,22.8,1.1,34.3c-0.1,4-1.4,5.6-5.5,5.6c-10.6,0.1-10.6,0.2-10.6-10.4c0-2.7,0-5.3,0-8V1785.7z"/>
<path class="st2" d="M172,1861c0,7.8,0,15.7,0,23.5c0,2.3,0.5,5-3,5.3c-3,0.3-5.2-0.8-5.9-4c-1.9-8.1-4.4-16.1-4-24.6
	s-1.3-17.3,1.9-25.7c0.7-2,0.1-4.7,3.6-3.9c3,0.7,7.6-1,7.5,4.8C171.9,1844.7,172,1852.8,172,1861L172,1861z"/>
<path class="st2" d="M133,1866.2c-1-9,1.4-19.7,1-30.5c-0.2-4.9,3.2-4.4,6.4-4.8c3.8-0.5,2.9,2.2,3.7,4.3c3.5,9.5,1.5,19.4,2.3,29.1
	c0.6,7.5-2.2,15-4.6,22.3c-0.9,2.8-3.6,2.6-5.9,2.4c-2.8-0.2-2.9-2.3-2.9-4.4C133,1878.9,133,1873.5,133,1866.2z"/>
<path class="st2" d="M97.1,1860.1c0-8.2,0-16.3,0-24.5c0-2.7-0.2-5.6,3.9-5.5c3.5,0.1,5.1,1.8,5,5.3c-0.3,12.1,1.7,24.2,1,36.4
	c-0.3,4.8,0,9.7,1,14.4c0.3,1.4,0,2.9-1.8,2.9c-2.5,0.1-1.3-1.6-1.2-2.8c0.1-0.7,0.1-1.3-0.1-2c-0.3-1.9-1.1-3.8-3.2-3.8
	c-2.4,0.1-2.4,2.3-2.7,4.1c-0.3,1.5,2,4.4-0.9,4.3s-1.3-3.1-1.3-4.9v-24L97.1,1860.1z"/>
<path class="st2" d="M376.5,1755c-4.8,0-9.6-0.1-14.5,0c-3.6,0.1-5.3-1.3-5.1-5c0.1-1.7,0.1-3.3,0-5c0-2.7,1.2-4,3.9-4
	c10.3,0,20.6,0,31,0c1.7,0,3.6,0,3.7,2.3s-1.8,2.4-3.5,2.5c-1.5,0.1-3,0-4.5,0.1c-1.3,0.1-2.9,0.1-3,1.9s1.5,1.9,2.8,2
	c1.8,0.2,3.7,0.1,5.5,0.4c1.3,0.2,2.7,0.9,2.6,2.6s-1.6,2-3,2c-5.3,0-10.6,0-16,0L376.5,1755z"/>
<path class="st2" d="M357,1786.3c0,6.6-0.1,13.3,0,19.9c0,3.3-1.2,4.9-4.7,4.8c-3.3,0-4.4-1.5-4.4-4.6c0.1-13.6,0.1-27.2,0-40.8
	c0-3.1,1.1-4.5,4.4-4.6c3.5,0,4.7,1.6,4.6,4.9C356.9,1772.7,357,1779.5,357,1786.3L357,1786.3z"/>
<path class="st2" d="M431.9,1744.5c-1.1,2.1-3.2,1.2-4.9,1.6c-1.2,0.2-2.4,0.4-2.5,1.9s1.2,1.7,2.3,2.1c1.7,0.5,5-0.8,4.7,1.9
	c-0.2,2-3.4,1-5.3,1.1c-6.6,0.1-13.3,0.1-20,0c-1.8,0-3.6,0-5.3-1s-3.1-2.4-3-4.7s2-2.4,3.3-3.2c1-0.6,2.1-0.9,3.3-0.9
	c8.3-0.1,16.6,0,25,0C430.5,1743.1,431.6,1743.1,431.9,1744.5z"/>
<path class="st2" d="M259.9,1845c0,1.7,0,3.3,0,5c-0.1,2.6-1.5,4-4.1,3.8c-3.3-0.2-6.6,0.1-9.9,0.9c-2.4,0.5-4-0.5-4.3-2.9
	s1.3-3.2,3.3-3.6c1.3-0.2,2.7-0.1,4-0.3c2.3-0.3,3.7-1.9,3.5-4.1c-0.2-2.4-2.2-3.2-4.4-3s-4.5,2.1-6.3-0.7c-0.8-1.1-0.8-2.7,0.1-3.8
	c2-2.4,4.6-2.2,7.3-1.5c0.7,0.1,1.3,0.2,2,0.3C260,1836.3,260,1836.4,259.9,1845z"/>
<path class="st2" d="M373.9,1844.5c0.6-2.7-1.3-6.5,1.8-7.8c4.4-2,9.3-2.6,14-1.7c1.9,0.5,3,2.4,2.7,4.3c-0.3,2.2-2.3,1.9-4,1.9
	c-0.7,0-1.3-0.1-2-0.1c-1.7,0-3.5-0.2-4.1,1.9c-0.5,1.4-0.3,3,0.7,4.3c0.9,1.5,2.9,1.9,4.3,1c0,0,0,0,0.1,0c1.4-0.7,2.8-1.4,4,0.1
	c0.8,1.1,1.1,2.5,0.7,3.8c-0.5,1.7-2.2,2.7-3.9,2.4c-4-0.3-8-0.6-11.8-1.7C372.2,1851.3,374.8,1847.2,373.9,1844.5z"/>
<path class="st2" d="M277.2,1841c-1.4,0.1-3.7-0.7-4.8,1.7c-0.8,1.5-0.6,3.4,0.5,4.7c1.5,1.8,3.4,1.7,5.4,0.5c2.3-1.3,3.7-0.6,4.4,2
	c0.8,3-1.3,4.4-3.3,4.4c-4.5-0.1-8.9-1-13.3-1.6c-0.3,0-0.6-0.2-0.9-0.4c-2.8-4.3,0.4-8.7,0-13.1c-0.2-2.3,1.6-3.2,3.5-3.5
	c3-0.5,5.9-0.9,8.9-1.1c2.8-0.2,5.3,0.9,5.4,3.8C283,1842,280,1841.1,277.2,1841z"/>
<path class="st2" d="M369,1845.4c0,1.3,0,2.7,0,4c0,0.7-0.1,1.3-0.1,2c-0.2,1.8-1.5,2.8-3.1,2.4c-4.5-1.2-9.6,3.1-13.5-0.9
	c-1.7-1.7-0.8-4.2,2.2-4.7c0.6-0.1,1.3,0.1,2,0.1c2.7-0.3,6.3,0.1,5.8-4.2c-0.4-4-3.5-3.1-6.1-2.7s-5-0.2-5.1-3.2s2.4-4.1,4.8-3.9
	c3.6,0.4,7.2,1,10.8,1.8c1.8,0.3,2.4,1.6,2.4,3.3C368.9,1841.5,368.9,1843.5,369,1845.4L369,1845.4z"/>
<path class="st2" d="M459.7,1692c-6.5,0-7.6-0.9-7.6-7.4c-0.1-4.3-0.4-8.6-0.9-12.9c-0.2-2.1-0.2-4.9,2.8-4.9c2.7,0,1.7,2.7,2,4.3
	c0.8,4.7,1.2,9.6,1.1,14.4c0,1.9,0.2,4,2.6,4.1c2.7,0.1,3.2-2.1,3.2-4.2c0-5.3,0.4-10.6,1.2-15.9c0.2-1.3,0.1-2.9,2-2.9
	c1.4,0,2.6,1.1,2.7,2.5c0,0.2,0,0.3,0,0.5c-0.9,6.6-0.1,13.3-1.9,19.8C466.1,1692,465.6,1692,459.7,1692z"/>
<path class="st2" d="M156,1863c0,6.5,0,13,0,19.5c0,1.8,0.2,4.1-2.4,4.1s-2.5-2.3-2.5-4.1c0-13.4,0-26.9,0.1-40.3
	c0-1.7,0.3-3.7,2.4-3.7c2.7-0.1,2.4,2.3,2.4,4C156,1849.4,156,1856.2,156,1863z"/>
<path class="st2" d="M446.1,1683.3c0-2.8,0-5.7,0-8.5c0-1.1-0.1-2.8,1.4-2.8s1.4,1.6,1.5,2.7c0.1,5,0.2,10,0,15
	c-0.1,4.2,1.6,6,5.7,5.1c3.3-0.7,6.6-0.7,9.9,0c4.6,0.8,6.4-0.8,6.5-5.6s0-9.6,0.1-14.5c0-1.1-0.1-2.7,1.5-2.7s1.4,1.7,1.4,2.8
	c0,5.8,0,11.6,0,17.5c0,2.8-1.5,4.3-4.1,4.8c-6.5,1.4-13.2,1.4-19.8,0c-2.8-0.6-4.2-2.4-4.1-5.3
	C446.2,1689,446.1,1686.1,446.1,1683.3L446.1,1683.3z"/>
<path class="st2" d="M385,1786.5c0-6.8,0-13.6,0-20.4c0-1.2-0.4-3.1,1.6-3c1.5,0,1.3,1.8,1.3,2.8c0,14.1,0,28.2,0,42.3
	c0,1.1,0.1,2.8-1.4,2.8c-1.9,0-1.5-1.9-1.5-3.1C384.9,1800.8,385,1793.7,385,1786.5L385,1786.5z"/>
<path class="st2" d="M379,1786.8c0-6.8,0-13.6,0-20.4c0-1.3-0.4-3.2,1.3-3.3c1.9-0.1,1.5,1.9,1.5,3.1c0,14,0,27.9,0,41.8
	c0,1.2,0.3,3.2-1.6,3c-1.7-0.1-1.3-2.1-1.3-3.3C378.9,1800.6,379,1793.6,379,1786.8L379,1786.8z"/>
<path class="st2" d="M431.9,1772.6c0,3,0,6,0,9c0,1.6-0.5,3.1-2.5,3.1c-1.7,0-2.3-1.3-2.3-2.7c-0.1-6.3-0.1-12.6,0-18.9
	c0-1.5,0.7-2.6,2.4-2.6s2.3,1.3,2.3,2.7C431.9,1766.3,431.9,1769.4,431.9,1772.6L431.9,1772.6z"/>
<path class="st2" d="M427.1,1799.3c0-3,0-6,0-9c0-1.4,0.5-2.7,2.1-2.9c2-0.1,2.6,1.3,2.6,2.9c0.1,6.2,0.1,12.3,0,18.5
	c0,1.4-0.5,2.7-2.2,2.8c-2,0.1-2.6-1.3-2.6-2.9C427,1805.6,427,1802.4,427.1,1799.3L427.1,1799.3z"/>
<path class="st2" d="M351,1736c-5,0-10,0-15,0c-1.5,0-3.1,0-3.8-1.7c-0.5-0.7-0.4-1.7,0.2-2.3c0.5-0.5,1.3-0.6,1.8-0.1l0,0
	c2.9,3.4,6.8,2,10.3,2.1c5.6,0.2,11.3,0.1,17,0c2,0,4,0.3,5.5-1.6c0.5-0.9,1.7-1.2,2.6-0.6c0,0,0,0,0.1,0c0.7,0.5,1.1,1.3,0.9,2.2
	c-0.3,1.4-1.4,1.8-2.6,1.8c-5,0.1-10,0.1-15,0.1L351,1736L351,1736z"/>
<path class="st2" d="M396.4,1736c-5,0-10,0-15,0c-1.3,0-2.7,0.1-3.7-1.1c-0.6-0.6-0.7-1.6-0.3-2.3c0.4-0.9,1.3-1.3,2-0.6
	c3.7,3.4,8.3,2.2,12.4,1.9c7.1-0.4,14.6,2.2,21.4-2c1.1-0.7,2,0.1,2.2,1.2c0.4,2-1,2.7-2.6,2.7C407.4,1736,401.8,1735.9,396.4,1736
	L396.4,1736z"/>
<path class="st2" d="M344,1747.6c0-0.3,0-0.7,0-1c0.5-2-1.6-5.9,1.6-5.7s-0.5,3.4,0.3,5.2c0.3,0.7,0,1.7,0.1,2.5
	c0.3,1.8,0.5,4,2.9,3.9s1.9-2.3,2-3.9s-0.1-3-0.2-4.5c0-1.2-1.1-3,1.2-3c1.7,0,1.8,1.7,1.9,3c0.3,3-0.6,5.9-1,8.9s-2.6,2.9-4.9,2.9
	s-3.9-0.8-4-3.4C344,1750.9,344,1749.2,344,1747.6L344,1747.6z"/>
<ellipse class="st4" cx="317.4" cy="1938.2" rx="73.5" ry="17.4"/>
<ellipse class="st4" cx="130.1" cy="1938.2" rx="73.5" ry="17.4"/>
<rect x="218.4" y="90" class="st0" width="1794.6" height="26.3"/>
<rect x="31.1" y="52" class="st0" width="1794.5" height="25.9"/>
<rect x="31.1" y="50.8" class="st5" width="1794.5" height="2.5"/>
<rect x="101.4" y="90" class="st5" width="2028.7" height="1.3"/>
<rect x="34" y="90" class="st1" width="184.4" height="19"/>
<rect x="1825.6" y="52" class="st1" width="184.4" height="17.9"/>
</svg>
