<svg version="1.1" id="Layer_1" xmlns="http://www.w3.org/2000/svg" 
	 viewBox="0 0 2048 2048" width="2048" height="2048">
<style type="text/css">
	.st0{fill:#F0F0F0;}
</style>
<path d="M422.3,2050c-1.5-0.4-3.1-1.1-4.6-1.2c-17.8-1.5-35.7-2.9-53.5-4.4c-19.7-1.7-39.5-3.6-59.2-5.1
	c-18.2-1.3-36.3-3.4-54.3-6.3c-32-5.1-63.2-12.9-92.9-26.4c-30.6-13.9-56.6-33.5-77.2-60.1c-3.5-4.5-6.8-9.3-10.4-13.8
	c-9-11.6-14.6-24.7-18.3-38.8c-5.2-20.3-7.5-40.9-6-61.8c0.9-13.5,4-26.5,8.1-39.4c2.4-7.6,4.8-15.3,6.5-23.1
	c1.8-8.6,1.3-17.2-3-25.2c-4-7.3-7.8-14.7-11.7-22c-9.2-16.9-17.5-34.1-24-52.3c-3.7-10.3-6.4-20.8-8.3-31.5
	c-1.4-8.2-3-16.4-5.4-24.3c-2.1-6.8-3-13.7-2.9-20.8c0.2-20.5,0.1-40.9,0-61.4c0-6.4,0.7-12.7,2.1-19c2-8.4,3.4-16.9,5.4-25.3
	c4.7-19.4,12.3-37.7,23.9-54.1c2-2.9,3.7-6,5.3-9.1c3.8-7.4,4.8-15.2,3-23.3c-1.9-8.1-2.6-16.4-3.1-24.7c-1.2-20.7-2.4-41.5-4-62.2
	c-1-12.7-2.9-25.4-4.3-38.1c-1.2-10.8-2.1-21.6-3.2-32.4c-0.6-6-1.3-12.1-1.7-18.1c-0.2-2.5-0.1-5.1,0.3-7.6c0.5-3,4.2-4.6,6.8-3
	c1.6,1,3,2.3,4.4,3.7c21.5,21.5,43,43,64.4,64.6c4.5,4.5,8.5,9.5,12.8,14.3c3.1,3.5,6,2.9,7.7-1.7c1.9-5.1,0.2-9.5-3-13.4
	c-3.9-4.7-7.8-9.3-12-13.7c-16.2-17.2-31.1-35.7-47.8-52.5c-1.3-1.3-2.6-2.9-3.6-4.5c-2-3.4-0.2-7.4,3.7-8.1
	c1.8-0.3,3.8-0.1,5.7,0.2c19.6,3.2,39.1,6.5,58.7,9.7c2.2,0.4,4.4,0.7,6.7,0.8c4.3,0.1,5.6-0.9,6.8-5.2c2.6-9.9,5-19.8,7.6-29.7
	c2.1-8.2,2.5-16.4,1.2-24.7c-0.6-3.6-0.4-7,0.2-10.5c3.9-24.6,14.1-46.4,30-65.5c24.2-29,54.5-49.1,90.4-60.5
	c3.6-1.1,7.2-2.3,12.8-4.2c-8.5-1.5-14.9-2-21.4-2c-35.5-0.2-71,0-106.5-0.8c-30.4-0.7-60.7-1.2-91.1-2.1
	c-12.5-0.4-24.9-0.8-37.4-1.1c-11.3-0.3-14.4-3.1-14.2-14.3c0.2-17.6-0.1-35.1,0.9-52.7c0.9-15.9,1.1-32-0.5-47.9
	c-0.3-3.5-0.3-7-0.3-10.5c-0.3-52.5,0.2-104.9-1.1-157.4c-0.9-38.7-0.8-77.4-1.1-116.1c-0.1-12.5-0.4-25,0.4-37.4
	c1.3-19.5,1.1-39,1.5-58.5c0.3-10.9,0.1-21.7,0.1-32.6c0-17.3-2.2-34.5-5.1-51.5c-0.8-4.8-1.2-9.5-1.2-14.3
	c0-17.9,0.2-35.8-0.1-53.7c-0.1-9.4,1.5-18.5,3.1-27.6c7.1-40,17-79.4,28.3-118.4c7.5-25.8,15.2-51.5,22.6-77.4
	c5.3-18.5,8.6-37.4,11.5-56.4c1.3-8.5,2.4-17.1,3.7-25.6c0.3-1.9,0.7-3.8,1.4-5.5c1-2.5,3.1-4.1,5.9-4.3c1.9-0.2,3.8-0.1,5.7-0.1
	c13.8,0.6,27.4-0.2,41.2-1.4c19.4-1.8,38.9-2.4,58.4-2.3c33.9,0.1,67.8,0.4,101.7-0.7c67.2-2.1,134.3-0.7,201.5-1.1
	c14-0.1,16.2,2.1,16.4,16.1c0.2,22.4,0.2,44.8,0.2,67.2c0.1,97.2,0.1,194.5,0.1,291.7c0,14.1,0.3,28.2-0.3,42.2
	c-1.9,39-0.5,78-2,117c-1.8,46.4-1,92.7-1.3,139.1c-0.5,74.2-0.2,148.4-0.5,222.6c-0.1,21.7-1.1,43.5-1.7,65.2
	c-0.1,2.5-0.4,5.1-0.9,7.6c-0.9,4.2-3.7,6.6-8,7.1c-2.2,0.2-4.5,0.1-6.7,0.1c-32.9-0.3-65.9-0.6-98.8-0.8c-1.3,0-2.5,0.1-5,0.2
	c3.1,2.3,5.8,2.4,8.2,2.9c35.2,7.8,68.6,20.3,100.5,37.2c24.4,12.9,47.2,28.2,68.6,45.6c9.7,7.9,18.2,17.1,24.5,28
	c3.9,6.6,8.9,11.6,16.5,13.7c7.5,2.1,12.6,7.3,16.5,13.9c4.9,8.4,7.9,17.4,9.9,26.9c1,5,2.1,10,3.2,15c2.5,11.4,9,19.7,19.6,24.5
	c33.3,15.2,64,34.9,95.4,53.5c43.3,25.5,86.6,50.9,129.8,76.4c2.2,1.3,4.5,2.6,6.4,4.2c3.7,3,2.9,7.5-1.5,9
	c-1.8,0.6-3.7,0.8-5.6,1.1c-28.4,4.5-56.9,8.9-85.3,13.3c-29.7,4.7-59.4,9.4-89.1,14.1c-6.6,1-13.3,1.9-19.9,3
	c-9.9,1.6-11.8,4.3-10.2,14.4c3.1,18.6,6,37.2,9.3,55.8c1.8,10.2,1.9,20.3,1.5,30.6c-0.1,2.9-0.4,5.7-0.5,8.6
	c-0.2,5.3,1,10.2,4.4,14.4c6.9,8.5,12.2,18,18.1,27.1c10.8,16.7,23.3,32.1,36.8,46.7c13,14.1,26.4,27.8,39.7,41.7
	c2,2.1,4.1,4.1,5.7,6.5c2.5,3.6,0.4,8-4,8.5c-1.2,0.1-2.5,0-3.8-0.1c-14.6-1.8-29.2-3.7-43.8-5.6c-14.3-1.9-28.6-3.2-43-3.8
	c-2.8-0.1-5.8,0.3-8.6,0.8c-4.8,1-6.5,3.3-5.8,8.2c0.8,5.4,1.8,10.7,2.7,16.1c2,11.7,2.1,23.6,2.1,35.4c0,4.2,0.2,8.3-0.1,12.5
	c-0.4,7,2.2,12.5,7.4,16.9c6.3,5.4,12.6,10.8,19,16.2c31.1,26.1,62.2,52.3,93.3,78.4c24.7,20.8,49.4,41.7,74.1,62.4
	c2.3,1.9,4.6,5.7,7.9,3.8c2.6-1.4,1.3-5.3,1.3-8.1c-0.2-25.3-0.2-50.5-0.8-75.8c-1.8-75.1-1.6-150.3-1.1-225.5
	c0.1-24.3,2-48.5,3.1-72.8c0-1,0.1-1.9,0.1-2.9c0.2-29.7,1.8-59.4,2.7-89.2c1.2-41.6,0.8-83.2,2-124.7c1.7-58.2,0.4-116.4,1.7-174.6
	c0.2-10.5,1.1-21.1,1.4-31.6c0.3-12.5,0.5-25,0.2-37.4c-0.3-13.3,1.2-26.2,6.7-38.4c1.3-2.9,0.7-3.7-2.5-4.7
	c-10.9-3.1-12.2-4.7-12.2-16c-0.1-27.2,0.6-54.4-0.2-81.6c-1-34.5-0.5-69.1-2-103.6c-2.1-49.3-2.2-98.5-0.7-147.7
	c1.1-37.4,0.5-74.8,1.7-112.2c0.3-10.2,0.9-20.4,1.4-30.7c0.1-1.3,0.2-2.6,0.4-3.8c0.9-4.2,3.5-6.8,7.8-7.4c2.5-0.3,5.1-0.2,7.7-0.2
	c13.4,0.1,26.8-0.2,40.2-1.3c13-1,26.2-0.5,39.3-0.7c1,0,1.9,0,2.9,0.2c7.1,0.9,10.3,3.6,11.8,10.5c0.8,3.4,1.3,6.9,1.9,10.4
	c0.6,3.6,2.8,5.7,6.2,6.5c2.8,0.7,5.7,0.9,8.4,1.7c6,1.7,8.5,4.8,8.7,11c0.7,17.6,2,35.1,1.2,52.7c-0.4,8.9-0.7,17.9-1.1,26.8
	c-0.1,1.9-0.1,3.8,0,5.8c0.1,1.8-0.4,4,1.7,5.1c1.6,0.9,4.9-0.6,6.6-2.8c1.7-2.1,1.9-4.7,2.2-7.2c1.2-10.8,1.8-21.7,1.7-32.6
	c-0.1-6.7,0.1-13.4,0-20.2c0-4.4,0.9-8.3,4.9-10.8c4-2.5,4.9-6.4,4.9-10.8c0-4.5-0.1-9,1.3-13.3c1.1-3.4,3.3-5.2,6-5.2
	c3.2,0,5.8,2.3,6.3,6.1c0.5,3.5,0.5,7,0.5,10.5c0,3.7,0.8,6.9,4.1,9.1c4.4,3,5.4,7.4,5.7,12.5c2.4,38.4,1.5,76.7,0.9,115.1
	c-0.2,16.3-0.8,32.6-0.9,48.9c0,2.5,0.1,5.1,0.4,7.6c0.2,1.7,1.3,2.9,3.2,3.1c1.3,0.1,2.6-0.5,3.2-1.7c1.2-2.3,2-4.7,3.2-6.9
	c2.1-3.8,5.8-4.9,9.9-3.2c0.9,0.4,1.8,0.8,2.5,1.4c4.4,3.9,9.4,5.2,15.1,4.2c0.9-0.2,1.9,0,2.9,0.1c11.7,1.2,18,7.3,18.9,19.1
	c0.5,7,0.2,14.1,0.2,21.1c0,2.6,0,5.1,0.1,7.7c0.2,4.4,2.2,7.9,6.1,10.2c1.4,0.8,2.8,1.6,4.1,2.5c1.8,1.3,2.5,3.9,5,4.2
	c2.6,0.3,3.7-2.1,5.4-3.5c3.3-2.7,7-3.1,10.7-1.2c5.2,2.7,10.6,4.2,16.4,4.7c5.8,0.5,8.3,3.4,9.1,9.4c0.4,3.2,0.2,6.4,0.2,9.6
	c0.1,6.7-0.1,13.4,0.3,20.1c0.2,4.5,2.1,6.6,6.5,6.8c10.9,0.6,21.7,0.7,32.6-0.1c3.9-0.3,5.5-2.2,5.9-6.3c0.3-2.9,0.3-5.7,0.3-8.6
	c0.1-16.3,0.1-32.6,0.2-48.9c0-3.5-0.1-7,1.1-10.4c1.3-3.5,3.7-5.5,7-5.6c3.7-0.1,7.2,1.8,8.3,5.3c0.8,2.4,1.1,5,1.2,7.5
	c0.2,5.4,0.1,10.9,0.1,16.3c0,2.2,0,4.5,0.3,6.7c0.5,3.3,2.3,5.1,5.6,5.6c2.5,0.4,5.1,0.2,7.6,0.5c4.2,0.5,6.9,3,8.1,7.1
	c1.3,4.7,1.2,9.5,0.8,14.3c-1.3,15-1.3,30,0,45c0.6,7,0.6,14.1-2.7,20.6c-1.1,2.1-0.5,4,1.7,4.7c10,3.3,12.6,11.1,12.7,20.3
	c0.1,17.3,0.4,34.6-0.1,51.8c-0.3,12.6-3.1,14.7-16,14.7c-5.4,0-10.9,0-16.3-0.1c-2.2,0-4.5-0.2-6.7-0.5c-5.7-0.9-9.2-4.2-10.4-9.8
	c-0.9-4.4-1.5-8.8-2.3-13.2c-0.3-1.9-0.7-3.8-1.6-5.4c-2.1-3.8-7.3-3.5-9.4,0.2c-1.5,2.6-1.5,5.5-1.5,8.4c0,8.3,0,16.6-0.1,25
	c0,2.6,0,5.1-0.4,7.7c-0.6,4.1-2.7,6.3-6.8,6.9c-3.5,0.5-7,0.5-10.5,0.5c-19.5,0-39,0-58.5,0.9c7.1,0,14.2-0.2,21.3,0
	c30.7,0.8,61.4,1.2,92,2.7c16.6,0.8,33.3,0.7,49.8,1.8c17.9,1.2,35.8,0.8,53.7,2c17.3,1.2,34.5,1.1,51.8,1.8c7,0.3,14.1,0.8,21,1.5
	c13.6,1.4,21.5,9.5,22.5,23.1c0.3,4.5,0.2,9,0.1,13.4c-0.2,14.1,0,28.2-0.6,42.2c-2.7,60.8-0.7,121.5-1.2,182.3c0,1,0,1.9,0.7,2.9
	c0.1-3.1,0.1-6.1,0.2-9.2c0.8-31.3,1.1-62.7,2.7-94c1.8-34.5,1.2-69.1,1.8-103.6c0.2-10.9,0.6-21.7,0.1-32.6
	c-0.2-5.4,0.6-10.8,1-16.2c0.4-5.6,2.3-10.7,6.2-14.7c2.9-3,3.9-6.5,3.8-10.5c-0.3-12.5,0.3-25-1.2-37.4c-0.2-1.6-0.3-3.2-0.4-4.8
	c-0.8-16.6-1.5-33.2-2.6-49.8c-0.7-12.1-2-24.2-2.9-36.3c-0.7-9.2-1.5-18.5-2.2-27.7c-0.9-12.8-1.6-25.5-2.5-38.3
	c-0.9-13.4-2-26.8-3-40.2c-0.1-1-0.2-1.9-0.2-2.9c-0.8-18.8-1.5-37.7-2.5-56.5c-3.2-60.7-1.2-121.5-2.2-182.3
	c-0.5-25.9-1.2-51.8-0.9-77.7c0.3-30.1,0.9-60.1,1.9-90.1c0.7-21.7,2.1-43.4,3.7-65.1c1.9-24.2,4.6-48.4,6.8-72.6
	c1.7-19.1,3.1-38.2,4.5-57.4c1.1-15,2.4-30,3.1-45c0.6-12.5,0.7-24.9,0.7-37.4c0.1-21.4-0.1-42.9-0.1-64.3c0-12.6,0.4-12.9,12.9-13
	c10.6,0,21.1,0,31.7,0c2.2,0,4.5,0,6.7,0.2c4,0.4,5.6,1.9,6.2,6c0.3,1.9,0.4,3.8,0.4,5.7c0,24.9,0.3,49.9-0.3,74.8
	c-0.6,23-2.1,46-3.6,68.9c-1.3,19.4-3.3,38.9-4.9,58.3c-1.5,18.2-3,36.3-4.5,54.5c-1.7,21.7-3.4,43.3-5.1,65
	c-0.1,1.6-0.2,3.2-0.2,4.8c-0.6,33.9-2.3,67.7-2,101.7c0.4,53.1-0.1,106.2,0.3,159.3c0.2,31.3,0.9,62.7,1.9,94
	c0.8,24.6,2.2,49.2,3.8,73.7c1.3,20.1,3.3,40.1,4.9,60.2c1,12.4,1.6,24.9,2.5,37.3c0.9,13.1,2,26.1,3,39.2c0.1,1,0.2,1.9,0.3,2.9
	c0.7,13.1,1.6,26.2,2.2,39.3c0.7,15.3,1.3,30.7,1.9,46c0.1,1.6,0.2,3.2,0.6,4.7c0.4,1.7,1.5,2.9,3.4,2.7c1.4-0.1,2.4-1.1,2.6-2.4
	c0.4-2.5,0.6-5.1,0.6-7.6c0.1-15.4,0.3-30.7,0.3-46.1c0-14.4-0.4-28.8-0.2-43.2c0.3-25-1.5-49.9-2.6-74.8c-0.9-22-3.3-44-4.8-66
	c-1-13.7-1.7-27.4-2.4-41.2c-1.1-22-2.2-44.1-3.1-66.1c-0.4-9.3-0.4-18.5-0.4-27.8c0-25.9-0.6-51.8,0.4-77.7
	c1.4-37.7,0.5-75.5,1.9-113.2c0.7-18.9,0.6-37.7,1.9-56.6c1-15,0.5-30.1,1.8-45c1.8-20.1,0.6-40.3,2.9-60.3c0.1-1.3,0.1-2.6,0.2-3.8
	c0.7-39.6,2-79.3,2.9-118.9c1.1-44.1,0.6-88.3,1.4-132.4c0-0.6,0-1.3,0-1.9c0.3-12.8,1.7-14.3,14.5-14.2c9.6,0.1,19.2,0.4,28.8,0.6
	c1.3,0,2.6,0.1,3.8,0.3c8.8,1.1,11,3.3,10.9,12.5c-0.1,24.3,0.4,48.7-0.7,72.9c-1.5,33.3-0.3,66.5-1.7,99.8
	c-1.1,26.2-0.8,52.5-2.1,78.6c-0.8,16-0.4,32-1.8,47.9c-1.8,20.7-0.5,41.6-2.9,62.3c-0.1,0.9-0.1,1.9-0.1,2.9
	c-1,46.4-2.8,92.7-2.8,139.1c0,19.5-1.7,39-1.6,58.5c0.2,29.1-0.1,58.2,0.5,87.3c0.4,18.5,1.9,37,3,55.5c0.6,10.5,0.8,21.1,1.8,31.6
	c1.4,14.6,1.7,29.4,2.6,44c1,15.3,2.1,30.6,3.1,45.9c0.1,1.3,0.2,2.6,0.3,3.8c1.9,36.7,2.8,73.5,2.3,110.3
	c-0.1,11.2-0.1,22.4-0.2,33.6c0,2.2,0,4.5,0.3,6.7c0.5,3.9,2.6,5.8,6.2,6.1c4,0.3,6.7-1.7,7.5-5.8c0.4-1.9,0.4-3.8,0.4-5.7
	c0-25.3,0.8-50.6-0.4-75.8c-0.7-16.9-1.3-33.8-2.6-50.8c-1.5-19.1-3.2-38.2-4.8-57.3c-1.1-14-2.8-28-4.3-42
	c-0.9-8.9-2-17.8-2.7-26.7c-1-11.8-1.4-23.6-2.5-35.4c-1.9-20.4-1.4-40.9-2.2-61.3c-2.2-58.2-1.1-116.4-1.4-174.6
	c-0.1-20.5-0.4-41,0.5-61.4c1-26.2,0.9-52.4,1.9-78.6c0.9-23.3,2.2-46.6,3.7-69.9c1.4-21.7,3.3-43.3,5-65
	c0.9-11.8,1.6-23.6,2.5-35.4c0.9-12.4,2.1-24.8,3-37.3c1-13.7,1.8-27.4,2.6-41.2c0.7-12.4,1.3-24.9,1.9-37.4
	c0.1-2.6,0.4-5.1,1.7-7.4c1.2-2.1,3.1-3.2,5.5-3.2c2.4,0.1,4.2,1.3,5.3,3.5c1.1,2.4,1.4,4.9,1.4,7.5c0,5.1,0.3,10.3-0.3,15.3
	c-1.1,9.6-0.9,19.2-1.5,28.7c-0.9,14.4-2,28.7-3,43c-0.7,9.6-1.5,19.1-2.2,28.7c-0.9,12.1-1.5,24.2-2.5,36.4
	c-0.9,11.8-2.1,23.6-3.1,35.3c-0.8,9.6-1.1,19.1-2,28.7c-1.3,14.6-1.6,29.4-2.5,44c-2.5,38-1.5,76.1-2.5,114.1
	c-1.7,61.7-0.9,123.4-0.9,185.2c0,24,0.7,48,2.1,71.9c1.3,23,2.4,46,4.8,68.9c1.9,18.1,2.9,36.3,4.6,54.5
	c1.5,16.2,3.2,32.4,4.8,48.7c0.8,8.6,1.7,17.2,2.2,25.8c0.9,16.3,1.8,32.6,2,48.9c0.3,22.7,0.1,45.4,0.1,68.1c0,2.9-0.1,5.8,0.3,8.6
	c0.7,5.6,6.6,8.3,11.5,5.4c1.5-0.9,2.4-2.2,2.5-3.9c0.1-1.9,0.2-3.9-0.1-5.7c-1.1-6.7-0.9-13.4-1.3-20.1c-0.9-15.3-2-30.6-3.1-45.9
	c-0.8-10.2-0.9-20.4-1.9-30.6c-1.4-13-1.7-26.2-2.6-39.2c-0.8-11.5-1.9-22.9-2.9-34.4c-0.8-9.6-1.7-19.1-2.3-28.7
	c-1-16-1.6-31.9-2.5-47.9c-3.5-61.4-1.5-122.8-2.1-184.2c-0.3-26.5-1.1-53.1-1.3-79.6c-0.2-16.6-0.7-33.3,0.4-49.9
	c1.5-21.4,0.6-42.8,2.7-64.2c1.5-14.6,1.6-29.4,2.5-44c0.8-12.4,2-24.8,3.1-37.3c1.5-16.9,3-33.8,4.5-50.6c1-10.5,2.1-21,3-31.5
	c0.9-9.9,1.7-19.7,2.3-29.6c2-31.6,2.9-63.3,2.3-94.9c-0.1-3.5-0.1-7-0.1-10.6c0-1.9,0.1-3.9,0.5-5.7c0.8-3.6,3.5-5.9,6.6-5.9
	c2.8,0,5.3,2,6.1,5.2c0.6,2.5,1,5,1,7.6c0,27.8,0.8,55.6-1.3,83.4c-0.9,12.7-1.1,25.5-2.3,38.3c-1.2,12.7-2.2,25.5-3.3,38.2
	c-0.8,9.9-1.7,19.7-2.5,29.6c-1,11.8-2.1,23.6-3.2,35.3c-0.7,7.6-1.5,15.3-2.1,22.9c-0.9,11.8-1.7,23.6-2.5,35.4
	c-3.5,54.3-1.9,108.7-2.2,163.1c-0.3,60.1,0,120.3,0.8,180.4c0.3,21.7,0.9,43.5,2,65.2c1.1,23,3.2,45.9,4.9,68.9
	c1.5,20.4,2.9,40.8,4.5,61.2c1.6,20.7,3.4,41.4,4.9,62.1c0.5,6.7,0.3,13.4,0.8,20.1c0.5,7.3,1.2,14.7,1.9,22c0.2,1.5,0.9,3,1.6,4.4
	c0.7,1.3,3.4,1.2,4.2,0c0.5-0.8,1.1-1.6,1.3-2.5c0.5-2.2,1.1-4.4,1.1-6.6c0.3-18.2,0.7-36.4-0.6-54.7c-0.8-12.1-0.5-24.3-1.2-36.4
	c-1-19.5-1.2-39-3-58.4c-1.2-13-1.6-26.2-2.5-39.2c-0.9-13.7-2-27.4-3.1-41.1c-0.1-1.3-0.3-2.5-0.3-3.8c-0.6-20.8-2.2-41.5-2.7-62.3
	c-0.8-30.7-1.8-61.4-0.8-92.1c1.1-34.8,0.5-69.7,2-104.5c0.9-20.5,0.5-40.9,1.7-61.4c1.2-20.1,0.8-40.3,2-60.4
	c1-15.7,0.6-31.3,1.7-47c1.7-24.3,0.9-48.6,2.2-72.9c1.5-28.8,0.5-57.6,1.8-86.3c1.2-27.8,1.3-55.6,1.9-83.4c0.2-7,0.8-14,1.3-21.1
	c0.4-4.8,2.4-7.3,5.8-7.6c3.4-0.3,6.2,2,7.2,6.3c0.5,2.2,0.8,4.4,0.8,6.6c0,8.9,0.2,17.9-0.6,26.8c-0.6,5.7-0.5,11.5-0.6,17.2
	c-0.2,20.2,0.1,40.3-0.8,60.4c-1.1,24.6-0.7,49.3-2,73.8c-0.9,17.6-0.6,35.2-1.7,52.7c-1.2,18.8-0.9,37.7-2.1,56.6
	c-0.9,14.4-0.7,28.8-1.8,43.1c-1.6,20.8-0.8,41.6-1.9,62.3c-1.9,34.8-0.6,69.7-2.1,104.5c-1,22.7-1,45.4-0.8,68.1
	c0.2,27.8,0.9,55.6,1.9,83.4c0.9,23.6,2.2,47.3,3.8,70.9c1.4,21.4,3.2,42.7,4.9,64.1c0,0.6,0.1,1.3,0.1,1.9
	c0.8,18.5,1.6,37.1,2.4,55.6c1.2,26.2,2,52.4,1.5,78.6c0,1,0,1.9,0.1,2.9c0.5,5.9,1.9,7.4,7.5,7.8c2.9,0.2,5.8,0.1,8.6,0.1
	c53.1,0,106.2-0.6,159.3,0.3c41.3,0.8,82.5,0.5,123.8,1c3.5,0,7.1,0.1,10.5,0.8c10.8,2.1,16.8,8.2,18.9,19c1.2,6,1.6,12,1.6,18.1
	c-0.1,28.5,0.5,57-0.4,85.4c-1.3,38-0.4,76.1-1.9,114.1c-1.5,35.5-1,71-1.6,106.5c-0.1,3,0.1,6.1,0.3,10.9c0.7-2.4,1-3,1-3.6
	c0.9-16.3,1.4-32.6,2.6-48.8c1.6-22,2.7-44,4-66c0.8-13.1,0.9-26.2,1.8-39.3c2.5-36.1,1.5-72.3,1.6-108.4c0-2.6-0.1-5.1,0.2-7.7
	c0.2-1.9,0.7-3.8,1.5-5.5c1.2-2.5,3.5-3.7,6.3-3.5c2.5,0.1,4.8,1.9,5.4,4.7c0.5,2.8,0.7,5.7,0.7,8.6c0,27.8,0.2,55.7-0.2,83.5
	c-0.3,20.8-1.2,41.5-2.2,62.3c-1,19.8-2.3,39.6-3.7,59.3c-1.6,23-3.4,45.9-5,68.9c-0.1,1-0.1,1.9-0.1,2.9
	c-2.5,42.8-2.3,85.7-2,128.5c0.1,7.4-0.1,14.7,0.2,22.1c1.5,35.5,0.9,71,2.1,106.5c0.7,20.5,0.7,40.9,1.8,61.4
	c1,17.6,0.8,35.2,1.9,52.7c1.2,17.6,0.7,35.2,1.9,52.7c1.2,17.3,0.7,34.5,1.8,51.8c1.8,31.3,0.8,62.7,2.1,94
	c1.4,32.9,0.9,65.9,1.4,98.8c0.1,4.7-0.3,9.5-0.4,14.2c-4.5,0-9,0-13.4,0c-0.6-36.1-0.1-72.2-1.6-108.4c-1.4-33.8,0-67.8-2-101.6
	c-1.1-18.8-0.6-37.7-1.9-56.5c-1.2-17.5-1-35.1-1.8-52.7c-1.5-30-1.8-60.1-2.6-90.1c-0.2-7.9-0.2-15.9-0.4-23.8c-1,4.4-1,8.9-1,13.3
	c0.6,32.3,0.1,64.6,1.4,96.8c1.6,39,1.1,78,1.8,117c1.1,57.9,0.5,115.7,0.5,173.6c0,4.1-0.5,8.3-0.7,12.4
	c-0.4,9.1-4.5,15.8-12.8,19.9c-175.3,0-350.6,0-525.9,0c-6.1-9.1-8.3-19.1-8.2-30c0.1-16-0.7-31.9-1.1-47.9
	c-1.1-41.5-1.2-83.1-2.2-124.6c-0.9-32.6-0.6-65.2-2-97.8c-0.1-1.5-0.2-3-0.3-4.7c-1.8,0.8-1.9,2.2-2.1,3.3
	c-4.7,20.6-11.2,40.7-17,60.9c-8.1,28.6-14.3,57.7-18.8,87.1c-3.3,21.8-5.7,43.7-7.9,65.6c-2,19.7-4.1,39.4-5.3,59.2
	c-0.3,4.2-1,8.3-2.4,12.2c-2.2,6.1-6.5,10.1-12.9,11.7c-5.7,1.5-11.4,1.5-17.1,0.7c-9.5-1.3-19.1-1.3-28.7-1.4
	c-18.2-0.1-36.4,0.5-54.6,1.8c-15.3,1.1-30.6,1.6-45.9,2.4c-1.9,0.1-3.7,0.8-5.6,1.2c-111.3,0-222.7,0-334,0
	c-5.4-5.5-7.8-12.2-8.5-19.8c-0.6-6.7-1.2-13.4-1.2-20.1c-0.2-30.1-0.3-60.1-0.5-90.2c0-3.2,0-6.4-0.3-9.6c-0.3-3.2-1.7-4.5-5.1-4.4
	c-24,0.7-47.9-1-71.9-1.2c-33.3-0.2-66.5-0.4-99.8-0.5c-3.8,0-7.7,0-11.5,0.3c-7.1,0.6-9.4,2.8-10.8,9.9c-0.6,3.1-0.7,6.3-0.8,9.5
	c-0.2,7.7-0.1,15.3-0.3,23c-0.3,12.9-3.2,25.3-8.1,37.3c-3.5,8.5-8.7,15.6-16.2,21c-3.9,2.8-7.6,5.9-10.7,9.6
	c-13.9,16.6-31.9,26.3-52.5,31.7c-3.7,1-7.5,1.5-10.9,3.5C531.1,2050,476.7,2050,422.3,2050z M922,1690.5c0.3,22.1,0,44.1,0.9,66.2
	c1.6,37.7,0.9,75.4,1.9,113.2c1.1,42.5,0.7,85.1,0.9,127.6c0,3.2,0,6.4,0.3,9.6c0.5,3.8,2.4,5.7,6.2,6.2c2.5,0.3,5.1,0.4,7.7,0.3
	c31-0.8,62-0.4,93-1.5c39-1.5,78-0.8,117-2.2c23.3-0.8,46.7-0.3,70-0.8c14.1-0.3,28.1-1.4,42.2-1.5c27.8-0.2,55.6,0.3,83.3,3.4
	c3.5,0.4,7,0.5,10.5,0.3c4.1-0.2,6.4-2.2,7.5-6.3c0.3-1.2,0.5-2.5,0.6-3.8c0.6-7,1.3-14,1.9-21c1.9-24.2,5.2-48.3,8.5-72.4
	c5.2-38,10.9-75.9,15.4-114c3.1-26,4.9-52.2,6.8-78.3c1.3-17.8,1.8-35.8,2.6-53.6c0.1-1.3,0.1-2.6,0.2-3.8c1-20.7,2.3-41.5,3.1-62.2
	c0.9-22.7,0.6-45.4,1.6-68.1c1.3-29.7,1-59.5,2-89.2c1-28.8,0.4-57.6,0.4-86.4c0-65.9,0-131.8-0.1-197.7c0-26.5,0.6-53.1,2-79.6
	c0.2-2.9,0.1-5.8-0.2-8.6c-0.3-3.3-2.2-5.1-5.5-5.8c-1.2-0.3-2.5-0.4-3.8-0.4c-11.2-0.2-22.3-1-33.5-1.7c-13.4-0.9-26.8-1-40.2-1.8
	c-20.1-1.1-40.3-0.9-60.4-2.1c-16.9-1-33.9-0.7-50.8-1.7c-22-1.3-44.1-0.9-66.1-2.1c-21.7-1.1-43.5-0.8-65.2-1.7
	c-31.6-1.3-63.3-0.7-94.9-2.3c-8.9-0.5-17.9-0.3-26.9-0.4c-5.1-0.1-10.2-0.3-15.4-0.2c-7.5,0.2-9.4,2.1-10.1,9.7
	c-0.1,0.6-0.1,1.3-0.1,1.9c-0.7,20.8-1.4,41.5-2.1,62.3c-0.9,27.5,0.3,55-1.6,82.5c-0.1,1.9,0.1,3.8,0.2,5.7
	c0.3,5.7,0.7,11.5,0.8,17.2c0.1,14.4-0.6,28.8-0.9,43.1c-0.8,46,0.1,92.1-2.1,138.1c-1,19.8-0.4,39.6-1.7,59.4
	c-1.2,18.2-0.8,36.4-2,54.6c-1.1,15.6-1,31.3-1.7,47c-1.3,25.5-0.8,51.1-2,76.7C921.4,1659.8,922,1675.2,922,1690.5z M486,294.1
	c-0.1,0-0.2,0-0.4,0c0-71.3,0-142.7,0-214c0-4.2-0.1-8.3-0.4-12.5c-0.2-3.2-2.2-5.2-5.3-6.1c-3.4-1-6.9-1.4-10.4-1.3
	c-8.3,0.3-16.6,1-24.9,1c-105.9,0.7-211.7-0.1-317.6,2c-6.4,0.1-12.8-0.1-19.2-0.9c-4.4-0.5-8.9-0.6-13.4-0.5
	c-3.9,0.1-5.8,1.7-6.9,5.4c-0.5,1.8-0.7,3.8-1,5.7c-2.9,19.3-6.5,38.5-11.1,57.4c-8.9,36.4-15.9,73.1-22,110
	c-7.5,45.8-12.5,91.8-16.3,138c-1.7,21-3.1,42.1-3.8,63.2c-1.1,31-1.8,62-2,93c-0.3,36.1,0.3,72.3,0.9,108.4
	c1,54.7,0.5,109.4,0.8,164.1c0.1,16,1.1,31.9,1.4,47.9c0.3,19.5,0.3,39,0.2,58.5c-0.1,14.7,0.4,29.4-1.1,44.1
	c-0.7,7-0.4,14.1-0.3,21.1c0.1,5.3,1.7,6.9,6.8,7.4c7.6,0.8,15.3,1.5,22.9,1.8c22.7,1,45.4,0.6,68.1,1.5c32.6,1.4,65.2,1,97.8,1.9
	c52.1,1.5,104.2,1.7,156.3,2.3c27.5,0.3,55,0.5,82.5,0.5c10.3,0,11.8-1.5,12-11.5c0.4-13.7,0.7-27.5,1.1-41.2
	c0.8-31.6,1-63.3,0.7-95c-0.3-37.7,0.2-75.5-1.4-113.2c-0.6-13.7,0.7-27.5,0.9-41.2c0.6-33.6,0.1-67.1,1.7-100.7
	c1.4-30,1.6-60.1,2-90.1C485.8,432.3,485.7,363.2,486,294.1z M636.9,1485.7c1.9-35.4-2.2-67.4-6.8-99.4c-2.5-17.4-4.7-34.8-6.5-52.3
	c-1-9.3-2.2-18.4-4.8-27.3c-2.6-8.9-5.2-17.8-7.5-26.8c-3.3-12.8-4.6-25.8-2-38.9c0.6-2.8,0.7-5.8,0.4-8.6
	c-2.3-18.1-4.9-36.1-10.7-53.5c-0.6-1.8-1.2-3.7-2-5.4c-2.4-5-4.5-6-9.9-5.3c-3.2,0.5-6.3,0.9-9.5,1.3c-12.1,1.6-24.3,1.4-36.4,1.1
	c-25.7-0.6-51.1,1.7-76.5,5c-32.3,4.3-64.5,9.6-96.8,14.1c-23.7,3.3-47.3,7.5-71.3,9c-17.8,1.1-35.1-0.5-52-6
	c-4.3-1.4-8.6-2.4-13.1-2.1c-5.6,0.4-10.7-1.2-15.8-3.2c-7-2.7-8.4-6.6-2.7-12c0.9-0.9,1.8-1.9,2.4-3c0.6-1.4,1.2-3,1.2-4.5
	c0.2-3.6-3.2-6-6.5-4.6c-2,0.9-4,2.1-5.8,3.4c-10.2,7.5-18.6,16.5-24.6,27.7c-4.4,8.2-7.9,16.8-10.2,25.8
	c-3.9,15.2-7.8,30.4-11.3,45.6c-5.9,25.9-12.6,51.6-21.5,76.6c-1.6,4.5-3.2,9.1-4.4,13.7c-4.6,17.1-7.7,34.2-5.3,52.1
	c2.3,16.4,8.7,30.6,19.8,42.8c10.8,11.9,24,19.9,38.6,26.1c6.8,2.9,13.5,5.9,20,9.4c15,7.9,27.5,18.6,36.8,32.9
	c3.3,5.1,6.8,10,10.7,14.7c9.1,10.9,14.3,23.3,14.4,37.7c0,4.1,0.7,8.3,1.2,12.4c0.8,6.3,1.8,12.7,2.6,19
	c2.8,21.5,5.6,43.1,8.4,64.7c3.5,26.6,7.1,53.2,10.6,79.8c3.1,23.8,6.2,47.5,9.3,71.3c1.1,8.3,1.4,16.6-1.6,24.6
	c-9,24.3-18.4,48.4-28.6,72.3c-0.6,1.5-1.3,2.9-2.2,4.3c-3.3,5.2-7.1,6.1-12.1,2.9c-1.9-1.2-3.6-2.7-5.3-4.1
	c-13.1-10.3-26.2-20.5-39.2-30.8c-6.4-5.1-13.5-8.6-21.3-10.7c-5.5-1.5-11.1-2.9-16.7-4.3c-1.9-0.5-3.8-0.9-5.6-1
	c-8.2-0.3-12.4,6.4-8.5,13.4c3.3,5.9,8,10.7,13.3,15c13.9,11,29.4,19.3,45.7,26.1c31.2,12.8,63.7,21,96.8,27
	c27.1,4.9,54.3,8.6,81.5,12.2c26.3,3.5,52.7,6.4,79.1,8.6c22.3,1.8,44.7,2.9,67,3.9c17.6,0.8,35.1,0.7,52.7,1.9
	c13.7,0.9,27.5,0.6,40.7,5.2c3.8,1.3,6.2,0,7.5-3.9c1.5-4.2,2.6-8.6,3.4-13c3.9-20.1,4.9-40.6,5.8-61c0.5-11.5-0.5-23-0.9-34.5
	c-1-27.8-0.6-55.6-2-83.4c-0.8-14.7-0.5-29.4-0.5-44.1c0.1-23.7-0.1-47.3-2.2-70.9c-1.6-17.9-1.8-35.7-1.9-53.7
	c0-9.4,1.2-18.5,3.9-27.4c4.1-13.2,3.3-25.9-4-37.9c-3.1-5-4.5-10.5-5.4-16.3c-1.3-8.6-2-17.1-1.9-25.8
	C637,1503.2,636.9,1493,636.9,1485.7z M1031.8,815.2c-0.1,0-0.1,0-0.2,0c0,7.5,0,15,0,22.5c0.1,0,0.1,0,0.2,0
	C1031.8,830.2,1031.8,822.7,1031.8,815.2z M1995.6,1384.9c-0.1,0-0.2,0-0.3,0c0,5.1,0,10.1,0,15.2c0.1,0,0.2,0,0.3,0
	C1995.6,1395,1995.6,1389.9,1995.6,1384.9z M1995.5,1542.4c-0.1,0-0.1,0-0.2,0c0,3.2,0,6.3,0,9.5c0.1,0,0.1,0,0.2,0
	C1995.5,1548.8,1995.5,1545.6,1995.5,1542.4z"/>
<path class="st0" d="M801.9,267.7c-2.7,3-5.4,6-8,9.1c-33,39.1-66,78.2-99,117.3c-13.2,15.6-26.5,31.2-39.4,47
	c-6.8,8.3-15.3,12.4-25.9,12c-14.4-0.6-28.7-1.7-43.1-1.9c-16.6-0.2-33.2-1.1-49.8-1.7c-1.3,0-2.6-0.1-3.8-0.5
	c-4.5-1.1-6.6-5.5-4.4-9.7c0.8-1.7,2.1-3.2,3.3-4.7c31.6-38.6,63.3-77.1,95-115.7c35.9-43.8,71.8-87.5,107.7-131.3
	c27.3-33.4,54.6-66.9,81.8-100.4c1.4-1.7,2.9-3.4,4.4-5.1c4.7-5,10.7-6.4,17.4-6.3c18.2,0.3,36.5,0.3,54.7,0.5
	c3.8,0,7.7-0.1,11.5,0.3c6.5,0.7,9.1,3,10.3,9.4c0.6,3.1,0.8,6.4,0.8,9.5c0.1,18.9,0.8,37.8-0.1,56.6c-1.7,35.5-0.6,71-1.6,106.5
	c-0.1,3.2,0.1,6.4,0.3,9.6c0,0.5,0.7,1.1,1.2,1.3c0.5,0.2,1.3,0,1.7-0.3c1.1-1.1,2.2-2.3,3.2-3.6c34.3-41.4,68.5-82.8,102.8-124.2
	c14.3-17.3,28.6-34.4,42.6-51.9c6.3-7.9,14-11.5,24.1-11.4c17.9,0.3,35.8,0,53.7,0.1c2.9,0,5.8,0,8.6,0.4c5.6,0.8,9.4,3.9,10.4,9.7
	c0.4,2.5,0.8,5.1,0.6,7.6c-1.8,17.9-1.1,35.8-1.3,53.7c-0.3,37.4-0.2,74.8-0.1,112.3c0,3.2-1.7,7.1,1.8,9.8c3.4-1,4.7-4.2,6.7-6.6
	c34.4-41.7,68.8-83.4,103.2-125.1c14.6-17.8,29.4-35.5,43.7-53.5c6.1-7.7,13.4-11,23.2-10.7c17.9,0.5,35.8,0.2,53.7,0.3
	c2.9,0,5.8,0,8.6,0.4c4,0.6,6.3,2.8,6.9,6.9c0.4,2.8,0.4,5.7,0.4,8.6c-0.1,65.3-0.3,130.5-0.4,195.8c-0.1,37.1-0.1,74.2-0.4,111.3
	c-0.1,12.8-0.7,25.6-1.3,38.3c-0.4,9-4,12.7-12.8,13.7c-3.8,0.4-7.7,0.5-11.5,0.4c-20.8-0.6-41.5,1.8-62.3,1.8
	c-3.2,0-6.4,0.2-9.6-0.3c-5.9-0.8-9.1-4-9.9-10c-0.4-2.5-0.3-5.1-0.3-7.7c0.2-30.1-0.3-60.2,0.8-90.2c0.9-23.7,0.7-47.3,1.1-71
	c0-2.5,0-5.1,0-7.4c-2.5-1.4-3.3,0.4-4.2,1.5c-16.3,19.3-32.6,38.6-48.8,58c-21.8,26-43.6,52-65.3,78
	c-10.7,12.8-21.2,25.6-31.8,38.5c-12.6,15.4-14.5,14.7-30.9,14.6c-17-0.1-33.9,0-50.9,0c-3.2,0-6.4,0.1-9.6-0.2
	c-5.5-0.6-8.7-3.6-9.6-9.1c-0.4-2.5-0.5-5.1-0.4-7.6c0.6-18.2-0.2-36.5,1.5-54.6c0.6-6.3,0.2-12.8,0.3-19.2
	c0.1-28.8,0.1-57.6,0.1-86.4c0-2.5-0.1-5.1-0.4-7.6c-0.1-1.1-1.2-1.6-2.2-0.9c-1,0.7-1.9,1.7-2.7,2.6
	c-34.3,40.9-68.6,81.9-102.8,122.8c-13.1,15.7-26.2,31.4-39.3,47.2c-1.6,2-3.4,3.8-5.2,5.7c-4.6,4.9-10.3,7.4-17.1,7.3
	c-9-0.1-17.9,0-26.9-0.1c-13.4,0-26.9,0.1-40.3-0.1c-12.5-0.1-15-2.7-15.7-15.2c-0.1-1.3-0.1-2.6,0-3.8c2.2-31.9,0.8-63.9,1.4-95.9
	c0.4-19.2,0.3-38.4,0.5-57.6c0-3.8,0.6-7.6,0.8-11.5C803.4,271.5,804.3,269.5,801.9,267.7z"/>
</svg>
