# Blender v3.2.0 OBJ File: 'REMERA BLEND PRUEBAAA.blend'
# www.blender.org
o Object_1.001_Object_1.002
v 0.251995 1.660291 -2.276178
v 0.251995 1.662036 -2.290324
v -0.149597 1.660291 -2.276178
v -0.149597 1.662036 -2.290324
v -0.163547 1.661561 -2.276021
v -0.163547 1.663306 -2.290168
v -0.177816 1.665633 -2.275519
v -0.177816 1.667378 -2.289665
v -0.191547 1.672693 -2.274648
v -0.191547 1.674438 -2.288794
v -0.203805 1.682576 -2.273429
v -0.203805 1.684321 -2.287575
v -0.213762 1.694742 -2.271928
v -0.213762 1.696487 -2.286074
v -0.220876 1.708370 -2.270247
v -0.220876 1.710115 -2.284393
v -0.224979 1.722531 -2.268500
v -0.224979 1.724276 -2.282646
v -0.226259 1.736376 -2.266792
v -0.226259 1.738121 -2.280938
v -0.226259 1.941536 -2.241483
v -0.226259 1.943281 -2.255630
v -0.226259 1.941536 -2.241483
v -0.226259 1.943281 -2.255630
v 0.328657 1.941536 -2.241483
v 0.328657 1.943281 -2.255630
v 0.328657 1.941536 -2.241483
v 0.328657 1.943281 -2.255630
v 0.328657 1.736376 -2.266792
v 0.328657 1.738121 -2.280938
v 0.327377 1.722531 -2.268500
v 0.327377 1.724276 -2.282646
v 0.323274 1.708370 -2.270247
v 0.323274 1.710115 -2.284393
v 0.316161 1.694742 -2.271928
v 0.316161 1.696487 -2.286074
v 0.306203 1.682576 -2.273429
v 0.306203 1.684321 -2.287575
v 0.293945 1.672693 -2.274648
v 0.293945 1.674438 -2.288794
v 0.280214 1.665633 -2.275519
v 0.280214 1.667378 -2.289665
v 0.265945 1.661561 -2.276021
v 0.265945 1.663306 -2.290168
v 0.251995 1.660291 -2.276178
v 0.251995 1.662036 -2.290324
v 0.251995 1.660291 -2.276178
v -0.149597 1.660291 -2.276178
v -0.163547 1.661561 -2.276021
v -0.177816 1.665633 -2.275519
v -0.191547 1.672693 -2.274648
v -0.203805 1.682576 -2.273429
v -0.213762 1.694742 -2.271928
v -0.220876 1.708370 -2.270247
v -0.224979 1.722531 -2.268500
v -0.226259 1.736376 -2.266792
v -0.226259 1.941536 -2.241483
v 0.328657 1.941536 -2.241483
v 0.328657 1.736376 -2.266792
v 0.327377 1.722531 -2.268500
v 0.323274 1.708370 -2.270247
v 0.316161 1.694742 -2.271928
v 0.306203 1.682576 -2.273429
v 0.293945 1.672693 -2.274648
v 0.280214 1.665633 -2.275519
v 0.265945 1.661561 -2.276021
v 0.251995 1.662036 -2.290324
v -0.149597 1.662036 -2.290324
v -0.163547 1.663306 -2.290168
v -0.177816 1.667378 -2.289665
v -0.191547 1.674438 -2.288794
v -0.203805 1.684321 -2.287575
v -0.213762 1.696487 -2.286074
v -0.220876 1.710115 -2.284393
v -0.224979 1.724276 -2.282646
v -0.226259 1.738121 -2.280938
v -0.226259 1.943281 -2.255630
v 0.328657 1.943281 -2.255630
v 0.328657 1.738121 -2.280938
v 0.327377 1.724276 -2.282646
v 0.323274 1.710115 -2.284393
v 0.316161 1.696487 -2.286074
v 0.306203 1.684321 -2.287575
v 0.293945 1.674438 -2.288794
v 0.280214 1.667378 -2.289665
v 0.265945 1.663306 -2.290168
vt 0.864866 0.000161
vt 0.864866 0.551217
vt 0.822789 0.551217
vt 0.822788 0.000161
vt 0.864866 0.570439
vt 0.822789 0.570439
vt 0.864866 0.590812
vt 0.822789 0.590812
vt 0.864866 0.612032
vt 0.822789 0.612032
vt 0.864866 0.633703
vt 0.822789 0.633703
vt 0.864866 0.655373
vt 0.822789 0.655373
vt 0.864866 0.676593
vt 0.822789 0.676593
vt 0.864866 0.696966
vt 0.822789 0.696966
vt 0.864866 0.716188
vt 0.822789 0.716188
vt 0.864866 0.999839
vt 0.822789 0.999839
vt 0.907266 0.000161
vt 0.907266 0.761604
vt 0.865188 0.761604
vt 0.865188 0.000161
vt 0.907588 0.448783
vt 0.907588 0.165132
vt 0.949665 0.165132
vt 0.949665 0.448783
vt 0.907588 0.145910
vt 0.949665 0.145910
vt 0.907588 0.125537
vt 0.949665 0.125537
vt 0.907588 0.104317
vt 0.949665 0.104317
vt 0.907588 0.082646
vt 0.949665 0.082646
vt 0.907588 0.060976
vt 0.949665 0.060976
vt 0.907588 0.039756
vt 0.949665 0.039756
vt 0.907588 0.019383
vt 0.949665 0.019383
vt 0.907588 0.000161
vt 0.949665 0.000161
vt 0.105355 0.761606
vt 0.086213 0.759850
vt 0.000161 0.656413
vt 0.047791 0.744459
vt 0.030971 0.730796
vt 0.066633 0.754220
vt 0.389006 0.761606
vt 0.017308 0.713976
vt 0.007547 0.695134
vt 0.001917 0.675554
vt 0.389006 0.000161
vt 0.086213 0.001917
vt 0.047792 0.017308
vt 0.066633 0.007547
vt 0.105355 0.000161
vt 0.030972 0.030971
vt 0.000161 0.105355
vt 0.001917 0.086213
vt 0.017308 0.047792
vt 0.007547 0.066633
vt 0.515438 0.000161
vt 0.410244 0.105355
vt 0.496297 0.001917
vt 0.457875 0.017308
vt 0.476717 0.007547
vt 0.441055 0.030971
vt 0.799089 0.000161
vt 0.427391 0.047791
vt 0.417630 0.066633
vt 0.412000 0.086213
vt 0.799089 0.761606
vt 0.496296 0.759850
vt 0.476716 0.754220
vt 0.457875 0.744459
vt 0.515438 0.761606
vt 0.441055 0.730796
vt 0.410244 0.656412
vt 0.412000 0.675554
vt 0.427391 0.713975
vt 0.417630 0.695134
vn 0.0000 -0.9925 -0.1224
vn -0.0457 -0.9914 -0.1223
vn -0.1847 -0.9754 -0.1203
vn -0.3700 -0.9221 -0.1137
vn -0.5481 -0.8301 -0.1024
vn -0.7071 -0.7018 -0.0866
vn -0.8364 -0.5440 -0.0671
vn -0.9290 -0.3672 -0.0453
vn -0.9828 -0.1833 -0.0226
vn -0.9990 -0.0454 -0.0056
vn -1.0000 0.0000 0.0000
vn 0.0000 0.9925 0.1224
vn 1.0000 0.0000 0.0000
vn 0.9990 -0.0454 -0.0056
vn 0.9828 -0.1833 -0.0226
vn 0.9290 -0.3672 -0.0453
vn 0.8364 -0.5440 -0.0671
vn 0.7071 -0.7018 -0.0866
vn 0.5481 -0.8301 -0.1024
vn 0.3700 -0.9221 -0.1137
vn 0.1847 -0.9754 -0.1203
vn 0.0914 -0.9883 -0.1219
vn -0.0000 -0.1224 0.9925
vn -0.0002 -0.1225 0.9925
vn -0.0001 -0.1224 0.9925
vn -0.0000 -0.1225 0.9925
vn 0.0001 -0.1224 0.9925
vn -0.0002 -0.1224 0.9925
vn 0.0002 -0.1224 0.9925
vn 0.0000 0.1224 -0.9925
vn 0.0003 0.1224 -0.9925
vn 0.0000 0.1225 -0.9925
vn 0.0001 0.1225 -0.9925
vn 0.0001 0.1224 -0.9925
vn -0.0001 0.1225 -0.9925
vn -0.0002 0.1225 -0.9925
s 1
f 1/1/1 3/2/2 4/3/2 2/4/1
f 3/2/2 5/5/3 6/6/3 4/3/2
f 5/5/3 7/7/4 8/8/4 6/6/3
f 7/7/4 9/9/5 10/10/5 8/8/4
f 9/9/5 11/11/6 12/12/6 10/10/5
f 11/11/6 13/13/7 14/14/7 12/12/6
f 13/13/7 15/15/8 16/16/8 14/14/7
f 15/15/8 17/17/9 18/18/9 16/16/8
f 17/17/9 19/19/10 20/20/10 18/18/9
f 19/19/10 21/21/11 22/22/11 20/20/10
f 23/23/12 25/24/12 26/25/12 24/26/12
f 27/27/13 29/28/14 30/29/14 28/30/13
f 29/28/14 31/31/15 32/32/15 30/29/14
f 31/31/15 33/33/16 34/34/16 32/32/15
f 33/33/16 35/35/17 36/36/17 34/34/16
f 35/35/17 37/37/18 38/38/18 36/36/17
f 37/37/18 39/39/19 40/40/19 38/38/18
f 39/39/19 41/41/20 42/42/20 40/40/19
f 41/41/20 43/43/21 44/44/21 42/42/20
f 43/43/21 45/45/22 46/46/22 44/44/21
f 56/47/23 55/48/23 48/49/23
f 53/50/24 52/51/23 54/52/25
f 54/52/25 52/51/23 55/48/23
f 48/49/23 57/53/23 56/47/23
f 48/49/23 52/51/23 51/54/26
f 50/55/24 49/56/27 51/54/26
f 48/49/23 51/54/26 49/56/27
f 48/49/23 55/48/23 52/51/23
f 48/49/23 58/57/23 57/53/23
f 60/58/25 62/59/27 61/60/28
f 59/61/23 63/62/23 60/58/25
f 47/63/23 59/61/23 58/57/23
f 62/59/27 60/58/25 63/62/23
f 66/64/23 59/61/23 47/63/23
f 64/65/29 63/62/23 65/66/23
f 59/61/23 66/64/23 65/66/23
f 59/61/23 65/66/23 63/62/23
f 48/49/23 47/63/23 58/57/23
f 76/67/30 68/68/30 75/69/30
f 73/70/31 74/71/32 72/72/30
f 74/71/32 75/69/30 72/72/30
f 68/68/30 76/67/30 77/73/30
f 68/68/30 71/74/33 72/72/30
f 70/75/30 71/74/33 69/76/30
f 68/68/30 69/76/30 71/74/33
f 68/68/30 72/72/30 75/69/30
f 68/68/30 77/73/30 78/77/30
f 80/78/34 81/79/33 82/80/35
f 79/81/30 80/78/34 83/82/30
f 67/83/30 78/77/30 79/81/30
f 82/80/35 83/82/30 80/78/34
f 86/84/30 67/83/30 79/81/30
f 84/85/36 85/86/30 83/82/30
f 79/81/30 85/86/30 86/84/30
f 79/81/30 83/82/30 85/86/30
f 68/68/30 78/77/30 67/83/30
