<svg id="Layer_1" data-name="Layer 1" xmlns="http://www.w3.org/2000/svg" viewBox="0 0 1024 1024"><defs><style>.cls-1{fill:#33b3d1;}.cls-2{fill:#fff;}</style></defs><title>logo magenta trasero </title><path d="M820,1025H516c-7.35-.6-14.32-2.88-21.3-5a101.4,101.4,0,0,1-43-26.43c-21.38-21.79-31.81-48.62-31.84-79q-.25-276.46,0-552.92c0-14.69,1.44-29.19,6.13-43.28a105.82,105.82,0,0,1,26.67-42.84c22-21.47,49-31.57,79.58-31.63q139.72-.28,279.46-.06c1.66,0,3.33.07,5,.09,2.46,0,3.66,1.25,3.63,3.72,0,1.67,0,3.33,0,5q0,382.7,0,765.39C820.34,1020.35,820.12,1022.68,820,1025Z"/><path d="M1,930V340a116.28,116.28,0,0,1,13.48-40.45,106.21,106.21,0,0,1,36.33-38.39c19.27-12.4,40.88-17.31,63.65-17.32q138.2-.06,276.4,0c1.66,0,3.33.08,5,0,3.08-.09,4.7,1.19,4.49,4.44-.09,1.5,0,3,0,4.5q0,382.62,0,765.23c0,2.33-.23,4.65-.35,7H96c-2.94-.47-5.92-.76-8.8-1.46-11.37-2.75-22.32-6.58-32.5-12.5a108.39,108.39,0,0,1-39.23-38.88A112.1,112.1,0,0,1,1,930Z"/><path d="M843,1025c-.13-2.32-.37-4.64-.37-7q0-505,0-1010.08c0-2.32.24-4.64.37-7h44c.14,2.65.41,5.3.42,8q0,113.73,0,227.47c0,7.27.1,7.37,7.16,7.39,10.16,0,20.33.12,30.49,0,4.4-.07,6.4,1.48,6.23,6.11-.25,6.82-.05,13.66-.05,20.49v287c0,7.23,0,7.24,7.24,7.25,10.17,0,20.34.15,30.5-.06,4.16-.08,5.82,1.49,5.38,5.54-.1,1,0,2,0,3q0,222.46,0,444.95c0,2.32-.24,4.64-.37,7Z"/><path class="cls-1" d="M487.9,995.17a86.41,86.41,0,0,1-18.12-13.76c-16.86-16.86-26.09-41.33-25.55-61.68V348.58c-.54-20.34,8.69-44.82,25.55-61.67a86.41,86.41,0,0,1,18.12-13.76Z"/><path class="cls-1" d="M575.07,272.09a86.41,86.41,0,0,1,18.12,13.76c16.85,16.86,26.09,41.33,25.55,61.68V918.68c.54,20.34-8.7,44.82-25.55,61.67a86.41,86.41,0,0,1-18.12,13.76Z"/><path class="cls-2" d="M487.84,995.27V273.05l.06.1c14-8,29.72-12.16,43.56-11.79,13.84-.37,29.59,3.79,43.55,11.79l.06-.1V995.27l-.06-.1c-14,8-29.71,12.15-43.55,11.79-13.84.36-29.59-3.79-43.56-11.79"/><path class="cls-2" d="M740.78,516c2.84,0,7-1.56,8.12-3.72,3.82-7.34-.19-20.85-6.66-26l-46.3-37.59-4.11-5.09,7.83-.39h36.22c13.61,0,13.41,0,13.71-13.7.09-6.17-1.28-11-6.37-15l-46.79-37.79-4.7-5.38,7.44-.59h35.24c16.65,0,14.88.59,15.18-15.17.09-6-2.16-10.09-6.76-13.81l-65.68-53.45-31.62-25.45c-4.21-3.23-6.07-2.25-6.27,3l-.19,20.55c-.2,5,1.76,8.72,5.58,11.75l47.28,37.89,4.6,5.38-7.54.59-43.56.1c-4.31-.1-6.36,1.76-6.36,6.06l.19,13.22a14.32,14.32,0,0,0,4.31,8.22l48,38.67,5.09,5.19-7.44.68-42.59.2c-2.35,0-5.87,1.37-6.75,3.13-3.82,7.74-.39,21.54,6.36,26.83a11,11,0,0,1,4.51,9.69V481c0,4-1.28,6.26-5.58,6.07S639,489.4,639,493.51V507.7c0,6.85,1.56,8.42,8.32,8.42h37.2Zm-62.07-29.85c-2.44-1.67-2.35-10.58.59-15.08l16.45,13.51C692.61,487,681.06,487.83,678.71,486.17Z"/><path class="cls-2" d="M743.62,988.55c3.72-.49,6-2.35,5.77-6.46l.1-11.26c.59-6.36-2-10.77-6.85-14.68l-60.4-48.85-18.7-15.37,4.5-1.47H716.5c3.43,0,5,1.67,5,5.19v22c-.1,4.4,1.86,6.85,6.36,6.85l14.69-.1c4.31-.19,6.85-2.45,6.75-7.15V856.59c0-3.62-.49-7.14-5.09-7.34l-18.11.2c-1.56.09-3.91,2.44-4.3,4.11-1.77,7.73-1.57,7.83-9.79,7.83H650.32c-11.35,0-11.65.29-11.65,11.84l-.09,27.9c-.3,7.25,1.66,12.53,7.63,16.84,2.16,1.66,3.82,5.29,4,8.13l.19,27.89c.1,3.92-1.37,5.88-5.38,5.68-4.7-.29-6.27,2.55-6.27,6.76v12.23c0,9.21.79,10.09,10,10.09h90.45Zm-65.3-29.86c-2.05-1.76-1.86-10.08,1-14.58l16,13C692.12,959.77,680.57,960.55,678.32,958.69Z"/><path class="cls-2" d="M692.42,810.88l6.56.58h42.09c7.34,0,8.42,1.08,8.42,8.62v13.21c.1,4.8-2.15,6.76-6.85,6.76H646.7c-7.05,0-7.34-.88-8-7.93-1.07-10.77,1.77-18.7,11.26-25.36,14.2-10,27.31-21.63,40.92-32.5l5.39-4-1.08-1.76-5.88-.69-42.58-.1c-7,0-7.83-.88-7.93-7.92V745.09c0-4.11,2.06-6,6.07-5.87h95.45c8.42,0,8.42.78,9.3,9.3,1.07,10.47-3,17.32-11.26,23.49-14.39,10.67-27.9,22.42-41.9,33.68l-5.09,3.72Z"/><path class="cls-2" d="M645.14,608.92c-6.07-10.08-9.21-20.16-8.42-31.32,1.76-24,19-44.05,42-51,27-8.13,60.4,6.85,69.8,38,6.66,22,1.47,41.9-15.08,58.44-4.79,4.8-7.24,4.31-11.25-1.27l-5.88-8.42c-3.13-4.11-3.13-7.64.2-11.85,11.84-15.17,7.83-34.94-8.71-44.44-11.95-6.85-29-3.23-37.3,8-10.18,13.7-6.85,28.58,2.94,38.57,1,1,3,2,4,1.47s1.76-2.55,1.76-3.92l.1-15.17c0-4.51,1.86-7,6.75-6.86h10.28c4.11-.19,6.37,2,6.37,5.68l.09,42.58c0,3.53-2.25,5.68-6,5.68H645.43c-4.5,0-6.95-2.25-6.76-7v-6.36C638.48,615,639.26,610.78,645.14,608.92Z"/><path class="cls-2" d="M693.89,643.48h47c7.44,0,8.62,1.17,8.62,8.42v68c0,6.56-1.47,7.93-8.13,8H729.13c-6.17-.2-7.44-1.47-7.44-7.64V680.19c0-6.85-1.18-8.13-7.83-8-6,0-7.54,1.67-7.54,8.13v30.34c0,6.27-1.57,7.83-7.74,8H687.82c-5.58-.2-7.25-1.86-7.25-7.44V679.9c0-6.56-4.21-9.79-10.18-7.15-1.76.78-3.13,4.31-3.23,6.66L667,718.07c0,8.91-1.08,10-10.28,10.09H646.41c-6.27-.2-7.44-1.28-7.44-7.54V651.11c.1-6.26,1.17-7.44,7.54-7.44Z"/></svg>